<svg width="500" height="500" viewBox="0 0 500 500" fill="none" xmlns="http://www.w3.org/2000/svg">
<path d="M500 382.4H0V382.65H500V382.4Z" fill="#EBEBEB"/>
<path d="M449.9 398.49H416.78V398.74H449.9V398.49Z" fill="#EBEBEB"/>
<path d="M331.22 401.21H322.53V401.46H331.22V401.21Z" fill="#EBEBEB"/>
<path d="M415.78 389.21H368.11V389.46H415.78V389.21Z" fill="#EBEBEB"/>
<path d="M76.14 390.89H52.46V391.14H76.14V390.89Z" fill="#EBEBEB"/>
<path d="M110.89 390.89H85.04V391.14H110.89V390.89Z" fill="#EBEBEB"/>
<path d="M196.11 395.11H131.47V395.36H196.11V395.11Z" fill="#EBEBEB"/>
<path d="M237 337.8H43.91C42.3973 337.797 40.9475 337.195 39.8788 336.124C38.8102 335.053 38.21 333.603 38.21 332.09V60.66C38.2231 59.156 38.8292 57.718 39.8964 56.6582C40.9637 55.5985 42.4059 55.0026 43.91 55H237C238.514 55 239.967 55.6016 241.038 56.6724C242.108 57.7433 242.71 59.1956 242.71 60.71V332.09C242.71 333.604 242.108 335.057 241.038 336.128C239.967 337.198 238.514 337.8 237 337.8ZM43.91 55.2C42.4636 55.2026 41.0774 55.7791 40.0556 56.8027C39.0338 57.8264 38.46 59.2136 38.46 60.66V332.09C38.46 333.536 39.0338 334.924 40.0556 335.947C41.0774 336.971 42.4636 337.547 43.91 337.55H237C238.447 337.547 239.834 336.971 240.858 335.948C241.881 334.924 242.457 333.537 242.46 332.09V60.66C242.457 59.2127 241.881 57.8255 240.858 56.8021C239.834 55.7787 238.447 55.2026 237 55.2H43.91Z" fill="#EBEBEB"/>
<path d="M453.31 337.8H260.21C258.696 337.797 257.246 337.195 256.175 336.125C255.105 335.054 254.503 333.604 254.5 332.09V60.66C254.516 59.1551 255.124 57.7171 256.193 56.6576C257.262 55.5981 258.705 55.0025 260.21 55H453.31C454.812 55.0052 456.252 55.6022 457.317 56.6617C458.382 57.7212 458.987 59.1578 459 60.66V332.09C459 333.601 458.401 335.05 457.335 336.121C456.268 337.191 454.821 337.795 453.31 337.8ZM260.21 55.2C258.763 55.2026 257.375 55.7787 256.352 56.8021C255.329 57.8255 254.753 59.2127 254.75 60.66V332.09C254.753 333.537 255.329 334.924 256.352 335.948C257.375 336.971 258.763 337.547 260.21 337.55H453.31C454.757 337.547 456.145 336.971 457.168 335.948C458.191 334.924 458.767 333.537 458.77 332.09V60.66C458.767 59.2127 458.191 57.8255 457.168 56.8021C456.145 55.7787 454.757 55.2026 453.31 55.2H260.21Z" fill="#EBEBEB"/>
<path d="M441.41 81H283.44V382.4H441.41V81Z" fill="#EBEBEB"/>
<path d="M429.66 90.8301H295.19V382.4H429.66V90.8301Z" fill="#F5F5F5"/>
<path d="M381.34 115.01H343.53V125.46H381.34V115.01Z" fill="white"/>
<path d="M398.37 218.82H418.88C419.729 218.82 420.543 219.157 421.143 219.757C421.743 220.357 422.08 221.171 422.08 222.02C422.08 222.869 421.743 223.682 421.143 224.283C420.543 224.883 419.729 225.22 418.88 225.22H398.37C397.521 225.22 396.707 224.883 396.107 224.283C395.507 223.682 395.17 222.869 395.17 222.02C395.17 221.171 395.507 220.357 396.107 219.757C396.707 219.157 397.521 218.82 398.37 218.82Z" fill="white"/>
<path d="M175.44 113.07H70.3799V197.74H175.44V113.07Z" fill="#EBEBEB"/>
<path d="M169.79 192.1V118.71H76.01V192.1H169.79Z" fill="#FAFAFA"/>
<path d="M158.86 156.37V152.86H86.9503V156.37H158.86Z" fill="#E0E0E0"/>
<path d="M158.86 164.36V160.85H86.9504V164.36H158.86Z" fill="#E0E0E0"/>
<path d="M158.86 172.34V168.83H86.9504V172.34H158.86Z" fill="#E0E0E0"/>
<path d="M140.83 180.33V176.82H104.98V180.33H140.83Z" fill="#E0E0E0"/>
<path d="M87.0004 118.71C87.0004 120.151 86.7154 121.578 86.1617 122.909C85.6081 124.239 84.7967 125.447 83.7743 126.463C82.752 127.479 81.5388 128.283 80.2046 128.828C78.8704 129.373 77.4416 129.649 76.0004 129.64C74.0118 129.645 72.0604 129.101 70.3604 128.07V113.07H85.3604C86.4114 114.765 86.9785 116.715 87.0004 118.71Z" fill="#EBEBEB"/>
<path d="M175.44 113.07V128.07C173.349 129.327 170.898 129.849 168.477 129.553C166.055 129.256 163.802 128.157 162.077 126.432C160.352 124.707 159.254 122.455 158.957 120.033C158.66 117.612 159.182 115.16 160.44 113.07H175.44Z" fill="#EBEBEB"/>
<path d="M87.0004 192.11C87.0039 194.094 86.4644 196.041 85.4404 197.74H70.4404V182.74C72.0995 181.747 73.9923 181.211 75.9259 181.187C77.8595 181.163 79.7649 181.652 81.4479 182.605C83.1309 183.557 84.5315 184.938 85.5068 186.608C86.4822 188.278 86.9976 190.176 87.0004 192.11Z" fill="#EBEBEB"/>
<path d="M175.44 182.73V197.73H160.44C159.408 196.034 158.865 194.085 158.87 192.1C158.872 190.163 159.388 188.262 160.364 186.59C161.341 184.918 162.743 183.535 164.428 182.581C166.114 181.628 168.022 181.138 169.958 181.162C171.894 181.187 173.789 181.724 175.45 182.72L175.44 182.73Z" fill="#EBEBEB"/>
<path d="M132.099 138.083C132.923 133.008 129.476 128.226 124.401 127.402C119.325 126.578 114.543 130.024 113.719 135.1C112.895 140.175 116.342 144.957 121.417 145.781C126.493 146.605 131.275 143.159 132.099 138.083Z" fill="#E0E0E0"/>
<path d="M260.34 262.15H52.46V269.63H260.34V262.15Z" fill="#EBEBEB"/>
<path d="M258.54 269.63H191V382.4H258.54V269.63Z" fill="#F5F5F5"/>
<path d="M122.57 269.63H55.0303V382.4H122.57V269.63Z" fill="#F5F5F5"/>
<path d="M57.3403 269.63H55.0303V382.4H57.3403V269.63Z" fill="#EBEBEB"/>
<path d="M193.31 269.63H191V382.4H193.31V269.63Z" fill="#EBEBEB"/>
<path d="M90.5001 244.12H78.0801L79.0801 262.15H89.5001L90.5001 244.12Z" fill="#F0F0F0"/>
<path d="M198.33 254.33H133.44V262.15H198.33V254.33Z" fill="#F0F0F0"/>
<path d="M198.34 255.25H168.42V261.24H198.34V255.25Z" fill="#FAFAFA"/>
<path d="M250 427.56C357.083 427.56 443.89 422.492 443.89 416.24C443.89 409.988 357.083 404.92 250 404.92C142.918 404.92 56.1104 409.988 56.1104 416.24C56.1104 422.492 142.918 427.56 250 427.56Z" fill="#F5F5F5"/>
<path d="M340.71 346.22C358.207 346.22 372.39 332.036 372.39 314.54C372.39 297.044 358.207 282.86 340.71 282.86C323.214 282.86 309.03 297.044 309.03 314.54C309.03 332.036 323.214 346.22 340.71 346.22Z" fill="white"/>
<path d="M340.71 346.61C334.367 346.612 328.165 344.733 322.89 341.21C317.615 337.687 313.503 332.679 311.074 326.819C308.645 320.959 308.009 314.511 309.245 308.289C310.481 302.068 313.535 296.352 318.019 291.866C322.504 287.38 328.218 284.325 334.44 283.087C340.661 281.848 347.11 282.483 352.97 284.91C358.831 287.337 363.84 291.447 367.364 296.722C370.889 301.996 372.77 308.196 372.77 314.54C372.762 323.041 369.382 331.192 363.372 337.204C357.361 343.217 349.211 346.599 340.71 346.61ZM340.71 283.26C334.521 283.26 328.471 285.095 323.325 288.534C318.179 291.972 314.169 296.86 311.801 302.578C309.433 308.296 308.814 314.588 310.022 320.658C311.23 326.728 314.211 332.303 318.588 336.679C322.965 341.054 328.541 344.034 334.612 345.24C340.682 346.446 346.974 345.825 352.691 343.455C358.408 341.085 363.294 337.073 366.731 331.926C370.168 326.779 372.002 320.729 372 314.54C371.992 306.244 368.692 298.291 362.826 292.427C356.959 286.562 349.005 283.265 340.71 283.26Z" fill="#407BFF"/>
<path d="M345.81 296.58H335.61V332.5H345.81V296.58Z" fill="#407BFF"/>
<path d="M358.67 319.65V309.45H322.75V319.65H358.67Z" fill="#407BFF"/>
<path d="M126.111 75.0702L125.431 74.3402C130.06 69.9643 135.934 67.1339 142.241 66.2402L142.381 67.2402C136.277 68.101 130.591 70.8372 126.111 75.0702Z" fill="#407BFF"/>
<path d="M118.71 86L117.78 85.64C118.79 83.0925 120.135 80.6913 121.78 78.5L122.58 79.1C120.994 81.2206 119.693 83.5405 118.71 86Z" fill="#407BFF"/>
<path d="M146.61 124.31C161.765 124.31 174.05 112.025 174.05 96.8702C174.05 81.7155 161.765 69.4302 146.61 69.4302C131.455 69.4302 119.17 81.7155 119.17 96.8702C119.17 112.025 131.455 124.31 146.61 124.31Z" fill="#407BFF"/>
<path d="M163 84.51C161.943 83.4129 160.678 82.5375 159.279 81.935C157.88 81.3325 156.375 81.0149 154.852 81.001C153.328 80.987 151.818 81.2769 150.408 81.8536C148.998 82.4304 147.717 83.2825 146.64 84.36C145.564 83.2828 144.284 82.4309 142.875 81.8543C141.466 81.2776 139.956 80.9878 138.434 81.0018C136.911 81.0158 135.407 81.3332 134.009 81.9356C132.61 82.538 131.346 83.4132 130.29 84.51C128.221 86.7485 127.106 89.7057 127.182 92.7532C127.259 95.8008 128.521 98.6983 130.7 100.83L143.7 113.83C144.09 114.22 144.553 114.529 145.063 114.741C145.572 114.952 146.119 115.06 146.67 115.06C147.222 115.06 147.768 114.952 148.278 114.741C148.787 114.529 149.25 114.22 149.64 113.83L162.64 100.83C164.812 98.6917 166.065 95.7905 166.133 92.7431C166.2 89.6956 165.076 86.7421 163 84.51Z" fill="white"/>
<path d="M146.611 108.86C146.409 108.854 146.214 108.786 146.052 108.666C145.889 108.547 145.767 108.381 145.701 108.19L139.911 91.2604L137.491 98.3404C137.422 98.5372 137.293 98.7075 137.123 98.8276C136.953 98.9478 136.749 99.0117 136.541 99.0104H126.851C126.585 99.0104 126.331 98.9051 126.143 98.7175C125.956 98.53 125.851 98.2756 125.851 98.0104C125.851 97.7452 125.956 97.4908 126.143 97.3033C126.331 97.1158 126.585 97.0104 126.851 97.0104H135.851L138.991 87.8404C139.059 87.6439 139.186 87.4735 139.356 87.3529C139.525 87.2323 139.728 87.1675 139.936 87.1675C140.144 87.1675 140.346 87.2323 140.516 87.3529C140.685 87.4735 140.813 87.6439 140.881 87.8404L146.771 105.07L152.491 91.6004C152.563 91.4287 152.682 91.2806 152.834 91.1729C152.986 91.0651 153.165 91.0019 153.351 90.9904C153.538 90.9797 153.724 91.0218 153.889 91.112C154.053 91.2021 154.189 91.3367 154.281 91.5004L157.301 97.0004H166.411C166.676 97.0004 166.93 97.1058 167.118 97.2933C167.305 97.4808 167.411 97.7352 167.411 98.0004C167.411 98.2656 167.305 98.52 167.118 98.7075C166.93 98.8951 166.676 99.0004 166.411 99.0004H156.721C156.542 99.0019 156.366 98.9553 156.211 98.8656C156.056 98.7759 155.928 98.6464 155.841 98.4904L153.471 94.2504L147.531 108.25C147.454 108.431 147.326 108.585 147.162 108.694C146.999 108.802 146.807 108.86 146.611 108.86Z" fill="#407BFF"/>
<path d="M298.86 381.2H194.49C192.789 381.219 191.103 380.884 189.539 380.216C187.975 379.548 186.567 378.562 185.405 377.32C184.242 376.079 183.351 374.609 182.787 373.004C182.223 371.4 181.999 369.696 182.13 368L199 118C199.295 114.429 200.906 111.096 203.521 108.647C206.136 106.199 209.568 104.81 213.15 104.75H317.54C319.245 104.73 320.936 105.067 322.503 105.738C324.071 106.409 325.482 107.399 326.645 108.646C327.808 109.893 328.699 111.369 329.259 112.98C329.819 114.59 330.038 116.3 329.9 118L313 368C312.696 371.56 311.081 374.881 308.469 377.32C305.857 379.758 302.433 381.141 298.86 381.2Z" fill="#263238"/>
<path d="M322 206.56H319.37C318.893 206.566 318.421 206.472 317.983 206.285C317.546 206.097 317.152 205.821 316.827 205.472C316.502 205.124 316.254 204.712 316.097 204.262C315.941 203.812 315.881 203.335 315.92 202.86L319.15 155.07C319.225 154.07 319.672 153.136 320.404 152.45C321.135 151.765 322.097 151.38 323.1 151.37H325.73C326.206 151.364 326.678 151.458 327.116 151.645C327.554 151.832 327.948 152.109 328.273 152.457C328.597 152.806 328.846 153.218 329.002 153.668C329.158 154.118 329.219 154.595 329.18 155.07L325.95 202.86C325.875 203.859 325.427 204.794 324.695 205.479C323.964 206.165 323.002 206.55 322 206.56Z" fill="#263238"/>
<path d="M197.48 174.68H194.86C194.472 174.685 194.087 174.61 193.73 174.458C193.373 174.307 193.052 174.084 192.786 173.802C192.52 173.52 192.315 173.185 192.185 172.82C192.055 172.455 192.002 172.067 192.03 171.68L193.2 154.42C193.273 153.61 193.644 152.855 194.24 152.302C194.836 151.748 195.616 151.434 196.43 151.42H199.06C199.446 151.418 199.829 151.495 200.184 151.648C200.539 151.8 200.859 152.024 201.124 152.305C201.388 152.587 201.592 152.92 201.722 153.284C201.852 153.648 201.906 154.034 201.88 154.42L200.71 171.68C200.638 172.491 200.268 173.247 199.671 173.801C199.075 174.355 198.294 174.668 197.48 174.68Z" fill="#407BFF"/>
<path d="M195.401 205.5H192.771C192.384 205.504 192 205.427 191.644 205.275C191.289 205.123 190.968 204.9 190.703 204.618C190.438 204.336 190.235 204.002 190.105 203.638C189.975 203.273 189.923 202.886 189.951 202.5L191.121 185.24C191.194 184.43 191.565 183.675 192.161 183.121C192.757 182.568 193.537 182.254 194.351 182.24H197.001C197.387 182.238 197.77 182.315 198.125 182.467C198.48 182.62 198.8 182.844 199.064 183.125C199.329 183.407 199.533 183.74 199.663 184.104C199.793 184.467 199.847 184.854 199.821 185.24L198.651 202.5C198.578 203.314 198.206 204.073 197.605 204.627C197.004 205.182 196.218 205.493 195.401 205.5Z" fill="#407BFF"/>
<path d="M296.65 381.2H192.28C190.579 381.219 188.893 380.884 187.329 380.216C185.765 379.548 184.357 378.562 183.195 377.32C182.032 376.079 181.141 374.609 180.577 373.004C180.013 371.4 179.789 369.696 179.92 368L196.8 118C197.105 114.428 198.728 111.098 201.352 108.656C203.977 106.215 207.416 104.836 211 104.79H315.33C317.031 104.771 318.718 105.106 320.283 105.775C321.848 106.443 323.257 107.43 324.419 108.673C325.582 109.915 326.473 111.386 327.036 112.992C327.599 114.598 327.822 116.303 327.69 118L310.8 368C310.496 371.562 308.88 374.884 306.266 377.323C303.651 379.762 300.225 381.143 296.65 381.2Z" fill="#407BFF"/>
<path opacity="0.3" d="M181.021 365.2L197.501 121.24H326.561L310.08 365.2H181.021Z" fill="white"/>
<path opacity="0.1" d="M231.97 365.2L278.03 121.24H306.94L260.88 365.2H231.97Z" fill="white"/>
<path opacity="0.1" d="M210.13 365.2L256.19 121.24H270.84L224.78 365.2H210.13Z" fill="white"/>
<path d="M250.14 110.92H275.31C275.52 110.917 275.729 110.957 275.922 111.039C276.116 111.121 276.29 111.243 276.433 111.397C276.576 111.551 276.686 111.733 276.754 111.931C276.822 112.13 276.848 112.341 276.83 112.55C276.795 112.991 276.598 113.403 276.277 113.706C275.955 114.009 275.532 114.182 275.09 114.19H249.92C249.71 114.192 249.501 114.15 249.307 114.067C249.114 113.984 248.94 113.861 248.797 113.707C248.654 113.552 248.545 113.37 248.476 113.17C248.408 112.971 248.382 112.76 248.4 112.55C248.435 112.111 248.633 111.7 248.955 111.398C249.276 111.097 249.699 110.926 250.14 110.92Z" fill="white"/>
<path d="M244.9 405.25L236.08 406.09L232.9 385.74L241.72 384.89L244.9 405.25Z" fill="#FFB573"/>
<path d="M235.07 401.78L244.31 398.91C244.47 398.855 244.644 398.863 244.797 398.934C244.95 399.005 245.07 399.133 245.13 399.29L248.13 406.62C248.205 406.817 248.238 407.026 248.227 407.236C248.217 407.446 248.163 407.651 248.069 407.839C247.975 408.027 247.843 408.194 247.681 408.328C247.52 408.462 247.332 408.562 247.13 408.62C243.79 409.62 240.61 409.85 236.58 411.62C231.87 413.62 229.9 416.3 224.83 416.3C221.2 416.3 220.38 412.97 221.92 412.51C228.92 410.39 228 408.65 233.08 403.18C233.609 402.546 234.295 402.063 235.07 401.78Z" fill="#263238"/>
<path opacity="0.2" d="M232.9 385.74L234.54 396.24L243.37 395.39L241.73 384.89L232.9 385.74Z" fill="black"/>
<path d="M239.28 128.6C227.71 127.24 216.2 128.15 204.65 130.39C202.725 130.764 200.969 131.74 199.637 133.179C198.305 134.617 197.465 136.442 197.24 138.39C195.99 149.45 194.56 174.24 200.14 211.22L247.42 207.22C247.51 200.51 242.74 169.94 246.68 138.22C246.841 137.1 246.776 135.96 246.49 134.865C246.203 133.771 245.7 132.745 245.01 131.848C244.32 130.952 243.458 130.202 242.473 129.644C241.489 129.086 240.403 128.731 239.28 128.6Z" fill="white"/>
<path d="M211.75 138.08L213.44 141.46C213.519 141.631 213.644 141.776 213.802 141.878C213.959 141.981 214.142 142.037 214.33 142.04L216.16 142.14C216.487 142.154 216.808 142.055 217.07 141.86L220.22 139.51L216.33 136.68L211.75 138.08Z" fill="#263238"/>
<path d="M216.22 141.17C215.553 140.861 214.797 140.801 214.09 141C212.6 146.25 210.97 161.32 210.8 168C215.32 181.17 216.8 182.5 216.8 182.5L219.09 166.65C219.09 166.65 216.52 150.44 216.22 141.17Z" fill="#263238"/>
<path d="M229.27 105.8C228.19 112.32 227.27 124.23 231.95 128.44C228.52 132.04 224.03 136.21 216.33 136.68C208.63 137.15 209.82 131.82 211.77 128.97C218.96 127.05 218.61 121.69 217.2 116.68L229.27 105.8Z" fill="#FFB573"/>
<path d="M233.91 127.87C233.365 127.635 232.799 127.451 232.22 127.32C232.078 127.283 231.928 127.293 231.793 127.349C231.657 127.405 231.544 127.504 231.47 127.63C230.73 128.89 228.47 134.52 216.33 136.68C218.33 137.86 220.98 141.52 222.12 143.28C225.76 141.39 235.23 135.74 234.33 128.43C234.312 128.309 234.264 128.195 234.19 128.097C234.117 128 234.021 127.922 233.91 127.87Z" fill="#F5F5F5"/>
<path d="M211.84 129.27C211.865 129.156 211.862 129.038 211.83 128.926C211.799 128.813 211.739 128.711 211.658 128.628C211.576 128.544 211.475 128.482 211.364 128.448C211.252 128.413 211.134 128.407 211.02 128.43C210.599 128.512 210.185 128.622 209.78 128.76C209.686 128.797 209.598 128.847 209.52 128.91C208.59 129.77 203.52 137.09 208.27 143.01C209.27 141.4 212.72 137.75 216.33 136.68C212.91 135.14 211.23 132.27 211.84 129.27Z" fill="#F5F5F5"/>
<path opacity="0.2" d="M224.35 110.24L217.21 116.68C217.554 117.843 217.795 119.035 217.93 120.24C220.69 119.77 224.4 116.64 224.6 113.74C224.735 112.568 224.65 111.381 224.35 110.24Z" fill="black"/>
<path d="M214.81 86.0901C208.65 88.5001 208.25 93.5601 208.81 99.0901C209.37 104.62 215.39 100.96 216.73 97.5002C218.07 94.0402 223.34 82.7501 214.81 86.0901Z" fill="#263238"/>
<path d="M234.46 97.1202C232.75 105.83 232.18 111 227.2 115.01C219.69 121.01 209.52 115.83 208.62 106.85C207.81 98.7602 210.74 85.8502 219.71 83.3302C221.666 82.7542 223.739 82.6987 225.723 83.169C227.707 83.6393 229.535 84.6192 231.024 86.0118C232.514 87.4045 233.614 89.1617 234.217 91.1099C234.819 93.058 234.903 95.1297 234.46 97.1202Z" fill="#FFB573"/>
<path d="M234.1 104.33C226.77 104.72 228.32 100.56 229.65 98.17C230.98 95.78 228.27 91.83 230.04 89.78C226.88 91.04 223.55 90 219.32 87.06C216.04 84.77 211.93 93.92 207.93 89.33C204.15 85 207.66 78.47 216.74 77.42C225.82 76.37 227.47 82.79 233.43 82.22C239.39 81.65 237.32 86.56 236.15 87.56C241.15 87.89 243.88 92.67 234.1 104.33Z" fill="#263238"/>
<path d="M235 88.1698C236.147 87.5408 237.105 86.6167 237.775 85.4933C238.444 84.3698 238.802 83.0878 238.81 81.7798C240.79 85.2498 240.58 89.1898 235 88.1698Z" fill="#263238"/>
<path d="M216 106.42C216.797 106.558 217.614 106.533 218.401 106.348C219.188 106.162 219.929 105.819 220.58 105.34C220.6 105.321 220.616 105.299 220.626 105.274C220.637 105.249 220.643 105.222 220.643 105.195C220.643 105.168 220.637 105.141 220.626 105.116C220.616 105.091 220.6 105.068 220.58 105.05C220.541 105.013 220.489 104.992 220.435 104.992C220.381 104.992 220.329 105.013 220.29 105.05C219.561 105.567 218.722 105.907 217.838 106.044C216.955 106.181 216.052 106.111 215.2 105.84C215.146 105.826 215.089 105.833 215.039 105.859C214.989 105.885 214.951 105.928 214.93 105.98C214.915 106.033 214.921 106.09 214.947 106.139C214.973 106.187 215.018 106.224 215.07 106.24C215.374 106.327 215.686 106.388 216 106.42Z" fill="#263238"/>
<path d="M236.23 107C234.861 108.765 232.853 109.921 230.64 110.22C227.73 110.6 226.76 107.89 227.98 105.36C229.09 103.08 231.98 100.14 234.66 100.93C237.34 101.72 237.91 104.8 236.23 107Z" fill="#FFB573"/>
<path d="M233.34 296.37C233.69 270.26 237.03 208.07 237.03 208.07L200.17 211.18C200.17 211.18 207.5 275.27 211.92 301.91C216.52 329.6 230.63 394.47 230.63 394.47L245.63 393.19C245.63 393.19 240.15 316.56 233.34 296.37Z" fill="#263238"/>
<path d="M229.73 394.88L247.52 393.37L246.82 387.63L228.28 388.87L229.73 394.88Z" fill="#407BFF"/>
<path d="M221.32 97.6398C221.23 98.3498 220.77 98.8898 220.32 98.8398C219.87 98.7898 219.56 98.1698 219.66 97.4498C219.76 96.7298 220.21 96.1998 220.66 96.2498C221.11 96.2998 221.42 96.9298 221.32 97.6398Z" fill="#263238"/>
<path d="M213.16 96.9999C213.07 97.7199 212.61 98.2499 212.16 98.1999C211.71 98.1499 211.4 97.5299 211.5 96.8199C211.6 96.1099 212.05 95.5699 212.5 95.6199C212.95 95.6699 213.26 96.2499 213.16 96.9999Z" fill="#263238"/>
<path d="M215.46 97.8398C214.256 99.6904 212.81 101.372 211.16 102.84C212.22 103.95 214.41 103.65 214.41 103.65L215.46 97.8398Z" fill="#ED893E"/>
<path opacity="0.4" d="M208 97.1802C207.85 98.3202 209 99.2702 210.59 99.4702C212.18 99.6702 213.65 98.8002 213.79 97.6602" fill="#407BFF"/>
<path opacity="0.4" d="M217.45 98.2402C217.23 99.3702 218.34 100.39 219.9 100.69C221.46 100.99 222.99 100.19 223.2 99.0702" fill="#407BFF"/>
<path d="M220.52 101C220.34 101.01 220.16 101.01 219.98 101C219.211 100.908 218.489 100.584 217.91 100.07C217.657 99.854 217.46 99.5806 217.335 99.2726C217.209 98.9647 217.16 98.6312 217.19 98.3001C216.682 98.0791 216.142 97.9439 215.59 97.9001C215.035 97.7616 214.455 97.7616 213.9 97.9001C213.76 99.1201 212.24 99.9601 210.54 99.7501C209.771 99.666 209.048 99.3445 208.47 98.8301C208.219 98.613 208.022 98.3394 207.897 98.0317C207.772 97.724 207.721 97.391 207.75 97.0601L208.23 97.1201C208.21 97.3758 208.251 97.6326 208.35 97.8692C208.449 98.1057 208.603 98.3152 208.8 98.4801C209.304 98.9234 209.933 99.1995 210.6 99.2701C212.04 99.4601 213.32 98.7901 213.45 97.7901C213.52 97.2301 214.68 97.2701 215.64 97.3901C216.6 97.5101 217.74 97.7801 217.64 98.3301C217.619 98.5858 217.66 98.8429 217.759 99.0796C217.858 99.3163 218.013 99.5257 218.21 99.6901C218.72 100.128 219.347 100.406 220.013 100.491C220.68 100.577 221.356 100.465 221.96 100.17C222.193 100.062 222.396 99.8987 222.553 99.6951C222.71 99.4914 222.815 99.253 222.86 99.0001V98.7601L235.2 100.35L235.14 100.83L223.26 99.3001C223.174 99.5784 223.032 99.8363 222.842 100.058C222.653 100.28 222.421 100.461 222.16 100.59C221.655 100.858 221.092 100.998 220.52 101Z" fill="#263238"/>
<path d="M224.46 94.4998C224.531 94.5 224.601 94.4791 224.66 94.4398C224.757 94.3832 224.828 94.2909 224.858 94.1824C224.888 94.074 224.875 93.9582 224.82 93.8598C224.51 93.2782 224.061 92.7821 223.514 92.4158C222.966 92.0494 222.336 91.8241 221.68 91.7598C221.568 91.7543 221.457 91.7931 221.373 91.8679C221.289 91.9427 221.238 92.0475 221.23 92.1598C221.225 92.2696 221.262 92.3772 221.335 92.4594C221.408 92.5417 221.51 92.5921 221.62 92.5998C222.139 92.6607 222.635 92.8474 223.066 93.1437C223.496 93.4399 223.848 93.8368 224.09 94.2998C224.128 94.3634 224.182 94.4156 224.247 94.4508C224.313 94.4861 224.386 94.503 224.46 94.4998Z" fill="#263238"/>
<path d="M210.52 93.37C210.59 93.3768 210.66 93.3667 210.724 93.3406C210.788 93.3145 210.846 93.2731 210.89 93.22C211.214 92.7966 211.632 92.4548 212.111 92.2221C212.591 91.9894 213.118 91.8722 213.65 91.88C213.706 91.8856 213.761 91.8801 213.815 91.8639C213.868 91.8478 213.917 91.8213 213.96 91.7859C214.002 91.7506 214.038 91.7071 214.064 91.6581C214.09 91.609 214.105 91.5553 214.11 91.5C214.117 91.4461 214.114 91.3914 214.099 91.339C214.085 91.2865 214.06 91.2375 214.027 91.1947C213.993 91.1519 213.952 91.1162 213.904 91.0896C213.857 91.0631 213.804 91.0462 213.75 91.04C213.079 91.0225 212.412 91.1626 211.804 91.4491C211.197 91.7357 210.664 92.1607 210.25 92.69C210.179 92.7751 210.144 92.8848 210.154 92.9954C210.163 93.1059 210.216 93.2082 210.3 93.28C210.366 93.327 210.441 93.3578 210.52 93.37Z" fill="#263238"/>
<path d="M264.05 292.16C256.4 252.84 254.68 222.09 247.42 207.16L211.71 211.16C211.71 211.16 232.98 269.75 243.37 294.76C254.16 320.76 275.46 365.18 275.46 365.18H293.3C293.3 365.18 276.65 310.07 264.05 292.16Z" fill="#263238"/>
<path d="M150.86 143.31L147 140.87C146.374 140.466 145.626 140.293 144.886 140.378C144.146 140.464 143.458 140.804 142.94 141.34L140.32 144.1C140.038 144.398 139.82 144.75 139.679 145.136C139.539 145.522 139.479 145.932 139.503 146.341C139.528 146.751 139.636 147.151 139.821 147.517C140.006 147.883 140.265 148.208 140.58 148.47L142.45 150.07C144.077 151.448 145.974 152.47 148.02 153.07L153.67 154.74L157.38 150.74C158.51 146.57 150.86 143.31 150.86 143.31Z" fill="#FFB573"/>
<path d="M208.001 141.44C206.601 144.86 205.231 148.04 203.741 151.29C202.251 154.54 200.741 157.75 199.071 160.94C197.401 164.13 195.621 167.3 193.601 170.48C192.601 172.06 191.49 173.64 190.23 175.23C188.876 176.983 187.333 178.583 185.631 180C184.506 180.919 183.265 181.686 181.941 182.28C181.521 182.44 181.131 182.6 180.671 182.74L179.971 182.93C179.618 183.016 179.261 183.08 178.9 183.12C177.681 183.257 176.448 183.169 175.26 182.86C173.776 182.444 172.366 181.8 171.081 180.95C170.118 180.349 169.199 179.681 168.331 178.95C165.445 176.43 162.784 173.663 160.381 170.68C158.051 167.88 155.851 165.07 153.741 162.2C151.631 159.33 149.601 156.51 147.521 153.5L158.581 146.36C162.071 151.994 165.933 157.389 170.141 162.51C172.075 164.882 174.206 167.086 176.51 169.1C176.957 169.465 177.428 169.799 177.921 170.1C178.291 170.35 178.66 170.45 178.4 170.36C178.049 170.263 177.681 170.243 177.321 170.3C177.175 170.313 177.031 170.34 176.891 170.38H176.811C176.761 170.38 176.761 170.38 176.751 170.38C176.978 170.231 177.195 170.068 177.4 169.89C178.313 169.061 179.141 168.143 179.87 167.15C180.72 166.01 181.571 164.73 182.381 163.4C184.036 160.635 185.545 157.784 186.9 154.86C188.3 151.86 189.65 148.86 190.9 145.74C192.15 142.62 193.341 139.45 194.351 136.42L208.001 141.44Z" fill="#407BFF"/>
<g opacity="0.6">
<path opacity="0.6" d="M208.001 141.44C206.601 144.86 205.231 148.04 203.741 151.29C202.251 154.54 200.741 157.75 199.071 160.94C197.401 164.13 195.621 167.3 193.601 170.48C192.601 172.06 191.49 173.64 190.23 175.23C188.876 176.983 187.333 178.583 185.631 180C184.506 180.919 183.265 181.686 181.941 182.28C181.521 182.44 181.131 182.6 180.671 182.74L179.971 182.93C179.618 183.016 179.261 183.08 178.9 183.12C177.681 183.257 176.448 183.169 175.26 182.86C173.776 182.444 172.366 181.8 171.081 180.95C170.118 180.349 169.199 179.681 168.331 178.95C165.445 176.43 162.784 173.663 160.381 170.68C158.051 167.88 155.851 165.07 153.741 162.2C151.631 159.33 149.601 156.51 147.521 153.5L158.581 146.36C162.071 151.994 165.933 157.389 170.141 162.51C172.075 164.882 174.206 167.086 176.51 169.1C176.957 169.465 177.428 169.799 177.921 170.1C178.291 170.35 178.66 170.45 178.4 170.36C178.049 170.263 177.681 170.243 177.321 170.3C177.175 170.313 177.031 170.34 176.891 170.38H176.811C176.761 170.38 176.761 170.38 176.751 170.38C176.978 170.231 177.195 170.068 177.4 169.89C178.313 169.061 179.141 168.143 179.87 167.15C180.72 166.01 181.571 164.73 182.381 163.4C184.036 160.635 185.545 157.784 186.9 154.86C188.3 151.86 189.65 148.86 190.9 145.74C192.15 142.62 193.341 139.45 194.351 136.42L208.001 141.44Z" fill="white"/>
</g>
<path d="M234.18 126.09C230.43 133.09 217.08 159.76 215.46 176.22C209.55 161.22 210.84 128.04 210.84 128.04C206.628 128.451 202.496 129.461 198.57 131.04C197.305 131.56 196.208 132.42 195.401 133.525C194.595 134.63 194.11 135.937 194 137.3C192.849 154.468 193.392 171.708 195.62 188.77C199.77 221.07 203.62 271.3 203.62 271.3C203.62 271.3 236.67 269.92 262.17 264.54C259.06 239.85 248.42 198.47 248.32 187.39C248.2 173.13 248.53 145.25 248.98 133.61C249.056 131.967 248.541 130.351 247.528 129.054C246.516 127.757 245.073 126.866 243.46 126.54C240.401 125.973 237.28 125.822 234.18 126.09Z" fill="#407BFF"/>
<path opacity="0.7" d="M234.18 126.09C230.43 133.09 217.08 159.76 215.46 176.22C209.55 161.22 210.84 128.04 210.84 128.04C206.628 128.451 202.496 129.461 198.57 131.04C197.305 131.56 196.208 132.42 195.401 133.525C194.595 134.63 194.11 135.936 194 137.3C192.849 154.468 193.392 171.708 195.62 188.77C199.77 221.07 203.62 271.3 203.62 271.3C203.62 271.3 236.67 269.92 262.17 264.54C259.06 239.85 248.42 198.47 248.32 187.39C248.2 173.13 248.53 145.24 248.98 133.6C249.075 132.007 248.604 130.431 247.651 129.151C246.698 127.87 245.324 126.967 243.77 126.6C240.613 125.981 237.385 125.81 234.18 126.09Z" fill="white"/>
<path d="M226.39 265.94C220.65 234.27 216.1 187.8 215.73 182.21H216.24C216.61 187.8 221.17 234.21 226.9 265.88L226.39 265.94Z" fill="white"/>
<path d="M223.53 209.6H193.05C192.434 209.572 191.845 209.346 191.369 208.955C190.893 208.563 190.556 208.028 190.41 207.43L180.22 160.06C180.145 159.801 180.133 159.529 180.184 159.265C180.236 159 180.349 158.752 180.515 158.54C180.681 158.328 180.895 158.159 181.139 158.046C181.383 157.933 181.651 157.879 181.92 157.89H212.39C213.007 157.916 213.599 158.141 214.077 158.532C214.555 158.924 214.893 159.46 215.04 160.06L225.23 207.43C225.305 207.689 225.317 207.961 225.265 208.225C225.214 208.49 225.101 208.738 224.935 208.95C224.769 209.162 224.555 209.331 224.311 209.444C224.066 209.557 223.799 209.611 223.53 209.6Z" fill="white"/>
<path d="M222.58 210H191.58C190.953 209.971 190.353 209.74 189.868 209.342C189.383 208.943 189.04 208.399 188.89 207.79L178.52 159.62C178.446 159.356 178.435 159.078 178.489 158.809C178.542 158.54 178.658 158.288 178.828 158.072C178.998 157.857 179.216 157.685 179.465 157.569C179.714 157.454 179.986 157.4 180.26 157.41H211.26C211.887 157.439 212.487 157.67 212.972 158.068C213.457 158.467 213.8 159.011 213.95 159.62L224.31 207.79C224.386 208.053 224.399 208.331 224.347 208.6C224.295 208.869 224.18 209.122 224.011 209.338C223.842 209.553 223.624 209.726 223.375 209.841C223.126 209.956 222.854 210.011 222.58 210Z" fill="#407BFF"/>
<path d="M226.13 182.82L218.42 182.53C217.493 182.498 216.569 182.661 215.71 183.01L211.71 184.61C211.334 184.758 210.993 184.981 210.706 185.265C210.419 185.549 210.192 185.887 210.039 186.261C209.886 186.634 209.809 187.035 209.815 187.438C209.82 187.842 209.907 188.24 210.07 188.61L211.67 192.07C211.993 192.741 212.537 193.28 213.211 193.597C213.884 193.914 214.647 193.989 215.37 193.81L219.78 192.71C219.78 192.71 228.06 192.05 228.36 187.71L226.13 182.82Z" fill="#FFB573"/>
<path d="M247.42 130.38C249.33 133.38 251.08 136.12 252.8 139.06C254.52 142 256.21 144.91 257.8 147.95C259.39 150.99 260.9 154.13 262.27 157.49C262.982 159.249 263.59 161.049 264.09 162.88C264.735 165.111 265.032 167.428 264.97 169.75V170.14C264.974 170.206 264.974 170.273 264.97 170.34C264.97 170.7 264.87 171.06 264.8 171.42C264.73 171.78 264.64 172.06 264.54 172.42C264.44 172.78 264.33 172.97 264.22 173.25C263.838 174.115 263.348 174.928 262.76 175.67C261.943 176.691 261.014 177.617 259.99 178.43C258.418 179.669 256.745 180.776 254.99 181.74C251.903 183.428 248.725 184.943 245.47 186.28C242.32 187.62 239.18 188.84 236.02 189.99C232.86 191.14 229.75 192.25 226.46 193.35L222.65 180.75C225.65 179.93 228.71 178.92 231.7 177.9C234.69 176.88 237.7 175.74 240.54 174.55C243.327 173.398 246.045 172.086 248.68 170.62C249.792 170.003 250.853 169.298 251.85 168.51C252.113 168.311 252.348 168.079 252.55 167.82C252.464 167.917 252.397 168.029 252.35 168.15C252.35 168.24 252.3 168.3 252.25 168.41C252.211 168.527 252.181 168.648 252.16 168.77C252.118 168.924 252.092 169.081 252.08 169.24C252.08 169.3 252.08 169.31 252.08 169.29V169.22C252.011 168.271 251.826 167.334 251.53 166.43C251.13 165.121 250.656 163.835 250.11 162.58C248.888 159.812 247.506 157.117 245.97 154.51C244.41 151.83 242.75 149.15 240.97 146.51C239.19 143.87 237.37 141.24 235.54 138.84L247.42 130.38Z" fill="#407BFF"/>
<g opacity="0.7">
<path opacity="0.7" d="M247.42 130.38C249.33 133.38 251.08 136.12 252.8 139.06C254.52 142 256.21 144.91 257.8 147.95C259.39 150.99 260.9 154.13 262.27 157.49C262.982 159.249 263.59 161.049 264.09 162.88C264.735 165.111 265.032 167.428 264.97 169.75V170.14C264.974 170.206 264.974 170.273 264.97 170.34C264.97 170.7 264.87 171.06 264.8 171.42C264.73 171.78 264.64 172.06 264.54 172.42C264.44 172.78 264.33 172.97 264.22 173.25C263.838 174.115 263.348 174.928 262.76 175.67C261.943 176.691 261.014 177.617 259.99 178.43C258.418 179.669 256.745 180.776 254.99 181.74C251.903 183.428 248.725 184.943 245.47 186.28C242.32 187.62 239.18 188.84 236.02 189.99C232.86 191.14 229.75 192.25 226.46 193.35L222.65 180.75C225.65 179.93 228.71 178.92 231.7 177.9C234.69 176.88 237.7 175.74 240.54 174.55C243.327 173.398 246.045 172.086 248.68 170.62C249.792 170.003 250.853 169.298 251.85 168.51C252.113 168.311 252.348 168.079 252.55 167.82C252.464 167.917 252.397 168.029 252.35 168.15C252.35 168.24 252.3 168.3 252.25 168.41C252.211 168.527 252.181 168.648 252.16 168.77C252.118 168.924 252.092 169.081 252.08 169.24C252.08 169.3 252.08 169.31 252.08 169.29V169.22C252.011 168.271 251.826 167.334 251.53 166.43C251.13 165.121 250.656 163.835 250.11 162.58C248.888 159.812 247.506 157.117 245.97 154.51C244.41 151.83 242.75 149.15 240.97 146.51C239.19 143.87 237.37 141.24 235.54 138.84L247.42 130.38Z" fill="white"/>
</g>
<path d="M237.301 165.08C237.234 165.079 237.169 165.061 237.111 165.028C237.053 164.995 237.005 164.947 236.971 164.89C236.941 164.846 236.921 164.797 236.911 164.746C236.901 164.694 236.902 164.641 236.913 164.59C236.924 164.538 236.946 164.49 236.976 164.447C237.007 164.404 237.046 164.368 237.091 164.34L238.651 163.34C240.107 162.422 241.25 161.083 241.928 159.501C242.607 157.919 242.789 156.168 242.451 154.48L239.311 138.58C239.081 137.391 238.457 136.315 237.539 135.525C236.621 134.734 235.464 134.277 234.254 134.226C233.045 134.175 231.853 134.534 230.872 135.244C229.892 135.954 229.179 136.975 228.851 138.14L224.401 153.73C223.915 155.378 223.941 157.135 224.477 158.767C225.013 160.4 226.032 161.831 227.401 162.87L228.881 163.99C228.964 164.055 229.018 164.151 229.031 164.256C229.044 164.361 229.015 164.466 228.951 164.55C228.919 164.591 228.88 164.625 228.835 164.651C228.791 164.677 228.741 164.693 228.69 164.7C228.639 164.706 228.587 164.703 228.537 164.689C228.488 164.675 228.441 164.652 228.401 164.62L227.001 163.51C225.497 162.378 224.373 160.815 223.778 159.029C223.183 157.243 223.146 155.318 223.671 153.51L228.131 137.92C228.513 136.589 229.332 135.425 230.456 134.615C231.58 133.805 232.943 133.396 234.327 133.454C235.711 133.511 237.036 134.032 238.088 134.933C239.14 135.834 239.86 137.062 240.131 138.42L243.271 154.33C243.641 156.174 243.443 158.087 242.702 159.816C241.961 161.545 240.712 163.007 239.121 164.01L237.551 165.01C237.516 165.038 237.476 165.059 237.433 165.071C237.39 165.083 237.345 165.086 237.301 165.08Z" fill="#263238"/>
<path d="M239.7 138.91L228.47 138.44C228.418 138.438 228.366 138.425 228.319 138.402C228.271 138.38 228.229 138.348 228.193 138.309C228.158 138.27 228.131 138.224 228.113 138.175C228.095 138.125 228.088 138.073 228.09 138.02C228.1 137.916 228.149 137.819 228.227 137.749C228.304 137.678 228.406 137.64 228.51 137.64L239.73 138.11C239.783 138.113 239.834 138.126 239.882 138.148C239.93 138.171 239.972 138.202 240.008 138.241C240.043 138.28 240.07 138.326 240.088 138.375C240.105 138.425 240.113 138.478 240.11 138.53C240.109 138.582 240.097 138.634 240.076 138.681C240.055 138.729 240.024 138.771 239.986 138.807C239.947 138.842 239.902 138.87 239.853 138.887C239.804 138.905 239.752 138.913 239.7 138.91Z" fill="#263238"/>
<path d="M234.24 134.25C234.136 134.247 234.037 134.206 233.963 134.133C233.889 134.061 233.845 133.963 233.84 133.86C233.84 131.86 233.22 128.39 231.35 127.63C231.298 127.612 231.25 127.585 231.21 127.548C231.169 127.512 231.137 127.467 231.114 127.418C231.091 127.368 231.079 127.314 231.077 127.26C231.076 127.205 231.086 127.151 231.106 127.1C231.127 127.05 231.158 127.004 231.197 126.966C231.235 126.927 231.282 126.897 231.333 126.878C231.384 126.858 231.438 126.849 231.493 126.851C231.547 126.853 231.601 126.866 231.65 126.89C234.42 128.03 234.65 133.25 234.65 133.89C234.65 133.995 234.61 134.097 234.537 134.173C234.464 134.249 234.365 134.295 234.26 134.3L234.24 134.25Z" fill="#263238"/>
<path d="M199.89 147.84H199.81C199.707 147.818 199.616 147.757 199.558 147.669C199.5 147.581 199.479 147.473 199.5 147.37C200.82 140.8 206.28 130.43 211.09 127.37C211.134 127.343 211.183 127.324 211.234 127.316C211.285 127.308 211.337 127.31 211.387 127.322C211.437 127.334 211.485 127.356 211.526 127.386C211.568 127.417 211.603 127.456 211.63 127.5C211.659 127.543 211.679 127.591 211.689 127.642C211.699 127.693 211.698 127.745 211.687 127.796C211.675 127.846 211.654 127.894 211.623 127.936C211.593 127.978 211.554 128.013 211.51 128.04C206.86 130.98 201.56 141.04 200.28 147.51C200.264 147.602 200.216 147.685 200.145 147.745C200.073 147.805 199.983 147.839 199.89 147.84Z" fill="#263238"/>
<path d="M203.17 148.87C202.55 150.46 201.17 151.42 200.17 151.01C199.17 150.6 198.78 149.01 199.4 147.38C200.02 145.75 201.4 144.83 202.4 145.25C203.4 145.67 203.8 147.28 203.17 148.87Z" fill="white"/>
<path d="M229.57 164.36C229.57 165.1 229.11 165.69 228.62 165.67C228.13 165.65 227.75 165.03 227.78 164.28C227.81 163.53 228.24 162.94 228.73 162.97C229.22 163 229.6 163.61 229.57 164.36Z" fill="white"/>
<path d="M238.19 164.72C238.19 165.46 237.74 166.05 237.24 166.03C236.74 166.01 236.38 165.39 236.41 164.64C236.44 163.89 236.86 163.31 237.41 163.33C237.96 163.35 238.22 164 238.19 164.72Z" fill="white"/>
<path d="M407.77 150.85L406.77 150.79C406.937 148.661 406.659 146.52 405.954 144.504C405.249 142.489 404.133 140.641 402.677 139.079C401.221 137.518 399.455 136.276 397.493 135.432C395.532 134.589 393.416 134.162 391.28 134.18V133.18C393.553 133.16 395.804 133.614 397.892 134.511C399.98 135.407 401.859 136.729 403.41 138.39C404.96 140.051 406.148 142.017 406.899 144.162C407.65 146.307 407.946 148.584 407.77 150.85Z" fill="#407BFF"/>
<path d="M408.297 155.043L407.718 163.323L408.718 163.393L409.297 155.113L408.297 155.043Z" fill="#407BFF"/>
<path d="M391.28 136.68H322.28C318.512 136.742 314.901 138.203 312.151 140.78C309.401 143.356 307.707 146.864 307.4 150.62L306.77 159.91C306.627 161.697 306.857 163.495 307.447 165.189C308.038 166.882 308.974 168.434 310.197 169.745C311.42 171.057 312.903 172.099 314.551 172.806C316.199 173.513 317.977 173.868 319.77 173.85H388.77L402.15 182.1L404.27 150.62C404.414 148.833 404.185 147.035 403.596 145.342C403.007 143.648 402.072 142.096 400.849 140.785C399.627 139.473 398.145 138.431 396.497 137.724C394.849 137.017 393.073 136.662 391.28 136.68Z" fill="#407BFF"/>
<path d="M387.78 149.99H323.87V152.31H387.78V149.99Z" fill="white"/>
<path d="M387.22 158.22H339.77V160.54H387.22V158.22Z" fill="white"/>
<path d="M287.48 186.38H358C359.833 186.36 361.651 186.722 363.336 187.444C365.022 188.166 366.538 189.232 367.789 190.573C369.039 191.914 369.996 193.501 370.599 195.232C371.202 196.964 371.437 198.802 371.29 200.63L370.65 210.13C370.333 213.968 368.601 217.552 365.79 220.185C362.98 222.818 359.291 224.313 355.44 224.38H284.91L270.09 232.83L272.27 200.63C272.585 196.79 274.316 193.205 277.127 190.572C279.938 187.938 283.628 186.444 287.48 186.38Z" fill="white"/>
<path opacity="0.15" d="M287.48 186.38H358C359.833 186.36 361.651 186.722 363.336 187.444C365.022 188.166 366.538 189.232 367.789 190.573C369.039 191.914 369.996 193.501 370.599 195.232C371.202 196.964 371.437 198.802 371.29 200.63L370.65 210.13C370.333 213.968 368.601 217.552 365.79 220.185C362.98 222.818 359.291 224.313 355.44 224.38H284.91L270.09 232.83L272.27 200.63C272.585 196.79 274.316 193.205 277.127 190.572C279.938 187.938 283.628 186.444 287.48 186.38Z" fill="#407BFF"/>
<path opacity="0.5" d="M354.42 199.99H289.06V202.37H354.42V199.99Z" fill="#407BFF"/>
<path opacity="0.5" d="M314.32 208.4H288.49V210.78H314.32V208.4Z" fill="#407BFF"/>
<path opacity="0.5" d="M337.149 208.4H320.649V210.78H337.149V208.4Z" fill="#407BFF"/>
</svg>
