<svg width="595" height="595" viewBox="0 0 595 595" fill="none" xmlns="http://www.w3.org/2000/svg">
<path d="M535.381 474.203H495.968V474.501H535.381V474.203Z" fill="#EBEBEB"/>
<path d="M394.152 477.44H383.811V477.737H394.152V477.44Z" fill="#EBEBEB"/>
<path d="M494.778 463.16H471.942V463.458H494.778V463.16Z" fill="#EBEBEB"/>
<path d="M113.824 465.159H62.4277V465.457H113.824V465.159Z" fill="#EBEBEB"/>
<path d="M131.959 465.159H124.427V465.457H131.959V465.159Z" fill="#EBEBEB"/>
<path d="M267.928 470.181H156.449V470.479H267.928V470.181Z" fill="#EBEBEB"/>
<path d="M282.03 401.982H52.2646C50.4625 401.982 48.7342 401.266 47.4599 399.992C46.1856 398.718 45.4697 396.989 45.4697 395.187V72.1856C45.4854 70.3938 46.2082 68.6807 47.4808 67.4193C48.7534 66.1578 50.4728 65.4501 52.2646 65.4502H282.03C283.832 65.4502 285.56 66.1661 286.835 67.4404C288.109 68.7147 288.825 70.443 288.825 72.2451V395.187C288.825 396.989 288.109 398.718 286.835 399.992C285.56 401.266 283.832 401.982 282.03 401.982ZM52.2646 65.6882C50.5424 65.6913 48.8916 66.3769 47.6737 67.5947C46.4559 68.8125 45.7704 70.4633 45.7672 72.1856V395.187C45.7704 396.91 46.4559 398.56 47.6737 399.778C48.8916 400.996 50.5424 401.682 52.2646 401.685H282.03C283.752 401.682 285.403 400.996 286.621 399.778C287.839 398.56 288.524 396.91 288.527 395.187V72.1856C288.524 70.4633 287.839 68.8125 286.621 67.5947C285.403 66.3769 283.752 65.6913 282.03 65.6882H52.2646Z" fill="#EBEBEB"/>
<path d="M539.439 401.982H309.65C307.849 401.979 306.123 401.262 304.849 399.989C303.576 398.715 302.859 396.988 302.855 395.187V72.1856C302.874 70.3948 303.598 68.6835 304.87 67.4227C306.142 66.1619 307.859 65.4532 309.65 65.4502H539.439C541.227 65.4564 542.94 66.1669 544.208 67.4277C545.475 68.6884 546.195 70.3979 546.21 72.1856V395.187C546.21 396.985 545.498 398.71 544.229 399.984C542.96 401.257 541.237 401.976 539.439 401.982ZM309.65 65.6882C307.928 65.6913 306.277 66.3769 305.059 67.5947C303.842 68.8125 303.156 70.4633 303.153 72.1856V395.187C303.156 396.91 303.842 398.56 305.059 399.778C306.277 400.996 307.928 401.682 309.65 401.685H539.439C541.162 401.682 542.812 400.996 544.03 399.778C545.248 398.56 545.934 396.91 545.937 395.187V72.1856C545.934 70.4633 545.248 68.8125 544.03 67.5947C542.812 66.3769 541.162 65.6913 539.439 65.6882H309.65Z" fill="#EBEBEB"/>
<path d="M595 455.056H0V455.354H595V455.056Z" fill="#EBEBEB"/>
<path d="M257.742 125.343H255.6V292.383H257.742V125.343Z" fill="#E0E0E0"/>
<path d="M391.081 125.343H388.939V292.383H391.081V125.343Z" fill="#E0E0E0"/>
<path d="M399.472 135.851H247.211L243.998 128.354H402.685L399.472 135.851Z" fill="#EBEBEB"/>
<path d="M399.472 146.144H247.211L243.998 138.647H402.685L399.472 146.144Z" fill="#EBEBEB"/>
<path d="M399.472 156.437H247.211L243.998 148.94H402.685L399.472 156.437Z" fill="#EBEBEB"/>
<path d="M399.472 166.731H247.211L243.998 159.234H402.685L399.472 166.731Z" fill="#EBEBEB"/>
<path d="M399.472 177.025H247.211L243.998 169.528H402.685L399.472 177.025Z" fill="#EBEBEB"/>
<path d="M399.472 187.318H247.211L243.998 179.821H402.685L399.472 187.318Z" fill="#EBEBEB"/>
<path d="M399.472 197.612H247.211L243.998 190.115H402.685L399.472 197.612Z" fill="#EBEBEB"/>
<path d="M399.472 207.905H247.211L243.998 200.408H402.685L399.472 207.905Z" fill="#EBEBEB"/>
<path d="M399.472 218.187H247.211L243.998 210.702H402.685L399.472 218.187Z" fill="#EBEBEB"/>
<path d="M399.472 228.48H247.211L243.998 220.983H402.685L399.472 228.48Z" fill="#EBEBEB"/>
<path d="M399.472 238.774H247.211L243.998 231.277H402.685L399.472 238.774Z" fill="#EBEBEB"/>
<path d="M399.472 249.067H247.211L243.998 241.57H402.685L399.472 249.067Z" fill="#EBEBEB"/>
<path d="M399.472 259.361H247.211L243.998 251.864H402.685L399.472 259.361Z" fill="#EBEBEB"/>
<path d="M399.472 269.654H247.211L243.998 262.157H402.685L399.472 269.654Z" fill="#EBEBEB"/>
<path d="M399.472 279.948H247.211L243.998 272.451H402.685L399.472 279.948Z" fill="#EBEBEB"/>
<path d="M399.472 290.241H247.211L243.998 282.744H402.685L399.472 290.241Z" fill="#EBEBEB"/>
<path d="M402.685 290.241H243.998V294.525H402.685V290.241Z" fill="#E0E0E0"/>
<path d="M408.217 118.964H238.464V128.96H408.217V118.964Z" fill="#E0E0E0"/>
<path d="M240.201 219.591C239.743 219.591 239.305 219.409 238.981 219.086C238.657 218.762 238.476 218.323 238.476 217.866V159.556C238.476 159.098 238.657 158.659 238.981 158.335C239.305 158.012 239.743 157.83 240.201 157.83C240.659 157.83 241.098 158.012 241.421 158.335C241.745 158.659 241.927 159.098 241.927 159.556V217.866C241.927 218.323 241.745 218.762 241.421 219.086C241.098 219.409 240.659 219.591 240.201 219.591Z" fill="#E0E0E0"/>
<path d="M240.833 126.961H239.583V161.59H240.833V126.961Z" fill="#E0E0E0"/>
<path d="M472.311 309.817H468.741V267.096C468.8 262.528 467.106 258.111 464.006 254.755C460.907 251.399 456.639 249.359 452.081 249.055C447.429 248.822 442.875 250.446 439.421 253.571C435.966 256.695 433.894 261.063 433.66 265.715C433.654 265.939 433.561 266.153 433.402 266.31C433.242 266.467 433.028 266.557 432.803 266.56H430.959C430.843 266.56 430.728 266.537 430.621 266.492C430.514 266.447 430.417 266.38 430.336 266.297C430.255 266.214 430.192 266.115 430.149 266.007C430.107 265.899 430.087 265.784 430.09 265.668C430.323 260.289 432.598 255.201 436.452 251.442C440.306 247.683 445.449 245.536 450.832 245.438C462.649 245.235 472.252 255.303 472.252 267.119L472.311 309.817Z" fill="#F0F0F0"/>
<path d="M515.722 314.481H490.352V455.009H515.722V314.481Z" fill="#E6E6E6"/>
<path d="M497.277 314.481H222.387V455.009H497.277V314.481Z" fill="#F5F5F5"/>
<path d="M497.277 343.744H222.387V346.124H289.919V455.009H292.299V346.124H357.999V455.009H360.379V346.124H426.067V455.009H428.447V346.124H497.277V343.744Z" fill="#E0E0E0"/>
<path d="M283.077 406.219C282.446 406.219 281.841 405.968 281.394 405.521C280.948 405.075 280.697 404.47 280.697 403.839V393.129C280.697 392.497 280.948 391.892 281.394 391.446C281.841 390.999 282.446 390.749 283.077 390.749C283.708 390.749 284.314 390.999 284.76 391.446C285.207 391.892 285.457 392.497 285.457 393.129V403.839C285.457 404.47 285.207 405.075 284.76 405.521C284.314 405.968 283.708 406.219 283.077 406.219Z" fill="#E6E6E6"/>
<path d="M299.142 406.219C298.511 406.219 297.905 405.968 297.459 405.521C297.012 405.075 296.762 404.47 296.762 403.839V393.129C296.762 392.497 297.012 391.892 297.459 391.446C297.905 390.999 298.511 390.749 299.142 390.749C299.773 390.749 300.378 390.999 300.825 391.446C301.271 391.892 301.522 392.497 301.522 393.129V403.839C301.522 404.47 301.271 405.075 300.825 405.521C300.378 405.968 299.773 406.219 299.142 406.219Z" fill="#E6E6E6"/>
<path d="M419.225 406.219C418.594 406.219 417.988 405.968 417.542 405.521C417.095 405.075 416.845 404.47 416.845 403.839V393.129C416.845 392.497 417.095 391.892 417.542 391.446C417.988 390.999 418.594 390.749 419.225 390.749C419.856 390.749 420.461 390.999 420.908 391.446C421.354 391.892 421.605 392.497 421.605 393.129V403.839C421.605 404.47 421.354 405.075 420.908 405.521C420.461 405.968 419.856 406.219 419.225 406.219Z" fill="#E6E6E6"/>
<path d="M435.29 406.219C434.659 406.219 434.054 405.968 433.607 405.521C433.161 405.075 432.91 404.47 432.91 403.839V393.129C432.91 392.497 433.161 391.892 433.607 391.446C434.054 390.999 434.659 390.749 435.29 390.749C435.921 390.749 436.527 390.999 436.973 391.446C437.419 391.892 437.67 392.497 437.67 393.129V403.839C437.67 404.47 437.419 405.075 436.973 405.521C436.527 405.968 435.921 406.219 435.29 406.219Z" fill="#E6E6E6"/>
<path d="M521.672 311.399H490.137V317.552H521.672V311.399Z" fill="#E0E0E0"/>
<path d="M499.657 311.399H216.438V317.552H499.657V311.399Z" fill="#EBEBEB"/>
<path d="M505.132 312.101H411.253C410.647 312.101 410.065 311.861 409.637 311.432C409.208 311.004 408.968 310.423 408.968 309.817C408.968 309.211 409.208 308.629 409.637 308.201C410.065 307.772 410.647 307.532 411.253 307.532H505.132C505.738 307.532 506.319 307.772 506.747 308.201C507.176 308.629 507.416 309.211 507.416 309.817C507.416 310.423 507.176 311.004 506.747 311.432C506.319 311.861 505.738 312.101 505.132 312.101Z" fill="#E6E6E6"/>
<path d="M481.284 303.688H477.726V308.21H481.284V303.688Z" fill="#E0E0E0"/>
<path d="M482.819 304.819H476.19L477.488 296.905H481.522L482.819 304.819Z" fill="#F0F0F0"/>
<path d="M463.291 303.688H459.732V308.21H463.291V303.688Z" fill="#E0E0E0"/>
<path d="M464.814 304.819H458.197L459.482 296.905H463.528L464.814 304.819Z" fill="#F0F0F0"/>
<path d="M203.669 150.833H114.109V231.039H203.669V150.833Z" fill="#F5F5F5"/>
<path d="M203.681 153.403H114.109C113.772 153.403 113.439 153.336 113.127 153.207C112.816 153.078 112.534 152.888 112.296 152.649C112.058 152.411 111.87 152.127 111.742 151.815C111.614 151.504 111.549 151.17 111.551 150.833C111.551 150.153 111.82 149.501 112.299 149.019C112.779 148.538 113.43 148.265 114.109 148.262H203.681C204.36 148.265 205.011 148.538 205.49 149.019C205.97 149.501 206.239 150.153 206.239 150.833C206.241 151.17 206.176 151.504 206.048 151.815C205.92 152.127 205.732 152.411 205.494 152.649C205.256 152.888 204.974 153.078 204.662 153.207C204.351 153.336 204.018 153.403 203.681 153.403Z" fill="#EBEBEB"/>
<path d="M203.681 233.609H114.109C113.43 233.606 112.779 233.334 112.299 232.852C111.82 232.37 111.551 231.718 111.551 231.038C111.554 230.361 111.824 229.712 112.304 229.233C112.783 228.754 113.432 228.483 114.109 228.48H203.681C204.36 228.483 205.011 228.755 205.49 229.237C205.97 229.719 206.239 230.371 206.239 231.05C206.236 231.728 205.965 232.377 205.486 232.856C205.007 233.335 204.358 233.606 203.681 233.609Z" fill="#EBEBEB"/>
<path d="M177.06 370.816H126.782V378.551H177.06V370.816Z" fill="#E0E0E0"/>
<path d="M127.699 375.279H174.644C175.676 375.279 176.666 375.689 177.396 376.418C178.125 377.148 178.535 378.138 178.535 379.17V455.009H123.76V379.17C123.76 378.655 123.862 378.145 124.06 377.67C124.259 377.194 124.55 376.763 124.916 376.401C125.283 376.039 125.717 375.754 126.195 375.561C126.673 375.368 127.184 375.272 127.699 375.279Z" fill="#F0F0F0"/>
<path d="M174.252 361.296H128.104C125.731 361.296 123.808 363.219 123.808 365.592V368.9C123.808 371.273 125.731 373.196 128.104 373.196H174.252C176.624 373.196 178.548 371.273 178.548 368.9V365.592C178.548 363.219 176.624 361.296 174.252 361.296Z" fill="#F0F0F0"/>
<path d="M139.873 455.009H114.288V451.439L139.873 449.059V455.009Z" fill="#E0E0E0"/>
<path d="M291.764 504.215C419.192 504.215 522.493 498.184 522.493 490.744C522.493 483.305 419.192 477.273 291.764 477.273C164.336 477.273 61.0352 483.305 61.0352 490.744C61.0352 498.184 164.336 504.215 291.764 504.215Z" fill="#F5F5F5"/>
<path d="M303.26 384.096C303.26 384.096 303.26 410.645 326.132 423.366C349.003 436.088 423.593 381.907 422.272 384.096C420.951 386.286 303.26 384.096 303.26 384.096Z" fill="#263238"/>
<path opacity="0.2" d="M303.26 384.096C303.26 384.096 303.26 410.645 326.132 423.366C349.003 436.088 423.593 381.907 422.272 384.096C420.951 386.286 303.26 384.096 303.26 384.096Z" fill="white"/>
<path d="M326.846 269.583C308.27 270.189 288.254 270.773 269.726 271.391C265.763 266.405 263.747 260.149 264.054 253.787C264.36 247.426 266.968 241.392 271.392 236.81C273.316 234.834 275.613 233.261 278.151 232.181C287.492 228.087 299.892 229.967 308.555 235.644C317.778 241.701 323.502 252.304 325.858 263.264C326.309 265.349 326.638 267.459 326.846 269.583Z" fill="#407BFF"/>
<path opacity="0.5" d="M326.846 269.583C308.27 270.189 288.254 270.773 269.726 271.391C265.763 266.405 263.747 260.149 264.054 253.787C264.36 247.426 266.968 241.392 271.392 236.81C273.316 234.834 275.613 233.261 278.151 232.181C287.492 228.087 299.892 229.967 308.555 235.644C317.778 241.701 323.502 252.304 325.858 263.264C326.309 265.349 326.638 267.459 326.846 269.583Z" fill="white"/>
<path opacity="0.5" d="M325.858 263.252L278.163 264.763C274.478 260.131 272.472 254.386 272.472 248.466C272.472 242.547 274.478 236.802 278.163 232.169C287.504 228.076 299.904 229.956 308.567 235.632C317.73 241.689 323.502 252.28 325.858 263.252Z" fill="white"/>
<path d="M442.835 377.504C442.832 380.939 441.465 384.232 439.035 386.66C436.605 389.088 433.311 390.451 429.876 390.451H316.195L257.219 280.84C256.168 278.908 255.615 276.745 255.612 274.545C255.623 273.409 255.77 272.278 256.053 271.178C256.684 268.758 257.984 266.566 259.805 264.853C261.626 263.139 263.893 261.974 266.346 261.491C267.199 261.313 268.069 261.225 268.94 261.229H327.25C331.662 261.233 335.979 262.507 339.685 264.901C343.391 267.294 346.329 270.704 348.147 274.724L365.997 314.267L390.237 362.748C390.237 362.748 417.762 363.676 430.542 362.748C443.323 361.82 442.835 377.504 442.835 377.504Z" fill="#407BFF"/>
<path opacity="0.5" d="M442.835 377.504C442.832 380.939 441.465 384.232 439.035 386.66C436.605 389.088 433.311 390.451 429.876 390.451H316.195L257.219 280.84C256.168 278.908 255.615 276.745 255.612 274.545C255.623 273.409 255.77 272.278 256.053 271.178C256.684 268.758 257.984 266.566 259.805 264.853C261.626 263.139 263.893 261.974 266.346 261.491C267.199 261.313 268.069 261.225 268.94 261.229H327.25C331.662 261.233 335.979 262.507 339.685 264.901C343.391 267.294 346.329 270.704 348.147 274.724L365.997 314.267L390.237 362.748C390.237 362.748 417.762 363.676 430.542 362.748C443.323 361.82 442.835 377.504 442.835 377.504Z" fill="white"/>
<path opacity="0.5" d="M378.515 377.504C378.515 380.938 377.151 384.231 374.723 386.659C372.295 389.087 369.002 390.451 365.568 390.451H316.195L257.219 280.84C256.168 278.908 255.615 276.744 255.612 274.545C255.623 273.409 255.77 272.278 256.053 271.177C256.684 268.758 257.984 266.566 259.805 264.852C261.626 263.139 263.893 261.974 266.346 261.491C270.129 262.064 273.709 263.575 276.758 265.886C279.807 268.198 282.229 271.236 283.803 274.724L301.653 314.267L325.894 362.748C325.894 362.748 353.406 363.676 366.187 362.748C378.968 361.82 378.515 377.504 378.515 377.504Z" fill="white"/>
<path d="M458.305 391.51H315.719C313.83 391.51 311.96 391.138 310.215 390.415C308.47 389.692 306.885 388.632 305.55 387.296C304.215 385.96 303.156 384.374 302.435 382.628C301.713 380.883 301.342 379.012 301.344 377.123C301.344 373.311 302.858 369.654 305.554 366.958C308.25 364.263 311.906 362.748 315.719 362.748H458.305C460.194 362.746 462.064 363.117 463.81 363.839C465.555 364.561 467.141 365.619 468.477 366.954C469.813 368.289 470.873 369.875 471.596 371.619C472.32 373.364 472.692 375.234 472.692 377.123C472.692 380.939 471.176 384.598 468.478 387.296C465.78 389.995 462.12 391.51 458.305 391.51Z" fill="#407BFF"/>
<path opacity="0.5" d="M472.68 377.123C472.68 380.937 471.166 384.594 468.47 387.292C465.775 389.99 462.118 391.507 458.305 391.51H315.719C311.906 391.51 308.25 389.996 305.554 387.3C302.858 384.604 301.344 380.948 301.344 377.135C301.344 373.322 302.858 369.666 305.554 366.97C308.25 364.274 311.906 362.76 315.719 362.76H458.305C462.115 362.76 465.77 364.273 468.465 366.966C471.161 369.659 472.677 373.313 472.68 377.123Z" fill="white"/>
<path d="M532.24 426.33L485.188 368.389C483.731 366.595 481.855 365.187 479.726 364.291C477.597 363.394 475.279 363.036 472.978 363.248H413.193C409.576 362.937 405.98 364.042 403.161 366.33C400.267 368.678 398.425 372.08 398.039 375.786C397.652 379.493 398.754 383.201 401.102 386.096L448.167 444.049C449.48 445.668 451.137 446.974 453.019 447.871C454.901 448.769 456.959 449.235 459.043 449.237H521.221C523.888 449.264 526.508 448.531 528.774 447.124C531.041 445.717 532.86 443.695 534.019 441.292C535.178 438.89 535.63 436.207 535.321 433.558C535.013 430.908 533.956 428.401 532.276 426.33H532.24Z" fill="#407BFF"/>
<path opacity="0.2" d="M467.921 446.095C466.489 447.258 464.843 448.128 463.075 448.654C461.308 449.18 459.454 449.354 457.62 449.163C455.785 448.973 454.006 448.424 452.384 447.546C450.762 446.669 449.329 445.48 448.167 444.048L401.102 386.096C398.754 383.201 397.652 379.493 398.039 375.786C398.425 372.08 400.267 368.678 403.161 366.33C404.592 365.166 406.239 364.296 408.007 363.77C409.775 363.243 411.63 363.071 413.465 363.262C415.3 363.453 417.079 364.004 418.7 364.884C420.322 365.764 421.754 366.955 422.915 368.388L469.979 426.329C471.143 427.762 472.013 429.41 472.54 431.179C473.066 432.948 473.239 434.803 473.048 436.639C472.857 438.475 472.305 440.255 471.426 441.878C470.546 443.5 469.355 444.933 467.921 446.095Z" fill="white"/>
<path opacity="0.5" d="M532.24 426.33L485.188 368.389C483.731 366.595 481.855 365.187 479.726 364.291C477.597 363.394 475.279 363.036 472.978 363.248H413.193C409.576 362.937 405.98 364.042 403.161 366.33C400.267 368.678 398.425 372.08 398.039 375.786C397.652 379.493 398.754 383.201 401.102 386.096L448.167 444.049C449.48 445.668 451.137 446.974 453.019 447.871C454.901 448.769 456.959 449.235 459.043 449.237H521.221C523.888 449.264 526.508 448.531 528.774 447.124C531.041 445.717 532.86 443.695 534.019 441.292C535.178 438.89 535.63 436.207 535.321 433.558C535.013 430.908 533.956 428.401 532.276 426.33H532.24Z" fill="white"/>
<path d="M268.619 482.117H258.635V492.101H268.619V482.117Z" fill="#263238"/>
<path d="M369.508 482.117H359.523V492.101H369.508V482.117Z" fill="#263238"/>
<path d="M358.559 482.117H348.575V492.101H358.559V482.117Z" fill="#263238"/>
<path d="M459.447 482.117H449.463V492.101H459.447V482.117Z" fill="#263238"/>
<path d="M422.748 482.117H271.32L301.642 420.986H422.748V482.117Z" fill="#263238"/>
<path opacity="0.2" d="M422.748 482.117H271.32L301.642 420.986H422.748V482.117Z" fill="white"/>
<path opacity="0.2" d="M359.594 482.117H271.32L301.642 420.986H359.594V482.117Z" fill="white"/>
<path d="M467.028 475.322H254.673L249.115 487.924H472.585L467.028 475.322Z" fill="#263238"/>
<path opacity="0.2" d="M374.482 475.322H254.673L249.115 487.924H372.625L374.482 475.322Z" fill="white"/>
<path d="M405.564 319.111H323.097C319.292 319.111 316.207 322.196 316.207 326.001V328.595C316.207 332.4 319.292 335.485 323.097 335.485H405.564C409.369 335.485 412.454 332.4 412.454 328.595V326.001C412.454 322.196 409.369 319.111 405.564 319.111Z" fill="#407BFF"/>
<path opacity="0.5" d="M405.564 319.111H323.097C319.292 319.111 316.207 322.196 316.207 326.001V328.595C316.207 332.4 319.292 335.485 323.097 335.485H405.564C409.369 335.485 412.454 332.4 412.454 328.595V326.001C412.454 322.196 409.369 319.111 405.564 319.111Z" fill="white"/>
<path opacity="0.5" d="M412.442 327.25C412.442 325.079 411.58 322.996 410.044 321.461C408.509 319.926 406.427 319.063 404.255 319.063H324.394C322.223 319.063 320.14 319.926 318.605 321.461C317.07 322.996 316.207 325.079 316.207 327.25H412.442Z" fill="white"/>
<path d="M365.58 320.646C357.859 325.442 349.423 328.977 340.59 331.118L321.55 335.723C319.932 332.034 314.481 324.49 303.89 304.01C302.606 301.906 301.461 299.719 300.463 297.465C298.238 292.635 296.523 287.585 295.346 282.399C294.654 279.39 294.172 276.336 293.906 273.26C293.91 273.233 293.91 273.204 293.906 273.177C293.585 272.524 293.397 271.814 293.353 271.088C293.31 270.362 293.412 269.634 293.654 268.948C293.896 268.262 294.272 267.631 294.761 267.092C295.25 266.553 295.841 266.118 296.501 265.811H296.596C299.214 264.502 302.546 262.943 305.854 261.634C312.19 259.102 318.657 256.909 325.227 255.065C327.442 254.532 329.687 254.134 331.951 253.875C333.506 253.629 335.097 253.776 336.581 254.302C338.065 254.828 339.394 255.716 340.447 256.886C345.1 261.8 355.322 281.174 365.58 320.646Z" fill="#263238"/>
<g opacity="0.7">
<path opacity="0.7" d="M357.797 294.37C353.144 295.334 348.087 296.155 344.243 296.75C343.613 294.573 342.649 292.419 341.863 290.313L354.62 285.6C355.659 288.297 356.718 291.221 357.797 294.37Z" fill="white"/>
</g>
<path d="M320.111 262.598C310.698 266.382 305.248 261.812 305.248 261.812C308.032 256.172 302.558 245.366 299 239.619L305.64 242.153L314.684 245.604C314.799 246.621 314.974 247.631 315.208 248.627C315.367 249.344 315.59 250.045 315.874 250.721V250.828C317.064 253.649 319.444 255.588 324.323 255.112C324.347 255.136 328.096 259.337 320.111 262.598Z" fill="#B25B52"/>
<path opacity="0.2" d="M314.66 245.604C314.774 246.621 314.949 247.63 315.183 248.627C315.342 249.343 315.565 250.044 315.85 250.721V250.828C313.041 251.173 308.626 249.579 307.317 247.02C306.887 246.177 306.545 245.291 306.294 244.378L314.66 245.604Z" fill="black"/>
<path d="M312.066 230.741C312.066 230.741 316.076 232.776 317.005 227.873C313.006 225.255 314.125 224.089 312.554 221.269C311.761 219.576 310.525 218.13 308.977 217.082C307.428 216.035 305.626 215.426 303.76 215.319L300.951 217.104C291.896 225.196 312.066 230.741 312.066 230.741Z" fill="#263238"/>
<path d="M290.265 231.848C289.33 228.867 289.616 225.636 291.063 222.867C292.509 220.097 294.996 218.016 297.976 217.08C306.973 214.022 316.909 222.923 320.896 230.063C321.961 231.895 322.506 233.983 322.472 236.102C322.438 238.221 321.826 240.291 320.701 242.088C319.577 243.884 317.983 245.34 316.093 246.297C314.202 247.255 312.085 247.677 309.972 247.52C303.439 247.104 299.976 243.177 293.514 236.989C292.004 235.585 290.885 233.814 290.265 231.848Z" fill="#B25B52"/>
<path d="M317.731 232.788C314.881 233.836 312.149 235.181 309.579 236.798C310.435 237.721 311.597 238.302 312.848 238.433C314.1 238.564 315.357 238.237 316.386 237.512C317.163 237.112 317.754 236.424 318.031 235.595C318.309 234.766 318.253 233.862 317.873 233.074L317.731 232.788Z" fill="#263238"/>
<path d="M314.22 236.727C315.326 235.998 316.651 235.678 317.968 235.822C317.651 236.531 317.107 237.113 316.421 237.476C315.322 238.212 313.998 238.533 312.685 238.381C312.993 237.671 313.535 237.088 314.22 236.727Z" fill="#FF5652"/>
<path d="M317.48 232.895C317.553 233.156 317.554 233.431 317.485 233.692C317.416 233.953 317.279 234.192 317.088 234.383C315.366 235.367 313.557 236.191 311.685 236.846C311.389 236.973 311.065 237.02 310.746 236.983C310.426 236.945 310.122 236.824 309.864 236.632C312.29 235.169 314.839 233.918 317.48 232.895Z" fill="white"/>
<path d="M302.081 245.14L293.335 240.38C294.357 236.575 295.984 232.959 298.154 229.67L298.607 229.897L302.081 245.14Z" fill="#B25B52"/>
<path opacity="0.2" d="M302.081 245.14L293.335 240.38C294.357 236.575 295.984 232.959 298.154 229.67L298.607 229.897L302.081 245.14Z" fill="black"/>
<path d="M298.155 229.742C295.985 233.03 294.357 236.646 293.335 240.452L287.873 237.477L292.145 226.671L298.155 229.742Z" fill="#263238"/>
<path d="M314.565 231.646C315.1 231.378 315.571 230.997 315.943 230.528C316.315 230.059 316.58 229.515 316.718 228.932C314.345 228.477 312.044 227.705 309.876 226.636L314.565 231.646Z" fill="#9D2724"/>
<path d="M294.668 238.75C296.382 237.298 299.845 238.405 301.701 239.631C303.784 240.999 304.26 243.201 301.975 243.962C300.109 244.5 298.114 244.37 296.334 243.593C294.097 242.629 292.967 240.202 294.668 238.75Z" fill="#B25B52"/>
<path d="M305.449 229.206C305.806 228.909 306.556 229.135 306.996 229.623C307.436 230.111 307.543 230.813 307.186 231.11C306.829 231.408 306.187 231.194 305.651 230.706C305.116 230.218 305.08 229.516 305.449 229.206Z" fill="#263238"/>
<path d="M311.339 223.566C311.708 223.256 312.387 223.435 312.886 223.97C313.386 224.506 313.493 225.16 313.124 225.493C312.756 225.827 312.077 225.612 311.577 225.077C311.078 224.541 310.982 223.863 311.339 223.566Z" fill="#263238"/>
<path d="M308.401 222.114C308.469 222.125 308.539 222.121 308.605 222.1C308.672 222.079 308.732 222.043 308.782 221.995C309.138 221.58 309.582 221.25 310.083 221.029C310.583 220.809 311.127 220.704 311.673 220.722C311.726 220.73 311.781 220.728 311.833 220.715C311.885 220.702 311.935 220.679 311.978 220.647C312.021 220.615 312.057 220.574 312.085 220.528C312.112 220.481 312.13 220.43 312.137 220.377C312.148 220.265 312.116 220.154 312.047 220.066C311.978 219.977 311.879 219.918 311.768 219.901C311.094 219.867 310.422 219.989 309.803 220.257C309.184 220.525 308.635 220.933 308.198 221.448C308.121 221.529 308.077 221.638 308.077 221.751C308.077 221.864 308.121 221.973 308.198 222.054C308.261 222.087 308.33 222.108 308.401 222.114Z" fill="#263238"/>
<path d="M302.783 229.587C302.846 229.556 302.9 229.511 302.941 229.455C302.982 229.399 303.01 229.334 303.021 229.266C303.039 228.718 303.183 228.183 303.441 227.7C303.699 227.217 304.064 226.8 304.509 226.481C304.558 226.456 304.601 226.422 304.635 226.379C304.67 226.337 304.695 226.288 304.71 226.235C304.724 226.183 304.728 226.128 304.72 226.074C304.712 226.02 304.693 225.968 304.664 225.922C304.604 225.826 304.51 225.758 304.401 225.731C304.292 225.704 304.177 225.722 304.08 225.779C303.52 226.167 303.057 226.68 302.727 227.276C302.397 227.873 302.208 228.537 302.176 229.218C302.173 229.274 302.181 229.331 302.2 229.384C302.218 229.437 302.247 229.486 302.285 229.528C302.323 229.57 302.368 229.604 302.419 229.629C302.47 229.653 302.525 229.667 302.581 229.67C302.654 229.66 302.724 229.631 302.783 229.587Z" fill="#263238"/>
<path d="M509.237 390.951L507.179 398.031L498.194 393.045L495.659 391.641L493.91 390.665L499.265 383.442L500.348 384.263L502.74 386.06L509.237 390.951Z" fill="#B25B52"/>
<path d="M525.207 386.595C522.72 389.725 520.316 392.462 518.507 394.711C515.556 398.376 514.604 399.899 512.343 402.839C512.072 403.177 511.679 403.397 511.249 403.453C510.818 403.508 510.383 403.395 510.035 403.136L504.085 397.71C503.965 397.588 503.897 397.423 503.897 397.252C503.897 397.08 503.965 396.916 504.085 396.794L508.845 389.975C509.725 389.242 510.723 388.662 511.796 388.261C515.033 387.428 517.508 387.345 523.446 382.371C523.767 382.148 524.159 382.052 524.546 382.103C524.933 382.154 525.288 382.347 525.54 382.644C526.29 383.406 526.611 384.858 525.207 386.595Z" fill="#263238"/>
<path opacity="0.2" d="M502.311 385.727L497.646 392.772L495.659 391.641L500.348 384.263L502.311 385.727Z" fill="black"/>
<path d="M501.097 383.073L494.778 393.045C494.778 393.045 459.34 379.456 428.328 350.539L428.424 350.027C410.812 354.454 359.237 355.227 350.955 346.457C346.599 341.626 343.541 336.497 342.779 330.178L350.955 327.464C355.262 325.715 362.712 323.073 365.151 320.146C365.151 320.146 412.061 323.014 431.363 332.117C451.593 339.567 501.097 383.073 501.097 383.073Z" fill="#407BFF"/>
<g opacity="0.1">
<g opacity="0.1">
<path opacity="0.1" d="M501.097 383.073L494.778 393.045C494.778 393.045 459.34 379.456 428.328 350.539L428.424 350.027C410.812 354.454 359.237 355.227 350.955 346.457C346.599 341.626 343.541 336.497 342.779 330.178L350.955 327.464C355.262 325.715 362.712 323.073 365.151 320.146C365.151 320.146 412.061 323.014 431.363 332.117C451.593 339.567 501.097 383.073 501.097 383.073Z" fill="black"/>
</g>
</g>
<path d="M499.669 401.958L495.647 408.218L486.532 403.672L483.366 402.077L488.15 394.164V394.152L499.669 401.958Z" fill="#B25B52"/>
<path opacity="0.2" d="M491.268 396.258L486.615 403.482L486.532 403.672L483.366 402.078L488.15 394.164L491.268 396.258Z" fill="black"/>
<path d="M489.792 393.153L489.412 393.831L483.259 403.732L421.927 365.33C403.755 371.042 341.768 371.614 332.57 362.95C331.886 362.288 331.238 361.589 330.63 360.856C329.964 360.106 329.357 359.321 328.785 358.535C328.783 358.512 328.783 358.488 328.785 358.464C326.371 354.473 324.585 350.134 323.49 345.6C322.593 342.22 321.913 338.786 321.455 335.319C338.889 331.868 359.868 326.31 365.188 320.11L375.66 336.056C393.295 337.77 420.058 342.006 427.02 344.803C448.63 351.407 489.792 393.153 489.792 393.153Z" fill="#407BFF"/>
<path d="M330.63 360.868C329.976 360.115 329.372 359.32 328.821 358.488C329.357 359.38 329.964 360.118 330.63 360.868Z" fill="#407BFF"/>
<path d="M515.27 395.342C514.818 395.985 514.354 396.604 513.925 397.222L513.866 397.306L512.509 399.126L511.902 399.936C511.593 400.364 511.26 400.828 510.903 401.292L510.189 402.244L508.761 404.22C505.905 408.254 505 409.908 502.811 413.121C502.549 413.489 502.155 413.741 501.712 413.826C501.268 413.91 500.809 413.819 500.431 413.573L494.921 409.087L493.898 408.254C493.828 408.196 493.771 408.126 493.729 408.046C493.687 407.966 493.662 407.879 493.654 407.789C493.646 407.7 493.656 407.609 493.684 407.523C493.711 407.438 493.756 407.358 493.814 407.29L498.36 399.852C499.243 399.037 500.251 398.37 501.347 397.877C504.691 396.806 507.297 396.568 513.187 390.999C514.425 389.761 517.65 391.927 515.27 395.342Z" fill="#263238"/>
<path d="M328.749 358.452C326.024 354.63 324.175 350.254 323.335 345.636H323.454C324.55 350.155 326.336 354.478 328.749 358.452Z" fill="#407BFF"/>
<path d="M332.724 319.111H250.257C246.452 319.111 243.367 322.196 243.367 326.001V328.595C243.367 332.4 246.452 335.485 250.257 335.485H332.724C336.53 335.485 339.614 332.4 339.614 328.595V326.001C339.614 322.196 336.53 319.111 332.724 319.111Z" fill="#407BFF"/>
<path opacity="0.5" d="M332.724 319.111H250.257C246.452 319.111 243.367 322.196 243.367 326.001V328.595C243.367 332.4 246.452 335.485 250.257 335.485H332.724C336.53 335.485 339.614 332.4 339.614 328.595V326.001C339.614 322.196 336.53 319.111 332.724 319.111Z" fill="white"/>
<path opacity="0.5" d="M339.614 327.25C339.614 325.079 338.752 322.996 337.216 321.461C335.681 319.926 333.599 319.063 331.427 319.063H251.566C250.49 319.061 249.424 319.272 248.43 319.683C247.435 320.094 246.531 320.696 245.769 321.457C245.008 322.217 244.404 323.12 243.992 324.114C243.579 325.108 243.367 326.174 243.367 327.25H339.614Z" fill="white"/>
<path d="M322.49 320.372C311.221 321.36 304.331 320.872 293.097 320.824C283.363 320.824 281.982 320.824 281.982 317.683C281.982 314.113 282.815 307.984 282.815 304.45C287.195 304.723 291.086 305.199 295.406 304.45L294.882 310.102C307.127 309.793 311.245 313.422 322.49 314.743V320.372Z" fill="#B25B52"/>
<path opacity="0.2" d="M302.261 301.07C299.168 295.194 296.863 288.937 295.406 282.458L297.786 281.054L302.261 301.07Z" fill="black"/>
<path d="M295.216 266.667C290.765 267.476 287.255 271.142 285.47 275.295C283.685 279.448 282.233 302.95 282.173 302.022H280.65L279.579 310.078C285.303 309.912 292.574 309.388 298.286 309.222C298.286 309.222 298.536 304.128 298.286 301.641L296.775 301.772L299.94 280.531C300.472 277.119 300.195 273.63 299.131 270.344C298.976 269.827 298.765 269.328 298.5 268.857C297.774 267.75 296.584 266.417 295.216 266.667Z" fill="#263238"/>
<path d="M346.052 314.327C346.052 315.49 345.707 316.627 345.061 317.594C344.414 318.561 343.495 319.315 342.42 319.759C341.346 320.204 340.163 320.319 339.022 320.092C337.882 319.864 336.834 319.303 336.013 318.479C335.191 317.656 334.632 316.607 334.406 315.466C334.181 314.325 334.299 313.143 334.746 312.069C335.193 310.995 335.948 310.078 336.916 309.433C337.885 308.789 339.022 308.446 340.185 308.448C341.742 308.451 343.235 309.072 344.335 310.174C345.434 311.276 346.052 312.77 346.052 314.327Z" fill="#407BFF"/>
<path d="M339.638 323.776C341.328 323.613 342.987 323.212 344.565 322.586C344.901 322.438 345.204 322.224 345.456 321.957C345.708 321.69 345.904 321.375 346.031 321.031C346.159 320.687 346.216 320.321 346.199 319.954C346.183 319.587 346.092 319.228 345.934 318.897C345.707 318.397 345.469 317.897 345.184 317.397C343.637 318.159 341.757 319.027 340.138 318.409C336.997 317.219 335.164 314.446 331.808 314.375L321.788 314.851C321.33 316.617 321.281 318.465 321.646 320.253C327.382 322.501 333.478 323.694 339.638 323.776Z" fill="#B25B52"/>
<path d="M341.042 296.167L334.081 300.606C334.081 300.606 326.667 304.176 324.263 302.379C323.234 301.099 322.389 299.681 321.752 298.166C321.531 297.731 321.449 297.239 321.517 296.756C321.586 296.273 321.801 295.822 322.133 295.465L326.893 291.312C327.932 290.425 329.252 289.936 330.618 289.932H339.531L341.042 296.167Z" fill="#B25B52"/>
<path d="M370.566 289.765C370.489 289.883 370.397 289.991 370.292 290.086C370.18 290.202 370.056 290.305 369.923 290.396C369.782 290.515 369.63 290.623 369.471 290.717C368.679 291.194 367.842 291.592 366.972 291.907C366.734 292.002 366.472 292.109 366.199 292.193C365.925 292.276 365.663 292.395 365.366 292.478C364.794 292.657 364.176 292.847 363.557 293.014L362.926 293.18L361.141 293.644H360.951C359.939 293.882 358.88 294.12 357.809 294.347C357.685 294.382 357.557 294.406 357.428 294.418C353.858 295.168 349.979 295.822 346.718 296.322C346.278 296.393 345.838 296.465 345.433 296.512L344.243 296.691C343.612 294.501 341.09 290.455 340.304 288.361L353.073 283.708L355.941 282.661C355.941 282.661 352.799 277.675 351.8 276.306C350.8 274.938 350.003 273.843 349.098 272.593C345.219 264.501 342.434 258.837 339.293 256.231C337.792 254.823 335.848 253.981 333.795 253.851C333.795 253.851 340.53 252.328 342.791 253.018C345.041 253.82 347.112 255.058 348.884 256.659C355.599 262.015 361.457 268.363 366.258 275.485C366.341 275.616 366.46 275.783 366.568 275.973C367.008 276.639 367.436 277.318 367.841 277.996C369.911 281.376 372.565 286.909 370.566 289.765Z" fill="#263238"/>
<path opacity="0.2" d="M353.871 279.388L350.384 274.533C349.194 271.879 348.135 269.523 347.1 267.453L348.468 268.762C351.398 271.607 353.298 275.345 353.871 279.388Z" fill="black"/>
<path d="M347.659 299.024C345.296 298.277 342.798 298.057 340.34 298.381C339.031 294.692 337.607 291.047 336.068 287.445C338.328 286.435 340.742 285.816 343.208 285.612C344.648 289.992 347.028 294.478 347.659 299.024Z" fill="#263238"/>
<path opacity="0.1" d="M347.659 299.024C345.296 298.277 342.798 298.057 340.34 298.381C339.031 294.692 337.607 291.047 336.068 287.445C338.328 286.435 340.742 285.816 343.208 285.612C344.648 289.992 347.028 294.478 347.659 299.024Z" fill="white"/>
<path d="M288.362 237.81C286.077 236.227 285.041 233.347 284.72 230.587C284.399 227.826 287.35 227.29 287.017 224.529C286.684 221.769 285.589 218.889 283.28 217.389C285.268 217.925 287.79 217.496 289.587 218.496C288.339 216.396 286.354 214.835 284.018 214.117C287.257 213.875 290.513 214.234 293.621 215.176C293.407 212.796 291.241 209.642 289.825 207.691L297.667 212.451C298.442 210.649 298.535 208.628 297.929 206.763C300.381 209.404 305.712 214.997 305.712 214.997L306.902 217.187C302.142 217.663 303.153 220.21 303.153 220.21C303.153 220.21 292.277 220.995 288.362 237.81Z" fill="#263238"/>
<path opacity="0.1" d="M280.65 302.046L298.31 301.665L298.286 309.245L279.579 310.102L280.65 302.046Z" fill="white"/>
<path d="M133.887 476.167L142.407 480.701L143.216 467.182L134.458 466.694L133.887 476.167Z" fill="#F7978D"/>
<path d="M142.8 478.547L133.768 474.489C133.609 474.418 133.431 474.403 133.262 474.447C133.094 474.49 132.945 474.588 132.84 474.727L128.08 481.188C127.878 481.471 127.796 481.823 127.852 482.166C127.908 482.509 128.096 482.816 128.377 483.021L128.627 483.164C131.804 484.52 133.387 485.02 137.409 486.805C139.789 487.9 146.084 491.006 149.476 492.517C152.867 494.028 154.783 490.887 153.534 489.959C147.917 485.806 145.132 482.307 143.942 479.629C143.715 479.135 143.306 478.747 142.8 478.547Z" fill="#263238"/>
<path opacity="0.2" d="M143.216 467.194L143.061 471.597L134.303 471.074L134.457 466.694L143.216 467.194Z" fill="black"/>
<path d="M157.342 276.639C159.115 287.194 155.985 338.519 152.582 361.212C148.107 391.296 144.704 470.121 144.704 470.121L133.006 469.217C133.006 469.217 129.436 386.559 132.245 362.391C131.424 331.213 128.996 276.711 128.996 276.711L157.342 276.639Z" fill="#407BFF"/>
<path opacity="0.1" d="M157.342 276.639C159.115 287.194 155.985 338.519 152.582 361.212C148.107 391.296 144.704 470.121 144.704 470.121L133.006 469.217C133.006 469.217 129.436 386.559 132.245 362.391C131.424 331.213 128.996 276.711 128.996 276.711L157.342 276.639Z" fill="black"/>
<path opacity="0.2" d="M130.412 310.685C130.126 302.784 135.838 295.87 137.837 310.804C139.099 320.324 135.874 336.865 131.816 348.527C131.423 336.306 130.9 322.704 130.412 310.685Z" fill="black"/>
<path d="M69.7812 455.353L76.4215 459.578L82.3952 449.963L75.7551 445.738L69.7812 455.353Z" fill="#F7978D"/>
<path d="M77.4448 459.423L70.1382 452.7C70.0165 452.584 69.8545 452.519 69.686 452.519C69.5176 452.519 69.3556 452.584 69.2338 452.7L63.2838 457.972C63.1432 458.111 63.0315 458.277 62.9553 458.46C62.8791 458.642 62.8398 458.839 62.8398 459.037C62.8398 459.235 62.8791 459.431 62.9553 459.614C63.0315 459.796 63.1432 459.962 63.2838 460.102C65.8542 462.41 67.2108 463.374 70.4238 466.349C72.3992 468.158 74.7673 470.74 77.4924 473.263C80.2175 475.786 82.7046 473.097 81.7883 471.799C77.659 465.957 78.5158 463.933 78.0636 460.851C78.013 460.322 77.7964 459.822 77.4448 459.423Z" fill="#263238"/>
<path opacity="0.2" d="M82.3953 449.975L79.7059 454.282L72.9824 449.844L75.7432 445.738L82.3953 449.975Z" fill="black"/>
<path d="M139.885 288.766C139.885 288.766 128.841 355.406 122.439 380.598C117.81 398.734 82.3481 452.712 82.3481 452.712L73.2803 447.309C73.2803 447.309 85.4778 402.458 104.851 378.742C106.041 350.574 103.661 304.14 114.823 288.861L139.885 288.766Z" fill="#407BFF"/>
<path opacity="0.1" d="M139.885 288.766C139.885 288.766 128.841 355.406 122.439 380.598C117.81 398.734 82.3481 452.712 82.3481 452.712L73.2803 447.309C73.2803 447.309 85.4778 402.458 104.851 378.742C106.041 350.574 103.661 304.14 114.823 288.861L139.885 288.766Z" fill="black"/>
<path d="M156.627 232.788C160.625 228.742 164.374 224.577 168.039 220.257C171.704 215.937 175.262 211.546 178.594 206.882L179.225 206.013L179.903 205.001C180.344 204.323 180.748 203.645 181.093 202.966C181.831 201.598 182.45 200.194 183.081 198.873C184.227 196.186 185.232 193.441 186.091 190.65C187.747 185.196 189 179.627 189.84 173.99C189.998 173.371 189.903 172.715 189.578 172.166C189.252 171.617 188.721 171.22 188.103 171.062C187.484 170.905 186.828 170.999 186.279 171.325C185.73 171.651 185.333 172.181 185.175 172.8C183.319 177.929 181.331 183.117 179.225 188.056C178.154 190.543 176.988 192.958 175.75 195.255C175.132 196.445 174.477 197.492 173.799 198.528C173.466 199.051 173.109 199.539 172.763 200.015L172.228 200.693L171.609 201.467C168.158 205.656 164.469 209.797 160.899 213.867C157.329 217.937 153.438 222.006 149.713 225.981C149.251 226.44 148.885 226.986 148.637 227.588C148.389 228.191 148.264 228.837 148.27 229.488C148.275 230.139 148.411 230.783 148.67 231.381C148.928 231.978 149.303 232.519 149.774 232.969C150.244 233.42 150.8 233.771 151.408 234.004C152.017 234.236 152.666 234.344 153.317 234.322C153.968 234.299 154.607 234.147 155.198 233.873C155.789 233.599 156.32 233.21 156.758 232.728L156.627 232.788Z" fill="#F7978D"/>
<path d="M185.247 174.549L184.557 166.707L192.958 170.17C192.958 170.17 192.018 174.823 188.519 176.655L185.247 174.549Z" fill="#F7978D"/>
<path d="M152.855 218.96C151.82 217.544 167.457 205.418 167.457 205.418L170.17 222.863C170.17 222.863 167.052 229.301 162.518 232.812C157.984 236.322 150.975 224.553 152.855 218.96Z" fill="#407BFF"/>
<path d="M190.792 161.911L193.851 164.291C194.192 164.553 194.438 164.919 194.55 165.335C194.662 165.75 194.634 166.191 194.469 166.588L192.958 170.158L184.557 166.695L188.067 162.245C188.386 161.841 188.851 161.58 189.361 161.518C189.871 161.455 190.386 161.597 190.792 161.911Z" fill="#F7978D"/>
<path d="M162.756 224.672C162.899 242.272 159.483 255.993 157.996 268.095C157.805 269.63 157.508 274.711 159.007 285.302C160.028 293.994 160.607 302.732 160.745 311.482L105.445 307.996C107.266 284.279 118.916 269.916 118.904 266.655C118.904 256.826 117.833 246.77 113.549 227.516C113.078 225.384 113.473 223.152 114.646 221.311C115.82 219.47 117.677 218.171 119.809 217.698C120.055 217.638 120.306 217.594 120.558 217.568C122.938 217.258 125.449 216.984 128.055 216.854C133.901 216.413 139.771 216.389 145.62 216.782C149.737 217.139 154.152 217.829 157.306 218.353C158.809 218.603 160.178 219.372 161.174 220.526C162.169 221.681 162.729 223.148 162.756 224.672Z" fill="#407BFF"/>
<path d="M153.51 240.142H152.796L151.856 237.31C151.814 237.184 151.803 237.05 151.823 236.919C151.844 236.789 151.895 236.664 151.973 236.557C152.051 236.45 152.153 236.364 152.272 236.304C152.39 236.244 152.521 236.214 152.653 236.215H153.653C153.785 236.214 153.916 236.244 154.034 236.304C154.152 236.364 154.255 236.45 154.332 236.557C154.41 236.664 154.462 236.789 154.482 236.919C154.503 237.05 154.491 237.184 154.45 237.31L153.51 240.142Z" fill="#263238"/>
<path d="M153.176 237.239C154.261 237.239 155.14 236.359 155.14 235.275C155.14 234.191 154.261 233.312 153.176 233.312C152.092 233.312 151.213 234.191 151.213 235.275C151.213 236.359 152.092 237.239 153.176 237.239Z" fill="#407BFF"/>
<path opacity="0.5" d="M153.177 236.489C153.847 236.489 154.391 235.945 154.391 235.275C154.391 234.604 153.847 234.061 153.177 234.061C152.506 234.061 151.963 234.604 151.963 235.275C151.963 235.945 152.506 236.489 153.177 236.489Z" fill="white"/>
<path d="M158.579 238.857H147.785C146.964 238.857 146.298 239.523 146.298 240.344V245.973C146.298 246.795 146.964 247.461 147.785 247.461H158.579C159.4 247.461 160.066 246.795 160.066 245.973V240.344C160.066 239.523 159.4 238.857 158.579 238.857Z" fill="#407BFF"/>
<path opacity="0.8" d="M158.579 238.857H147.785C146.964 238.857 146.298 239.523 146.298 240.344V245.973C146.298 246.795 146.964 247.461 147.785 247.461H158.579C159.4 247.461 160.066 246.795 160.066 245.973V240.344C160.066 239.523 159.4 238.857 158.579 238.857Z" fill="white"/>
<path d="M158.448 239.333H147.893C147.275 239.333 146.774 239.834 146.774 240.452V245.842C146.774 246.46 147.275 246.961 147.893 246.961H158.448C159.066 246.961 159.567 246.46 159.567 245.842V240.452C159.567 239.834 159.066 239.333 158.448 239.333Z" fill="#407BFF"/>
<path opacity="0.5" d="M158.448 239.333H147.893C147.275 239.333 146.774 239.834 146.774 240.452V245.842C146.774 246.46 147.275 246.961 147.893 246.961H158.448C159.066 246.961 159.567 246.46 159.567 245.842V240.452C159.567 239.834 159.066 239.333 158.448 239.333Z" fill="white"/>
<path d="M151.213 240.463H148.119V243.962H151.213V240.463Z" fill="#407BFF"/>
<path d="M152.522 241.677C152.449 241.677 152.38 241.648 152.328 241.597C152.277 241.546 152.248 241.476 152.248 241.404C152.248 241.331 152.277 241.261 152.328 241.21C152.38 241.159 152.449 241.13 152.522 241.13H158.269C158.342 241.13 158.412 241.159 158.463 241.21C158.514 241.261 158.543 241.331 158.543 241.404C158.543 241.476 158.514 241.546 158.463 241.597C158.412 241.648 158.342 241.677 158.269 241.677H152.522Z" fill="white"/>
<path d="M152.522 245.14C152.449 245.14 152.38 245.111 152.328 245.06C152.277 245.009 152.248 244.939 152.248 244.866C152.248 244.794 152.277 244.724 152.328 244.673C152.38 244.622 152.449 244.593 152.522 244.593H158.269C158.342 244.593 158.412 244.622 158.463 244.673C158.514 244.724 158.543 244.794 158.543 244.866C158.543 244.939 158.514 245.009 158.463 245.06C158.412 245.111 158.342 245.14 158.269 245.14H152.522Z" fill="white"/>
<path d="M152.522 243.426C152.449 243.426 152.38 243.397 152.328 243.346C152.277 243.295 152.248 243.225 152.248 243.153C152.248 243.08 152.277 243.01 152.328 242.959C152.38 242.908 152.449 242.879 152.522 242.879H158.269C158.342 242.879 158.412 242.908 158.463 242.959C158.514 243.01 158.543 243.08 158.543 243.153C158.543 243.225 158.514 243.295 158.463 243.346C158.412 243.397 158.342 243.426 158.269 243.426H152.522Z" fill="white"/>
<path opacity="0.4" d="M145.56 216.83C145.56 216.83 151.784 221.34 144.941 232.3C139.562 226.887 133.915 221.748 128.02 216.901L145.56 216.83Z" fill="white"/>
<path d="M123.367 278.877H122.32C122.117 278.877 121.951 278.769 121.963 278.639L122.439 274.14C122.439 274.009 122.641 273.902 122.843 273.902H123.902C124.105 273.902 124.259 273.998 124.247 274.14L123.783 278.627C123.759 278.769 123.581 278.877 123.367 278.877Z" fill="#407BFF"/>
<path d="M154.592 278.77H153.533C153.331 278.77 153.164 278.663 153.176 278.532L153.652 274.033C153.652 273.903 153.855 273.795 154.057 273.795H155.116C155.318 273.795 155.485 273.903 155.461 274.033L154.997 278.532C154.973 278.651 154.795 278.758 154.592 278.77Z" fill="#407BFF"/>
<path d="M138.98 278.817H137.933C137.719 278.817 137.564 278.71 137.576 278.579L138.052 274.081C138.052 273.95 138.242 273.843 138.456 273.843H139.504C139.706 273.843 139.861 273.95 139.849 274.081L139.385 278.579C139.352 278.657 139.295 278.722 139.222 278.765C139.149 278.808 139.064 278.826 138.98 278.817Z" fill="#407BFF"/>
<path d="M109.647 228.873C107.826 233.216 106.196 237.536 104.66 241.963C103.911 244.164 103.161 246.366 102.518 248.71C101.794 251.096 101.217 253.524 100.793 255.981C100.667 256.741 100.587 257.508 100.555 258.277C100.531 258.875 100.567 259.472 100.662 260.062C100.662 260.289 100.769 260.527 100.841 260.753L100.948 261.169C101.008 261.354 101.084 261.533 101.174 261.705L101.317 261.99V262.121V262.216L101.447 262.407C102.173 263.43 102.816 264.489 103.625 265.453C105.161 267.455 106.865 269.322 108.718 271.034C110.615 272.752 112.703 274.245 114.942 275.485C116.084 276.117 117.279 276.651 118.512 277.079C119.131 277.294 119.773 277.496 120.416 277.663L121.428 277.865C121.808 277.936 122.082 277.972 122.618 278.031L123.308 273.271C123.151 273.176 122.988 273.093 122.82 273.022L122.177 272.7C121.749 272.474 121.32 272.224 120.904 271.962C120.066 271.396 119.26 270.784 118.488 270.13C116.919 268.799 115.474 267.329 114.169 265.739C113.538 264.894 112.871 264.12 112.288 263.204C111.705 262.288 111.098 261.49 110.563 260.622C110.027 259.753 109.516 258.777 108.968 257.861V257.682V257.587V257.671V257.861C108.968 257.98 109.087 258.135 109.111 258.206C109.117 258.277 109.117 258.349 109.111 258.42L109.182 258.694C109.182 258.908 109.182 258.849 109.182 258.694C109.221 258.312 109.293 257.933 109.397 257.563C109.914 255.511 110.533 253.485 111.253 251.494C111.979 249.412 112.741 247.282 113.538 245.176C115.132 240.951 116.787 236.667 118.417 232.466L109.647 228.873Z" fill="#F7978D"/>
<path d="M134.196 269.059L130.947 268C130.713 267.92 130.465 267.887 130.218 267.904C129.971 267.921 129.73 267.986 129.508 268.097C129.287 268.208 129.089 268.361 128.928 268.549C128.766 268.737 128.644 268.955 128.567 269.19C128.46 269.514 128.445 269.862 128.525 270.195C128.605 270.527 128.776 270.83 129.019 271.07L119.761 299.63C119.588 300.172 119.637 300.759 119.895 301.265C120.154 301.771 120.602 302.154 121.142 302.332L121.939 302.593C122.48 302.766 123.068 302.718 123.574 302.459C124.08 302.201 124.463 301.753 124.64 301.213L133.898 272.653C134.234 272.595 134.547 272.447 134.805 272.225C135.062 272.002 135.255 271.715 135.362 271.392C135.513 270.928 135.476 270.423 135.257 269.986C135.039 269.55 134.658 269.217 134.196 269.059Z" fill="#407BFF"/>
<path opacity="0.6" d="M134.196 269.059L130.947 268C130.713 267.92 130.465 267.887 130.218 267.904C129.971 267.921 129.73 267.986 129.508 268.097C129.287 268.208 129.089 268.361 128.928 268.549C128.766 268.737 128.644 268.955 128.567 269.19C128.46 269.514 128.445 269.862 128.525 270.195C128.605 270.527 128.776 270.83 129.019 271.07L119.761 299.63C119.588 300.172 119.637 300.759 119.895 301.265C120.154 301.771 120.602 302.154 121.142 302.332L121.939 302.593C122.48 302.766 123.068 302.718 123.574 302.459C124.08 302.201 124.463 301.753 124.64 301.213L133.898 272.653C134.234 272.595 134.547 272.447 134.805 272.225C135.062 272.002 135.255 271.715 135.362 271.392C135.513 270.928 135.476 270.423 135.257 269.986C135.039 269.55 134.658 269.217 134.196 269.059Z" fill="white"/>
<path d="M129.71 268.035C130.446 268.681 131.328 269.138 132.28 269.368C133.186 269.745 134.172 269.893 135.148 269.797C134.92 269.448 134.58 269.188 134.184 269.059L130.936 268C130.535 267.874 130.103 267.887 129.71 268.035Z" fill="#407BFF"/>
<path d="M127.139 285.315C126.294 285.041 125.687 284.613 125.759 284.339L120.689 299.987C120.641 300.137 120.623 300.294 120.636 300.45C120.649 300.606 120.692 300.759 120.764 300.898C120.836 301.037 120.935 301.161 121.055 301.262C121.175 301.363 121.313 301.439 121.463 301.487L122.26 301.737C122.56 301.834 122.886 301.809 123.167 301.666C123.448 301.523 123.661 301.275 123.759 300.975L128.829 285.327C128.722 285.6 127.972 285.6 127.139 285.315Z" fill="#407BFF"/>
<path d="M128.829 285.326C128.745 285.6 127.984 285.588 127.139 285.326C126.294 285.064 125.663 284.612 125.759 284.339C125.854 284.065 126.603 284.065 127.448 284.339C128.293 284.612 128.924 285.053 128.829 285.326Z" fill="#407BFF"/>
<path opacity="0.3" d="M128.829 285.326C128.745 285.6 127.984 285.588 127.139 285.326C126.294 285.064 125.663 284.612 125.759 284.339C125.854 284.065 126.603 284.065 127.448 284.339C128.293 284.612 128.924 285.053 128.829 285.326Z" fill="black"/>
<g opacity="0.8">
<path opacity="0.8" d="M129.853 271.593C126.79 281.058 123.728 290.518 120.666 299.975C120.648 300.09 120.672 300.207 120.732 300.306C120.793 300.404 120.887 300.478 120.997 300.514C121.108 300.55 121.227 300.545 121.334 300.501C121.441 300.457 121.529 300.376 121.582 300.272C124.637 290.808 127.699 281.348 130.769 271.891C130.787 271.776 130.763 271.659 130.703 271.56C130.642 271.462 130.548 271.388 130.438 271.352C130.327 271.316 130.208 271.321 130.101 271.365C129.994 271.409 129.906 271.49 129.853 271.593Z" fill="white"/>
</g>
<path d="M119.88 277.579L128.519 280.84L129.9 272.51C129.9 272.51 124.866 271.32 121.784 273.7L119.88 277.579Z" fill="#F7978D"/>
<path d="M133.72 280.186L134.91 277.175C135.131 276.597 135.118 275.955 134.873 275.386C134.629 274.818 134.172 274.366 133.601 274.129L129.876 272.582L128.52 280.84L130.9 281.578C131.459 281.729 132.053 281.67 132.572 281.414C133.092 281.158 133.5 280.721 133.72 280.186Z" fill="#F7978D"/>
<path d="M128.71 222.316C131.09 232.514 115.037 249.686 115.037 249.686L102.007 235.62C102.007 235.62 108.29 222.78 116.287 218.865C121.844 216.152 127.663 217.77 128.71 222.316Z" fill="#407BFF"/>
<path d="M129.71 197.124C130.9 202.764 131.995 213.105 128.056 216.889C134.105 219.391 139.662 222.949 144.466 227.397C148.881 219.603 145.656 216.818 145.656 216.818C139.361 215.342 139.492 210.666 140.574 206.275L129.71 197.124Z" fill="#F7978D"/>
<path opacity="0.2" d="M130.899 198.123C130.993 201.481 131.804 204.78 133.279 207.798C134.315 209.88 137.135 210.797 139.991 211.011C139.922 209.406 140.103 207.8 140.527 206.251L130.899 198.123Z" fill="black"/>
<path d="M137.373 171.086C137.111 170.408 137.884 169.777 138.563 169.599C139.538 169.352 140.568 169.436 141.491 169.837C142.413 170.239 143.177 170.935 143.661 171.817C144.146 172.699 144.324 173.717 144.168 174.711C144.012 175.705 143.531 176.619 142.799 177.31C143.037 176.762 144.144 176.12 144.667 176.382C145.164 176.719 145.52 177.227 145.667 177.81C145.873 178.298 145.935 178.835 145.846 179.357C145.803 179.62 145.679 179.864 145.491 180.053C145.303 180.243 145.061 180.37 144.798 180.416C146.015 181.454 146.921 182.809 147.416 184.331C147.616 185.107 147.571 185.926 147.288 186.676C147.005 187.425 146.497 188.069 145.834 188.52C147.226 189.555 148.523 190.971 148.38 192.697C148.297 193.567 147.998 194.403 147.509 195.128C147.021 195.853 146.359 196.445 145.584 196.85C146.357 198.325 147.797 199.956 147.095 201.455C146.214 203.323 143.406 203.93 143.013 205.953C143.787 206.155 144.596 206.203 145.393 206.405C145.646 206.924 145.764 207.499 145.735 208.075C145.706 208.651 145.531 209.211 145.227 209.702C144.822 210.201 144.037 209.88 143.394 209.856C143.075 209.806 142.749 209.835 142.443 209.941C142.138 210.047 141.864 210.226 141.645 210.463C141.54 210.644 141.485 210.849 141.485 211.058C141.485 211.267 141.54 211.472 141.645 211.653C142.583 212.13 143.598 212.437 144.644 212.558C143.849 212.742 143.026 212.768 142.221 212.633C141.416 212.498 140.646 212.206 139.955 211.772C139.273 211.364 138.701 210.797 138.286 210.119C137.872 209.442 137.628 208.674 137.575 207.881C137.575 205.703 139.229 203.93 140.812 202.419C141.121 202.121 141.562 201.562 141.181 201.36C140.983 201.278 140.77 201.235 140.556 201.235C140.342 201.235 140.129 201.278 139.931 201.36C139.535 201.533 139.099 201.594 138.67 201.538C137.959 200.77 137.354 199.909 136.873 198.98C136.337 198.059 136.188 196.964 136.456 195.933C136.726 195.22 137.13 194.566 137.646 194.006C138.02 193.487 138.483 193.04 139.015 192.685C139.634 192.328 140.467 192.102 140.645 191.411C140.687 191.117 140.626 190.818 140.471 190.564C140.317 190.31 140.08 190.118 139.8 190.019C139.237 189.829 138.646 189.732 138.051 189.733C137.45 189.731 136.872 189.502 136.433 189.091C135.933 188.52 135.362 187.413 135.671 186.711C135.883 186.365 136.162 186.066 136.492 185.83C137.681 184.604 138.505 183.071 138.872 181.403C138.924 181.241 138.924 181.066 138.872 180.904C138.753 180.523 138.206 180.487 137.873 180.701C137.58 180.96 137.302 181.234 137.04 181.522C136.742 181.772 136.23 181.879 135.992 181.522C135.362 180.701 129.626 178.131 134.433 172.645C134.838 172.181 134.933 171.515 135.409 171.122C135.7 170.932 136.038 170.827 136.386 170.821C136.733 170.815 137.075 170.907 137.373 171.086Z" fill="#263238"/>
<path d="M120.654 190.091C123.427 199.135 124.343 203.014 130.174 206.632C138.825 212.058 149.321 206.715 149.357 197.112C149.357 188.401 144.847 175.085 135.077 173.562C132.907 173.211 130.683 173.421 128.617 174.172C126.551 174.923 124.711 176.19 123.273 177.852C121.835 179.515 120.846 181.517 120.4 183.67C119.954 185.822 120.066 188.053 120.725 190.15L120.654 190.091Z" fill="#F7978D"/>
<path d="M117.167 174.216C117.274 173.49 116.369 173.026 115.643 173.026C114.633 173.001 113.642 173.313 112.829 173.914C112.016 174.514 111.426 175.369 111.153 176.342C110.88 177.316 110.939 178.353 111.322 179.289C111.704 180.225 112.387 181.006 113.263 181.511C112.906 181.023 111.681 180.618 111.24 181.023C110.835 181.466 110.602 182.04 110.586 182.641C110.5 183.167 110.562 183.707 110.764 184.2C110.872 184.443 111.05 184.648 111.274 184.79C111.499 184.931 111.76 185.004 112.026 184.997C111.083 186.286 110.511 187.809 110.372 189.4C110.358 190.202 110.592 190.989 111.041 191.653C111.49 192.317 112.133 192.827 112.883 193.113C111.764 194.446 110.824 196.112 111.359 197.766C111.639 198.593 112.12 199.338 112.76 199.932C113.4 200.527 114.179 200.952 115.025 201.169C114.608 202.776 113.573 204.739 114.608 206.001C115.893 207.619 118.761 207.56 119.606 209.44C118.904 209.809 118.13 210.047 117.428 210.416C117.294 210.977 117.307 211.565 117.468 212.12C117.628 212.674 117.931 213.178 118.345 213.581C118.844 213.986 119.535 213.486 120.153 213.319C120.453 213.198 120.778 213.151 121.099 213.185C121.421 213.218 121.73 213.329 121.998 213.51C122.155 213.66 122.268 213.85 122.325 214.06C122.381 214.27 122.379 214.491 122.319 214.7C122.188 215.116 120.118 216.08 119.606 216.27C121.256 216.262 122.836 215.599 123.997 214.426C124.566 213.875 124.992 213.194 125.239 212.441C125.486 211.688 125.546 210.887 125.413 210.106C124.949 207.976 122.89 206.631 121.01 205.525C120.641 205.311 120.082 204.87 120.403 204.585C120.753 204.349 121.176 204.252 121.593 204.311C122.015 204.396 122.453 204.359 122.855 204.204C123.385 203.296 123.785 202.319 124.045 201.3C124.201 200.797 124.256 200.267 124.207 199.743C124.158 199.218 124.006 198.708 123.759 198.242C123.327 197.604 122.773 197.058 122.129 196.635C121.641 196.222 121.085 195.896 120.487 195.672C119.808 195.469 118.94 195.445 118.618 194.815C118.507 194.537 118.497 194.23 118.588 193.945C118.679 193.661 118.867 193.417 119.118 193.256C119.627 192.945 120.181 192.716 120.76 192.578C121.344 192.44 121.854 192.087 122.188 191.59C122.417 191.221 122.554 190.803 122.589 190.371C122.625 189.938 122.556 189.504 122.391 189.103C122.103 188.813 121.759 188.586 121.379 188.436C119.966 187.494 118.835 186.186 118.107 184.652C118.008 184.512 117.95 184.347 117.94 184.176C117.94 183.783 118.499 183.617 118.868 183.748C119.215 183.931 119.549 184.138 119.868 184.367C120.225 184.545 120.737 184.521 120.903 184.164C121.32 183.236 126.318 179.404 120.38 175.168C119.892 174.811 119.63 174.18 119.094 173.918C118.778 173.781 118.429 173.737 118.088 173.789C117.747 173.842 117.427 173.99 117.167 174.216Z" fill="#263238"/>
<path d="M126.592 171.634C132.649 166.076 139.325 168.313 142.824 170.134C144.583 171.061 146.128 172.347 147.358 173.909C148.588 175.471 149.476 177.275 149.964 179.202C150.333 180.713 149.964 184.212 147.025 185.152C146.206 183.392 145.059 181.804 143.645 180.475C141.455 178.738 137.362 178.559 135.731 179.047C134.152 182.79 132.005 186.266 129.365 189.353C126.771 192.221 122.951 194.255 119.131 193.72C117.344 191.522 116.186 188.881 115.78 186.077C115.373 183.274 115.733 180.413 116.822 177.798C119.167 172.657 126.592 171.634 126.592 171.634Z" fill="#263238"/>
<path d="M118.607 195.16C118.866 196.033 119.298 196.844 119.877 197.548C120.455 198.251 121.168 198.831 121.975 199.254C124.117 200.348 125.687 198.563 125.545 196.279C125.378 194.22 124.057 191.162 121.701 190.995C121.19 190.971 120.682 191.074 120.221 191.295C119.76 191.515 119.36 191.847 119.059 192.259C118.757 192.672 118.562 193.153 118.492 193.659C118.421 194.165 118.477 194.681 118.654 195.16H118.607Z" fill="#F7978D"/>
<path d="M134.707 189.579C134.886 190.329 135.421 190.84 135.897 190.769C136.373 190.698 136.623 189.948 136.457 189.21C136.29 188.472 135.731 187.949 135.267 188.02C134.803 188.092 134.529 188.829 134.707 189.579Z" fill="#263238"/>
<path d="M143.157 187.58C143.323 188.329 143.859 188.841 144.347 188.77C144.835 188.698 145.085 187.96 144.906 187.199C144.728 186.437 144.192 185.949 143.716 186.009C143.24 186.068 142.966 186.83 143.157 187.58Z" fill="#263238"/>
<path d="M143.514 186.104L145.18 185.164C145.18 185.164 144.597 186.83 143.514 186.104Z" fill="#263238"/>
<path d="M141.253 189.389C142.322 190.933 143.595 192.326 145.037 193.53C144.73 193.904 144.342 194.205 143.904 194.411C143.466 194.617 142.987 194.722 142.502 194.72L141.253 189.389Z" fill="#FF5652"/>
<path d="M140.646 197.54C140.683 197.507 140.709 197.463 140.719 197.415C140.729 197.366 140.723 197.316 140.701 197.271C140.679 197.226 140.643 197.19 140.599 197.168C140.555 197.145 140.504 197.138 140.455 197.147C139.539 197.419 138.571 197.471 137.63 197.3C136.69 197.128 135.803 196.738 135.041 196.16C134.996 196.13 134.941 196.118 134.888 196.126C134.835 196.133 134.786 196.159 134.75 196.199C134.714 196.239 134.694 196.291 134.692 196.345C134.691 196.399 134.709 196.451 134.743 196.493C135.557 197.132 136.514 197.565 137.532 197.753C138.549 197.942 139.597 197.881 140.586 197.576L140.646 197.54Z" fill="#263238"/>
<path d="M132.089 187.163C132.153 187.115 132.206 187.054 132.244 186.985C132.455 186.461 132.787 185.995 133.214 185.625C133.64 185.254 134.148 184.99 134.696 184.855C134.756 184.847 134.814 184.828 134.866 184.797C134.919 184.767 134.965 184.726 135.001 184.677C135.038 184.629 135.064 184.573 135.079 184.515C135.093 184.456 135.096 184.394 135.086 184.334C135.077 184.274 135.055 184.217 135.023 184.166C134.991 184.114 134.948 184.07 134.898 184.035C134.849 184 134.792 183.976 134.733 183.963C134.674 183.951 134.612 183.95 134.553 183.962C133.855 184.121 133.206 184.445 132.659 184.907C132.112 185.368 131.684 185.954 131.411 186.616C131.388 186.671 131.376 186.731 131.376 186.791C131.376 186.851 131.388 186.91 131.411 186.966C131.435 187.021 131.469 187.071 131.511 187.113C131.554 187.155 131.605 187.189 131.661 187.211C131.73 187.241 131.806 187.253 131.882 187.245C131.957 187.236 132.029 187.208 132.089 187.163Z" fill="#263238"/>
<path d="M145.56 183.938H145.62C145.662 183.896 145.696 183.846 145.719 183.791C145.742 183.736 145.754 183.677 145.754 183.617C145.754 183.557 145.742 183.498 145.719 183.443C145.696 183.388 145.662 183.338 145.62 183.296C145.111 182.808 144.495 182.446 143.821 182.24C143.148 182.033 142.435 181.987 141.74 182.106C141.626 182.134 141.527 182.206 141.465 182.306C141.403 182.406 141.382 182.526 141.407 182.641C141.421 182.699 141.446 182.754 141.481 182.802C141.516 182.85 141.561 182.891 141.611 182.922C141.662 182.952 141.719 182.973 141.778 182.982C141.836 182.991 141.896 182.989 141.954 182.974C142.512 182.879 143.085 182.918 143.625 183.088C144.165 183.257 144.657 183.553 145.06 183.95C145.134 184.001 145.222 184.027 145.312 184.025C145.402 184.023 145.488 183.992 145.56 183.938Z" fill="#263238"/>
<path d="M135.064 188.115L136.742 187.163C136.742 187.163 136.159 188.793 135.064 188.115Z" fill="#263238"/>
<path d="M226.1 458.781C225.627 458.781 225.173 458.593 224.838 458.258C224.503 457.923 224.315 457.469 224.315 456.996V119.155C224.315 118.681 224.503 118.227 224.838 117.892C225.173 117.558 225.627 117.37 226.1 117.37C226.574 117.37 227.028 117.558 227.363 117.892C227.697 118.227 227.885 118.681 227.885 119.155V456.96C227.89 457.197 227.848 457.433 227.76 457.654C227.672 457.875 227.542 458.076 227.375 458.245C227.209 458.415 227.011 458.549 226.792 458.641C226.573 458.733 226.338 458.781 226.1 458.781Z" fill="#263238"/>
<path d="M268.631 139.075H183.915C183.441 139.075 182.987 138.887 182.653 138.553C182.318 138.218 182.13 137.764 182.13 137.29C182.13 136.817 182.318 136.363 182.653 136.028C182.987 135.693 183.441 135.505 183.915 135.505H268.631C269.104 135.505 269.558 135.693 269.893 136.028C270.228 136.363 270.416 136.817 270.416 137.29C270.416 137.764 270.228 138.218 269.893 138.553C269.558 138.887 269.104 139.075 268.631 139.075Z" fill="#263238"/>
<path d="M202.3 476.464L222.197 474.501V442.371H230.087V474.501L250.067 476.464C251.023 476.559 251.91 477.006 252.555 477.719C253.199 478.432 253.555 479.359 253.554 480.32V483.307H198.73V480.32C198.731 479.346 199.098 478.407 199.76 477.693C200.422 476.978 201.329 476.539 202.3 476.464Z" fill="#263238"/>
<path opacity="0.2" d="M202.3 476.464L222.197 474.501V442.371H230.087V474.501L250.067 476.464C251.023 476.559 251.91 477.006 252.555 477.719C253.199 478.432 253.555 479.359 253.554 480.32V483.307H198.73V480.32C198.731 479.346 199.098 478.407 199.76 477.693C200.422 476.978 201.329 476.539 202.3 476.464Z" fill="white"/>
<path d="M246.259 487.007C246.256 488.029 246.557 489.029 247.123 489.88C247.689 490.731 248.495 491.394 249.439 491.787C250.382 492.18 251.421 492.284 252.424 492.086C253.426 491.888 254.348 491.397 255.071 490.675C255.795 489.953 256.288 489.033 256.488 488.031C256.688 487.029 256.587 485.99 256.196 485.045C255.805 484.101 255.144 483.294 254.294 482.726C253.444 482.158 252.445 481.855 251.423 481.855C250.746 481.853 250.074 481.985 249.448 482.243C248.821 482.502 248.252 482.881 247.772 483.359C247.292 483.838 246.912 484.407 246.652 485.033C246.392 485.659 246.259 486.33 246.259 487.007Z" fill="#263238"/>
<path d="M206.037 487.007C206.04 488.03 205.738 489.03 205.172 489.881C204.605 490.732 203.799 491.396 202.855 491.788C201.91 492.181 200.871 492.284 199.868 492.085C198.865 491.886 197.944 491.394 197.221 490.671C196.498 489.948 196.006 489.027 195.807 488.024C195.608 487.021 195.711 485.981 196.103 485.037C196.496 484.093 197.16 483.287 198.011 482.72C198.862 482.153 199.862 481.852 200.884 481.855C201.561 481.855 202.231 481.988 202.856 482.247C203.482 482.506 204.05 482.885 204.528 483.364C205.006 483.842 205.386 484.41 205.645 485.035C205.904 485.66 206.037 486.331 206.037 487.007Z" fill="#263238"/>
<path d="M214.974 185.711C213.558 188.437 211.404 190.828 210.892 190.828C210.713 190.828 210.487 191.328 210.261 192.018C209.95 192.932 209.357 193.723 208.568 194.279C207.779 194.835 206.835 195.126 205.87 195.112H195.862C194.897 195.126 193.953 194.835 193.164 194.279C192.375 193.723 191.783 192.932 191.471 192.018C191.257 191.364 191.031 190.828 190.84 190.828C190.305 190.828 188.175 188.448 186.759 185.711C185.343 182.974 186.937 172.752 187.651 168.825C188.365 164.898 185.343 156.378 187.651 152.963C189.627 150.035 212.106 150.035 214.081 152.963C216.39 156.378 213.379 164.863 214.081 168.825C214.783 172.788 216.39 182.986 214.974 185.711Z" fill="#407BFF"/>
<path opacity="0.5" d="M214.974 185.711C213.558 188.437 211.404 190.828 210.892 190.828C210.713 190.828 210.487 191.328 210.261 192.018C209.95 192.932 209.357 193.723 208.568 194.279C207.779 194.835 206.835 195.126 205.87 195.112H195.862C194.897 195.126 193.953 194.835 193.164 194.279C192.375 193.723 191.783 192.932 191.471 192.018C191.257 191.364 191.031 190.828 190.84 190.828C190.305 190.828 188.175 188.448 186.759 185.711C185.343 182.974 186.937 172.752 187.651 168.825C188.365 164.898 185.343 156.378 187.651 152.963C189.627 150.035 212.106 150.035 214.081 152.963C216.39 156.378 213.379 164.863 214.081 168.825C214.783 172.788 216.39 182.986 214.974 185.711Z" fill="white"/>
<path d="M204.68 146.679H196.957L194.577 151.154H207.06L204.68 146.679ZM200.991 149.94C199.028 149.94 197.421 149.44 197.421 148.845C197.421 148.25 199.016 147.75 200.991 147.75C202.967 147.75 204.561 148.238 204.561 148.845C204.561 149.452 202.955 149.94 200.991 149.94Z" fill="#407BFF"/>
<path d="M189.639 168.837C190.258 165.267 187.628 157.568 189.639 154.474C191.365 151.82 210.916 151.82 212.654 154.474C214.653 157.568 212.035 165.279 212.654 168.837C213.273 172.395 214.653 181.653 213.415 184.128C212.178 186.604 210.333 188.758 209.845 188.758C209.691 188.758 209.488 189.222 209.298 189.817C209.101 190.453 208.747 191.029 208.268 191.493C207.79 191.957 207.203 192.293 206.561 192.47L206.68 198.646C206.68 198.912 206.575 199.166 206.387 199.353C206.2 199.541 205.945 199.646 205.68 199.646C205.414 199.646 205.159 199.541 204.969 199.354C204.78 199.167 204.672 198.913 204.669 198.646L204.586 193.815C204.586 193.499 204.46 193.197 204.237 192.974C204.014 192.75 203.711 192.625 203.396 192.625H203.288C202.973 192.625 202.67 192.75 202.447 192.974C202.224 193.197 202.098 193.499 202.098 193.815L202.182 198.575C202.182 198.84 202.076 199.094 201.889 199.282C201.702 199.469 201.447 199.575 201.182 199.575C200.917 199.575 200.663 199.469 200.475 199.282C200.288 199.094 200.183 198.84 200.183 198.575L200.087 193.744C200.087 193.428 199.962 193.125 199.739 192.902C199.516 192.679 199.213 192.554 198.897 192.554H198.255C197.939 192.554 197.637 192.679 197.413 192.902C197.19 193.125 197.065 193.428 197.065 193.744L197.16 198.504C197.133 198.752 197.015 198.981 196.83 199.147C196.644 199.314 196.404 199.406 196.154 199.406C195.905 199.406 195.665 199.314 195.479 199.147C195.293 198.981 195.176 198.752 195.149 198.504L195.03 192.018C194.563 191.771 194.15 191.433 193.815 191.024C193.48 190.616 193.23 190.144 193.078 189.638C192.888 189.043 192.686 188.579 192.531 188.579C192.067 188.579 190.21 186.413 188.961 183.95C187.711 181.487 189.104 172.205 189.722 168.658" fill="white"/>
<path d="M209.786 163.03C209.786 163.816 209.167 164.22 207.965 164.22H205.585V159.674H207.798C208.988 159.674 209.524 160.15 209.524 160.864C209.529 161.072 209.475 161.276 209.367 161.453C209.259 161.63 209.103 161.773 208.917 161.864C209.17 161.935 209.393 162.088 209.55 162.299C209.707 162.51 209.79 162.767 209.786 163.03ZM206.668 160.519V161.59H207.715C208.227 161.59 208.5 161.4 208.5 161.043C208.5 160.686 208.227 160.519 207.715 160.519H206.668ZM208.727 162.899C208.727 162.518 208.441 162.34 207.894 162.34H206.704V163.459H207.894C208.441 163.459 208.727 163.292 208.727 162.899Z" fill="black"/>
<path d="M212.654 168.837C213.261 172.407 214.653 181.653 213.415 184.129C212.178 186.604 210.333 188.758 209.845 188.758C209.691 188.758 209.488 189.222 209.298 189.817C209.101 190.453 208.747 191.03 208.268 191.493C207.79 191.957 207.203 192.293 206.561 192.471L206.68 198.647C206.68 198.912 206.575 199.166 206.387 199.354C206.2 199.541 205.945 199.646 205.68 199.646C205.414 199.646 205.159 199.541 204.969 199.354C204.78 199.167 204.672 198.913 204.669 198.647L204.586 193.815C204.586 193.5 204.46 193.197 204.237 192.974C204.014 192.751 203.711 192.625 203.396 192.625H203.288C202.973 192.625 202.67 192.751 202.447 192.974C202.224 193.197 202.098 193.5 202.098 193.815L202.182 198.575C202.182 198.84 202.076 199.095 201.889 199.282C201.702 199.47 201.447 199.575 201.182 199.575C200.917 199.575 200.663 199.47 200.475 199.282C200.288 199.095 200.183 198.84 200.183 198.575L200.087 193.744C200.087 193.428 199.962 193.126 199.739 192.902C199.516 192.679 199.213 192.554 198.897 192.554H198.255C197.939 192.554 197.637 192.679 197.413 192.902C197.19 193.126 197.065 193.428 197.065 193.744L197.16 198.504C197.133 198.752 197.015 198.981 196.83 199.147C196.644 199.314 196.404 199.406 196.154 199.406C195.905 199.406 195.665 199.314 195.479 199.147C195.293 198.981 195.176 198.752 195.149 198.504L195.03 192.018C194.563 191.771 194.15 191.433 193.815 191.024C193.48 190.616 193.23 190.145 193.078 189.638C192.888 189.043 192.686 188.579 192.531 188.579C192.067 188.579 190.21 186.413 188.961 183.95C187.711 181.487 189.104 172.205 189.722 168.659C193.254 170.579 197.21 171.585 201.23 171.585C205.25 171.585 209.206 170.579 212.737 168.659L212.654 168.837Z" fill="#407BFF"/>
<path opacity="0.2" d="M194.352 197.1H197.755V199.182C197.752 199.53 197.611 199.863 197.364 200.108C197.117 200.354 196.782 200.491 196.434 200.491H195.661C195.313 200.491 194.98 200.353 194.735 200.108C194.489 199.862 194.352 199.529 194.352 199.182V197.1Z" fill="white"/>
<path opacity="0.2" d="M204.014 197.1H207.405V199.182C207.405 199.529 207.267 199.862 207.022 200.108C206.776 200.353 206.443 200.491 206.096 200.491H205.323C204.975 200.491 204.643 200.353 204.397 200.108C204.152 199.862 204.014 199.529 204.014 199.182V197.1Z" fill="white"/>
<path d="M204.823 150.476C203.616 150.472 202.458 149.991 201.604 149.137C200.75 148.283 200.269 147.126 200.266 145.918V137.29C200.266 137.133 200.328 136.981 200.44 136.87C200.551 136.758 200.703 136.695 200.861 136.695C201.018 136.695 201.17 136.758 201.281 136.87C201.393 136.981 201.456 137.133 201.456 137.29V145.918C201.456 146.811 201.81 147.668 202.442 148.299C203.074 148.931 203.93 149.286 204.823 149.286C205.716 149.286 206.573 148.931 207.205 148.299C207.836 147.668 208.191 146.811 208.191 145.918V144.847C208.191 144.689 208.254 144.538 208.365 144.426C208.477 144.314 208.628 144.252 208.786 144.252C208.944 144.252 209.095 144.314 209.207 144.426C209.318 144.538 209.381 144.689 209.381 144.847V145.918C209.378 147.126 208.897 148.283 208.043 149.137C207.189 149.991 206.031 150.472 204.823 150.476Z" fill="#407BFF"/>
<path d="M295.394 311.923H278.734C268.474 311.926 258.313 309.907 248.834 305.982C239.354 302.057 230.74 296.303 223.485 289.048C216.23 281.793 210.476 273.179 206.551 263.699C202.626 254.22 200.607 244.059 200.61 233.799V199.003H201.8V233.799C201.797 243.903 203.785 253.908 207.65 263.244C211.515 272.579 217.182 281.062 224.327 288.206C231.471 295.351 239.954 301.018 249.289 304.883C258.624 308.748 268.63 310.736 278.734 310.733H295.394V311.923Z" fill="#407BFF"/>
<path d="M299.856 312.41H290.884L291.55 310.245H300.392L299.856 312.41Z" fill="white"/>
<path d="M298.929 309.138C297.108 309.757 295.109 312.839 294.919 314.41H292.896C292.896 312.637 295.002 309.65 296.918 309.138H298.929Z" fill="#407BFF"/>
</svg>
