<svg width="595" height="595" viewBox="0 0 595 595" fill="none" xmlns="http://www.w3.org/2000/svg">
<path d="M595 455.056H0V455.354H595V455.056Z" fill="#EBEBEB"/>
<path d="M535.381 474.203H495.968V474.501H535.381V474.203Z" fill="#EBEBEB"/>
<path d="M325.132 470.479H309.793V470.776H325.132V470.479Z" fill="#EBEBEB"/>
<path d="M416.107 471.74H383.811V472.038H416.107V471.74Z" fill="#EBEBEB"/>
<path d="M494.779 463.16H428.008V463.458H494.779V463.16Z" fill="#EBEBEB"/>
<path d="M93.9984 476.928H62.4277V477.226H93.9984V476.928Z" fill="#EBEBEB"/>
<path d="M131.959 476.928H104.589V477.226H131.959V476.928Z" fill="#EBEBEB"/>
<path d="M228.254 470.336H155.89V470.633H228.254V470.336Z" fill="#EBEBEB"/>
<path d="M282.03 401.982H52.2527C50.4527 401.979 48.7274 401.262 47.4557 399.988C46.184 398.714 45.4697 396.987 45.4697 395.187V72.1856C45.4854 70.3959 46.2066 68.6846 47.4766 67.4235C48.7466 66.1624 50.4629 65.4533 52.2527 65.4502H282.03C283.832 65.4502 285.56 66.1661 286.835 67.4404C288.109 68.7147 288.825 70.443 288.825 72.2451V395.187C288.825 396.989 288.109 398.718 286.835 399.992C285.56 401.266 283.832 401.982 282.03 401.982ZM52.2527 65.6882C50.5316 65.6913 48.882 66.3773 47.6661 67.5954C46.4501 68.8136 45.7672 70.4644 45.7672 72.1856V395.187C45.7672 396.908 46.4501 398.559 47.6661 399.777C48.882 400.996 50.5316 401.682 52.2527 401.685H282.03C283.752 401.682 285.403 400.996 286.621 399.778C287.839 398.56 288.524 396.91 288.527 395.187V72.1856C288.524 70.4633 287.839 68.8125 286.621 67.5947C285.403 66.3769 283.752 65.6913 282.03 65.6882H52.2527Z" fill="#EBEBEB"/>
<path d="M539.439 401.982H309.65C307.849 401.979 306.123 401.262 304.849 399.989C303.576 398.715 302.859 396.988 302.855 395.187V72.1856C302.874 70.3948 303.598 68.6835 304.87 67.4227C306.142 66.1619 307.859 65.4532 309.65 65.4502H539.439C541.227 65.4564 542.94 66.1669 544.208 67.4277C545.475 68.6884 546.195 70.3979 546.21 72.1856V395.187C546.21 396.985 545.498 398.71 544.229 399.984C542.96 401.257 541.237 401.976 539.439 401.982ZM309.65 65.6882C307.928 65.6913 306.277 66.3769 305.059 67.5947C303.842 68.8125 303.156 70.4633 303.153 72.1856V395.187C303.156 396.91 303.842 398.56 305.059 399.778C306.277 400.996 307.928 401.682 309.65 401.685H539.439C541.162 401.682 542.812 400.996 544.03 399.778C545.248 398.56 545.934 396.91 545.937 395.187V72.1856C545.934 70.4633 545.248 68.8125 544.03 67.5947C542.812 66.3769 541.162 65.6913 539.439 65.6882H309.65Z" fill="#EBEBEB"/>
<path d="M531.133 92.8203H351.026V455.056H531.133V92.8203Z" fill="#FAFAFA"/>
<path d="M473.203 139.23H408.943V228.873H473.203V139.23Z" fill="white"/>
<path d="M531.121 455.056H532.239V92.8201H531.121V455.056Z" fill="#EBEBEB"/>
<path d="M522.196 455.056H521.006V102.935H361.141V455.056H359.951V101.745H522.196V455.056Z" fill="#E0E0E0"/>
<path d="M508.356 280.638H483.521C483.024 280.666 482.527 280.593 482.06 280.423C481.593 280.252 481.166 279.988 480.804 279.647C480.442 279.305 480.154 278.893 479.958 278.437C479.761 277.98 479.659 277.488 479.659 276.991C479.659 276.493 479.761 276.001 479.958 275.545C480.154 275.088 480.442 274.676 480.804 274.335C481.166 273.993 481.593 273.729 482.06 273.559C482.527 273.388 483.024 273.315 483.521 273.343H508.356C508.853 273.315 509.35 273.388 509.817 273.559C510.284 273.729 510.712 273.993 511.073 274.335C511.435 274.676 511.723 275.088 511.92 275.545C512.116 276.001 512.218 276.493 512.218 276.991C512.218 277.488 512.116 277.98 511.92 278.437C511.723 278.893 511.435 279.305 511.073 279.647C510.712 279.988 510.284 280.252 509.817 280.423C509.35 280.593 508.853 280.666 508.356 280.638ZM483.521 274.533C483.184 274.51 482.846 274.556 482.527 274.669C482.209 274.782 481.917 274.959 481.67 275.189C481.422 275.42 481.225 275.699 481.091 276.009C480.956 276.319 480.886 276.653 480.886 276.991C480.886 277.329 480.956 277.663 481.091 277.973C481.225 278.283 481.422 278.562 481.67 278.792C481.917 279.022 482.209 279.2 482.527 279.313C482.846 279.425 483.184 279.472 483.521 279.448H508.356C508.693 279.472 509.032 279.425 509.35 279.313C509.669 279.2 509.96 279.022 510.208 278.792C510.455 278.562 510.652 278.283 510.786 277.973C510.921 277.663 510.991 277.329 510.991 276.991C510.991 276.653 510.921 276.319 510.786 276.009C510.652 275.699 510.455 275.42 510.208 275.189C509.96 274.959 509.669 274.782 509.35 274.669C509.032 274.556 508.693 274.51 508.356 274.533H483.521Z" fill="#E0E0E0"/>
<path d="M234.121 194.494H66.6045V208.869H234.121V194.494Z" fill="#FAFAFA"/>
<path d="M234.108 208.869H68.7461V455.056H234.108V208.869Z" fill="#FAFAFA"/>
<path d="M234.121 455.056H246.259L246.259 194.506H234.121L234.121 455.056Z" fill="#F0F0F0"/>
<path d="M146.596 223.149H82.6338V368.626H146.596V223.149Z" fill="#F0F0F0"/>
<path d="M128.318 223.149H113.312L100.912 368.615H115.906L128.318 223.149Z" fill="white"/>
<path d="M218.151 443.87H84.716C83.9658 443.867 83.2472 443.568 82.7168 443.037C82.1863 442.507 81.8869 441.788 81.8838 441.038V380.348C81.8869 379.598 82.1863 378.879 82.7168 378.349C83.2472 377.818 83.9658 377.519 84.716 377.516H218.151C218.901 377.519 219.619 377.818 220.15 378.349C220.68 378.879 220.98 379.598 220.983 380.348V441.038C220.98 441.788 220.68 442.507 220.15 443.037C219.619 443.568 218.901 443.867 218.151 443.87ZM84.716 378.944C84.3603 378.947 84.0201 379.089 83.7686 379.341C83.5171 379.592 83.3744 379.933 83.3713 380.288V440.978C83.3744 441.334 83.5171 441.674 83.7686 441.926C84.0201 442.177 84.3603 442.32 84.716 442.323H218.151C218.506 442.32 218.847 442.177 219.098 441.926C219.35 441.674 219.492 441.334 219.495 440.978V380.288C219.492 379.933 219.35 379.592 219.098 379.341C218.847 379.089 218.506 378.947 218.151 378.944H84.716Z" fill="#F0F0F0"/>
<path d="M209.44 392.117C208.823 392.117 208.22 391.934 207.707 391.591C207.194 391.248 206.794 390.76 206.558 390.19C206.323 389.619 206.262 388.992 206.383 388.387C206.504 387.781 206.802 387.226 207.24 386.79C207.677 386.355 208.234 386.059 208.839 385.94C209.445 385.821 210.072 385.884 210.641 386.122C211.211 386.36 211.697 386.761 212.038 387.276C212.379 387.79 212.56 388.394 212.558 389.011C212.558 389.42 212.477 389.825 212.32 390.202C212.163 390.58 211.934 390.923 211.644 391.211C211.354 391.5 211.01 391.729 210.632 391.884C210.254 392.039 209.849 392.119 209.44 392.117ZM209.44 387.357C209.118 387.357 208.802 387.453 208.534 387.632C208.266 387.811 208.057 388.065 207.934 388.363C207.81 388.661 207.778 388.989 207.841 389.305C207.904 389.622 208.059 389.912 208.287 390.14C208.515 390.368 208.806 390.523 209.122 390.586C209.438 390.649 209.766 390.617 210.064 390.493C210.362 390.37 210.616 390.161 210.796 389.893C210.975 389.625 211.07 389.31 211.07 388.987C211.069 388.775 211.025 388.565 210.943 388.369C210.86 388.173 210.739 387.996 210.588 387.846C210.437 387.697 210.257 387.579 210.06 387.499C209.863 387.42 209.653 387.379 209.44 387.381V387.357Z" fill="#F0F0F0"/>
<path d="M84.2879 223.149H82.6338V368.626H84.2879V223.149Z" fill="#EBEBEB"/>
<path d="M220.233 223.149H156.271V368.626H220.233V223.149Z" fill="#F0F0F0"/>
<path d="M185.902 223.149H179.726L167.326 368.615H173.502L185.902 223.149Z" fill="white"/>
<path d="M195.195 223.149H189.019L176.607 368.615H182.784L195.195 223.149Z" fill="white"/>
<path d="M157.925 223.149H156.271V368.626H157.925V223.149Z" fill="#EBEBEB"/>
<path d="M234.108 208.869H68.7461V210.69H234.108V208.869Z" fill="#EBEBEB"/>
<path d="M266.953 90.083H95.2002V172.99H266.953V90.083Z" fill="#FAFAFA"/>
<path d="M203.133 162.328C197.044 162.328 191.092 160.522 186.03 157.14C180.967 153.757 177.021 148.949 174.691 143.324C172.361 137.698 171.751 131.508 172.939 125.537C174.127 119.565 177.059 114.08 181.364 109.774C185.67 105.469 191.155 102.537 197.127 101.349C203.099 100.161 209.289 100.771 214.914 103.101C220.539 105.431 225.347 109.377 228.73 114.439C232.113 119.502 233.918 125.454 233.918 131.543C233.906 139.704 230.658 147.527 224.888 153.297C219.117 159.068 211.294 162.315 203.133 162.328ZM203.133 101.947C197.28 101.947 191.558 103.683 186.691 106.935C181.824 110.187 178.03 114.809 175.79 120.217C173.55 125.625 172.964 131.575 174.106 137.316C175.248 143.057 178.067 148.331 182.206 152.47C186.345 156.609 191.618 159.427 197.359 160.569C203.1 161.711 209.051 161.125 214.459 158.885C219.866 156.645 224.489 152.852 227.741 147.985C230.993 143.118 232.728 137.396 232.728 131.543C232.719 123.696 229.598 116.174 224.05 110.626C218.501 105.078 210.979 101.957 203.133 101.947Z" fill="white"/>
<path d="M237.512 109.683C238.961 105.8 239.218 101.574 238.25 97.5446L235.037 97.4375C235.753 101.349 235.268 105.386 233.645 109.016C221.947 108.921 219.876 121.261 210.535 118.536C207.2 117.692 203.724 117.566 200.337 118.167C198.928 118.383 197.536 118.697 196.172 119.107C183.796 122.332 168.683 130.044 165.993 141.622L168.861 142.17C168.861 142.17 170.729 133.578 183.141 127.449C181.961 129.001 181.085 130.761 180.559 132.638C172.931 160.698 224.66 155.759 238.381 145.966C255.16 134.054 248.008 113.824 237.512 109.683Z" fill="#EBEBEB"/>
<path d="M155.498 99.4722H103.661V102.78H155.498V99.4722Z" fill="#EBEBEB"/>
<path d="M142.408 107.909H103.661V111.217H142.408V107.909Z" fill="#EBEBEB"/>
<path d="M155.498 124.771H103.661V128.08H155.498V124.771Z" fill="#EBEBEB"/>
<path d="M128.723 133.209H103.661V136.517H128.723V133.209Z" fill="#EBEBEB"/>
<path d="M150.63 133.209H132.78V136.517H150.63V133.209Z" fill="#EBEBEB"/>
<path d="M145.383 141.646H103.661V144.954H145.383V141.646Z" fill="#EBEBEB"/>
<path d="M155.498 150.071H103.661V153.379H155.498V150.071Z" fill="#EBEBEB"/>
<path d="M321.788 455.056H272.867C272.314 455.055 271.779 454.853 271.363 454.488C270.947 454.122 270.678 453.618 270.606 453.069L260.729 374.47C260.691 374.149 260.72 373.825 260.816 373.517C260.912 373.209 261.072 372.925 261.286 372.683C261.499 372.441 261.762 372.248 262.055 372.115C262.349 371.981 262.668 371.912 262.99 371.911H331.665C331.988 371.912 332.306 371.981 332.6 372.115C332.894 372.248 333.156 372.441 333.37 372.683C333.584 372.925 333.744 373.209 333.839 373.517C333.935 373.825 333.965 374.149 333.926 374.47L324.049 453.069C323.98 453.619 323.711 454.125 323.295 454.491C322.878 454.857 322.343 455.058 321.788 455.056Z" fill="#EBEBEB"/>
<path opacity="0.7" d="M259.67 370.293C257.885 371.578 259.301 391.475 261.646 395.866C263.99 400.257 277.984 396.485 294.692 395.009C311.4 393.533 331.415 399.436 332.284 395.866C333.153 392.296 338.032 372.875 335.473 370.293C333.426 368.222 308.817 368.222 298 369.46C287.183 370.697 263.478 367.568 259.67 370.293Z" fill="#F5F5F5"/>
<path d="M297.5 508.797C424.928 508.797 528.229 502.765 528.229 495.326C528.229 487.886 424.928 481.855 297.5 481.855C170.071 481.855 66.7705 487.886 66.7705 495.326C66.7705 502.765 170.071 508.797 297.5 508.797Z" fill="#F5F5F5"/>
<path d="M195.16 120.642C186.175 112.205 171.36 110.587 165.815 119.369C160.269 128.151 163.435 137.433 152.058 147.167C144.323 153.819 150.059 174.204 194.184 172.336C215.069 171.455 208 149.726 207.441 139.456C206.882 129.186 206.846 116.62 195.16 120.642Z" fill="#263238"/>
<path d="M177.773 478.88L167.087 479.296L166.885 467.729L177.571 467.313L177.773 478.88Z" fill="#B55B52"/>
<path d="M166.421 477.083H178.499C178.712 477.08 178.919 477.151 179.086 477.283C179.253 477.416 179.369 477.601 179.415 477.809L181.51 487.388C181.558 487.622 181.553 487.863 181.495 488.095C181.438 488.326 181.329 488.541 181.177 488.725C181.025 488.909 180.834 489.057 180.618 489.157C180.402 489.257 180.166 489.307 179.927 489.304C175.703 489.233 173.656 488.983 168.337 488.983C165.064 488.983 156.579 489.328 152.057 489.328C147.535 489.328 146.964 484.854 148.809 484.449C157.139 482.628 161.982 480.129 164.648 477.737C165.136 477.306 165.769 477.073 166.421 477.083Z" fill="#263238"/>
<path opacity="0.2" d="M166.885 467.741L166.98 473.12L177.666 472.656L177.571 467.325L166.885 467.741Z" fill="black"/>
<path d="M151.129 245.914C148.749 258.742 151.486 321.443 155.116 349.134C159.947 385.905 164.945 471.288 164.945 471.288L179.225 470.431C179.225 470.431 182.795 380.514 179.88 350.991C181.534 312.994 185.627 246.628 185.627 246.628L151.129 245.914Z" fill="#407BFF"/>
<path opacity="0.2" d="M183.26 287.98C183.76 278.353 176.941 269.797 174.192 287.98C172.455 299.535 176.048 319.789 180.761 334.092C181.487 319.206 182.415 302.629 183.26 287.98Z" fill="black"/>
<path d="M256.29 442.906L249.341 449.546L239.928 439.455L246.865 432.827L256.29 442.906Z" fill="#B55B52"/>
<path d="M247.519 449.725L254.659 439.943C254.776 439.773 254.953 439.653 255.154 439.609C255.355 439.565 255.565 439.599 255.742 439.705L264.072 444.608C264.277 444.744 264.453 444.92 264.589 445.125C264.724 445.331 264.817 445.562 264.861 445.804C264.906 446.046 264.901 446.294 264.847 446.535C264.793 446.775 264.692 447.002 264.548 447.202C262.014 450.569 260.621 452.057 257.492 456.365C255.564 459.007 253.339 462.648 250.685 466.313C248.031 469.978 244.402 467.349 245.187 465.575C248.757 457.614 247.246 455.401 247.055 451.605C246.994 450.944 247.158 450.281 247.519 449.725Z" fill="#263238"/>
<path opacity="0.2" d="M239.928 439.467L244.783 444.655L251.673 437.967L246.877 432.827L239.928 439.467Z" fill="black"/>
<path d="M167.694 246.258C167.694 246.258 183.069 327.178 187.068 358.594C189.448 377.361 241.927 444.881 241.927 444.881L250.887 435.445C250.887 435.445 231.681 386.012 208.547 356.69C207.631 322.323 211.534 265.75 198.254 246.889L167.694 246.258Z" fill="#407BFF"/>
<path d="M154.2 184.212C154.2 191.162 153.878 197.98 153.367 204.87C152.855 211.76 152.177 218.615 151.07 225.517L150.868 226.814L150.594 228.278C150.388 229.238 150.162 230.178 149.916 231.098C149.392 232.919 148.726 234.668 148.131 236.358C146.829 239.671 145.351 242.912 143.704 246.068C140.461 252.239 136.765 258.161 132.649 263.787C132.214 264.37 131.58 264.773 130.867 264.917C130.154 265.061 129.413 264.936 128.786 264.568C128.159 264.199 127.69 263.612 127.47 262.919C127.249 262.226 127.293 261.475 127.591 260.812V260.741C130.388 254.696 133.101 248.496 135.469 242.355C136.659 239.285 137.718 236.179 138.623 233.133C139.051 231.61 139.432 230.098 139.729 228.623C139.884 227.885 139.991 227.159 140.098 226.445L140.217 225.386L140.336 224.196C140.943 217.603 141.3 210.916 141.633 204.216C141.966 197.516 142.121 190.757 142.312 184.117V184.057C142.337 182.479 142.988 180.976 144.122 179.878C145.255 178.78 146.779 178.177 148.357 178.202C149.935 178.228 151.438 178.879 152.536 180.012C153.634 181.146 154.237 182.67 154.212 184.248L154.2 184.212Z" fill="#B55B52"/>
<path d="M150.321 175.513C135.707 179.785 137.588 206.37 137.588 206.37L158.365 211.963C158.365 211.963 161.816 192.495 161.507 185.509C161.197 178.25 158.377 173.169 150.321 175.513Z" fill="#407BFF"/>
<path d="M129.139 259.277L121.82 265.501L132.078 269.69C132.078 269.69 135.255 264.847 133.78 260.253L129.139 259.277Z" fill="#B55B52"/>
<path d="M123.117 274.997L127.794 275.58C128.313 275.645 128.84 275.537 129.291 275.272C129.743 275.008 130.095 274.601 130.293 274.117L132.078 269.69L121.82 265.501L121.046 272.367C120.976 272.99 121.154 273.615 121.541 274.108C121.929 274.6 122.495 274.92 123.117 274.997Z" fill="#B55B52"/>
<path d="M145.596 182.427C144.941 209.083 151.07 228.539 151.141 245.913L198.253 246.889C197.908 229.491 198.051 218.139 205.536 186.961C205.862 185.603 205.9 184.192 205.65 182.818C205.399 181.444 204.865 180.138 204.081 178.982C203.297 177.827 202.281 176.847 201.097 176.106C199.913 175.366 198.588 174.88 197.206 174.68C194.386 174.264 191.256 173.871 188.079 173.657C180.959 172.997 173.8 172.846 166.659 173.204C161.637 173.561 156.234 174.299 152.379 174.882C150.547 175.155 148.868 176.057 147.63 177.434C146.392 178.811 145.673 180.577 145.596 182.427Z" fill="#407BFF"/>
<path d="M189.508 207.06L175.537 206.965C175.398 206.971 175.259 206.947 175.13 206.894C175.001 206.841 174.885 206.761 174.79 206.659C174.696 206.558 174.624 206.437 174.58 206.304C174.536 206.172 174.522 206.032 174.537 205.894L175.311 199.277C175.361 198.982 175.514 198.714 175.743 198.52C175.971 198.327 176.261 198.22 176.56 198.218L190.519 198.313C190.658 198.306 190.796 198.328 190.925 198.379C191.054 198.431 191.17 198.51 191.265 198.61C191.36 198.711 191.432 198.832 191.476 198.963C191.52 199.095 191.534 199.235 191.519 199.373L190.745 206.001C190.697 206.295 190.547 206.563 190.32 206.757C190.094 206.951 189.806 207.058 189.508 207.06Z" fill="white"/>
<path opacity="0.4" d="M166.73 173.216C166.73 173.216 159.043 178.595 167.171 192.09C173.843 185.599 180.837 179.447 188.126 173.657L166.73 173.216Z" fill="white"/>
<path d="M186.509 149.523C185.021 156.378 183.403 168.968 188.127 173.657C180.698 176.583 173.849 180.806 167.897 186.128C162.673 176.536 166.707 173.204 166.707 173.204C174.418 171.538 174.347 165.838 173.121 160.46L186.509 149.523Z" fill="#B55B52"/>
<path opacity="0.2" d="M185.056 150.713C184.871 154.809 183.812 158.818 181.951 162.471C180.653 164.981 177.191 166.041 173.704 166.243C173.819 164.298 173.63 162.347 173.145 160.459L185.056 150.713Z" fill="black"/>
<path d="M197.659 141.134C194.089 152.106 192.899 156.818 185.759 161.102C175.109 167.54 162.411 160.817 162.578 149.024C162.744 138.409 168.528 122.261 180.511 120.606C183.165 120.222 185.873 120.524 188.377 121.482C190.881 122.441 193.098 124.024 194.817 126.082C196.536 128.14 197.7 130.603 198.197 133.238C198.695 135.873 198.509 138.591 197.659 141.134Z" fill="#B55B52"/>
<path d="M168.563 126.723C174.513 128.401 189.008 129.65 191.911 127.913C189.186 132.102 191.78 143.549 195.993 146.322C201.669 141.764 202.931 130.745 197.683 125.283C192.435 119.821 175.846 113.288 168.563 126.723Z" fill="#263238"/>
<path d="M199.325 147.845C198.949 148.891 198.368 149.85 197.616 150.668C196.864 151.485 195.956 152.144 194.945 152.605C192.256 153.795 190.471 151.511 190.852 148.738C191.197 146.251 193.018 142.621 195.897 142.574C196.519 142.582 197.129 142.744 197.673 143.044C198.217 143.344 198.679 143.774 199.018 144.295C199.357 144.816 199.562 145.413 199.615 146.032C199.669 146.651 199.569 147.274 199.325 147.845Z" fill="#B55B52"/>
<path d="M199.015 244.14L201.062 248.413C201.217 248.734 200.824 249.067 200.277 249.055L150.856 248.02C150.44 248.02 150.094 247.794 150.071 247.52L149.726 243.296C149.726 243.01 150.083 242.772 150.547 242.772L198.266 243.772C198.412 243.763 198.558 243.792 198.689 243.857C198.821 243.922 198.933 244.019 199.015 244.14Z" fill="#263238"/>
<path d="M192.506 249.341H193.779C194.029 249.341 194.231 249.21 194.219 249.055L193.731 243.557C193.731 243.403 193.493 243.26 193.243 243.26H191.958C191.708 243.26 191.518 243.379 191.53 243.545L192.006 249.031C192.03 249.21 192.244 249.341 192.506 249.341Z" fill="#407BFF"/>
<path d="M154.437 248.555H155.723C155.973 248.555 156.175 248.436 156.163 248.269L155.675 242.772C155.675 242.617 155.437 242.486 155.187 242.474H153.902C153.652 242.474 153.45 242.593 153.474 242.76L153.95 248.246C153.973 248.412 154.188 248.543 154.437 248.555Z" fill="#407BFF"/>
<path d="M173.466 248.948H174.752C175.001 248.948 175.204 248.829 175.192 248.662L174.704 243.176C174.704 243.01 174.466 242.879 174.216 242.879H172.931C172.681 242.879 172.491 243.01 172.502 243.164L172.978 248.662C173.002 248.805 173.216 248.948 173.466 248.948Z" fill="#407BFF"/>
<path d="M180.535 140.217C180.297 141.122 179.63 141.741 179.035 141.586C178.44 141.431 178.155 140.574 178.381 139.67C178.607 138.766 179.285 138.147 179.88 138.302C180.475 138.456 180.761 139.313 180.535 140.217Z" fill="#263238"/>
<path d="M170.277 137.6C170.051 138.516 169.384 139.123 168.789 138.968C168.194 138.813 167.897 137.969 168.135 137.052C168.373 136.136 169.027 135.541 169.622 135.684C170.217 135.827 170.515 136.695 170.277 137.6Z" fill="#263238"/>
<path d="M169.872 135.803L167.849 134.613C167.849 134.613 168.539 136.612 169.872 135.803Z" fill="#263238"/>
<path d="M172.549 139.849C171.217 141.714 169.635 143.387 167.849 144.823C168.226 145.27 168.696 145.629 169.226 145.876C169.756 146.122 170.334 146.25 170.919 146.251L172.549 139.849Z" fill="#A02724"/>
<path d="M173.121 149.809C173.079 149.773 173.048 149.726 173.031 149.674C173.014 149.621 173.012 149.565 173.025 149.512C173.036 149.477 173.054 149.445 173.077 149.418C173.1 149.39 173.129 149.367 173.161 149.351C173.193 149.334 173.228 149.324 173.264 149.321C173.3 149.318 173.336 149.322 173.37 149.333C174.482 149.682 175.66 149.764 176.809 149.574C177.958 149.384 179.047 148.926 179.987 148.238C180.042 148.191 180.114 148.168 180.186 148.173C180.259 148.179 180.326 148.213 180.374 148.268C180.421 148.323 180.444 148.395 180.439 148.468C180.433 148.54 180.399 148.608 180.344 148.655C179.338 149.414 178.163 149.919 176.92 150.126C175.677 150.333 174.402 150.237 173.204 149.845L173.121 149.809Z" fill="#263238"/>
<path d="M186.127 136.041C186.055 135.976 185.995 135.9 185.949 135.815C185.703 135.17 185.307 134.593 184.794 134.131C184.281 133.67 183.665 133.337 182.998 133.161C182.854 133.136 182.726 133.055 182.643 132.935C182.559 132.816 182.526 132.668 182.551 132.524C182.577 132.381 182.658 132.253 182.777 132.169C182.897 132.086 183.044 132.053 183.188 132.078C184.037 132.288 184.823 132.698 185.481 133.273C186.139 133.849 186.651 134.573 186.972 135.386C187.014 135.498 187.019 135.621 186.987 135.736C186.954 135.851 186.886 135.952 186.791 136.025C186.697 136.098 186.581 136.139 186.462 136.142C186.342 136.145 186.225 136.109 186.127 136.041Z" fill="#263238"/>
<path d="M168.254 131.816L168.182 131.745C168.08 131.642 168.022 131.503 168.022 131.358C168.022 131.213 168.08 131.074 168.182 130.971C168.811 130.382 169.569 129.948 170.396 129.706C171.223 129.465 172.095 129.421 172.942 129.579C173.013 129.597 173.08 129.629 173.138 129.673C173.196 129.717 173.245 129.772 173.282 129.835C173.318 129.898 173.342 129.968 173.351 130.041C173.36 130.113 173.355 130.187 173.335 130.257C173.299 130.398 173.208 130.518 173.083 130.591C172.958 130.665 172.809 130.686 172.669 130.65C171.99 130.522 171.29 130.558 170.628 130.754C169.966 130.951 169.36 131.303 168.861 131.78C168.774 131.846 168.671 131.884 168.563 131.89C168.455 131.897 168.347 131.871 168.254 131.816Z" fill="#263238"/>
<path d="M205.525 183.093C208.988 187.675 212.225 192.292 215.366 197.088C216.925 199.468 218.472 201.848 219.936 204.418C221.512 207.018 222.927 209.712 224.172 212.486C224.549 213.351 224.875 214.237 225.148 215.14C225.346 215.836 225.482 216.549 225.553 217.27C225.572 217.559 225.572 217.85 225.553 218.139V218.674C225.531 218.91 225.495 219.145 225.446 219.376L225.362 219.745V219.912V220.043L225.267 220.305C224.708 221.733 224.267 223.172 223.601 224.553C222.394 227.382 220.945 230.101 219.269 232.681C217.544 235.284 215.523 237.68 213.248 239.821C212.089 240.908 210.843 241.899 209.523 242.784C208.845 243.224 208.155 243.652 207.441 244.045L206.31 244.592C205.882 244.783 205.573 244.914 204.954 245.14L202.693 239.713C202.854 239.556 203.025 239.409 203.204 239.273L203.859 238.702C204.299 238.309 204.728 237.881 205.144 237.441C205.992 236.531 206.787 235.574 207.524 234.573C208.978 232.529 210.244 230.358 211.308 228.087C211.808 226.897 212.356 225.779 212.772 224.517C213.189 223.256 213.653 222.137 214.033 220.947C214.414 219.757 214.712 218.448 215.081 217.211V216.984V216.865V216.973V217.211C215.081 217.353 215.021 217.568 215.009 217.651C215.003 217.742 215.003 217.833 215.009 217.925V218.27C215.009 218.543 215.009 218.46 215.009 218.341C215.009 218.222 214.676 217.579 214.426 217.08C213.343 215.045 211.891 212.7 210.404 210.463C208.916 208.226 207.369 205.929 205.787 203.68C202.633 199.17 199.385 194.612 196.195 190.138L205.525 183.093Z" fill="#B55B52"/>
<path d="M208.107 243.735L198.932 250.221L194.814 240.844C194.814 240.844 200.384 237.857 204.775 239.856L208.107 243.735Z" fill="#B55B52"/>
<path d="M192.541 250.994L190.245 247.793C189.809 247.176 189.631 246.413 189.748 245.666C189.866 244.92 190.27 244.248 190.875 243.795L194.814 240.844L198.932 250.221L196.409 251.78C195.785 252.163 195.038 252.295 194.32 252.149C193.602 252.004 192.967 251.591 192.541 250.994Z" fill="#B55B52"/>
<path d="M187.163 180.261C184.045 192.649 203.276 213.855 203.276 213.855L219.448 197.064C219.448 197.064 212.058 181.284 202.407 176.334C195.672 172.883 188.544 174.799 187.163 180.261Z" fill="#407BFF"/>
<path d="M180.129 138.42L178.106 137.23C178.106 137.23 178.785 139.23 180.129 138.42Z" fill="#263238"/>
<path d="M159.46 213.355C159.373 213.354 159.288 213.328 159.216 213.279C159.144 213.23 159.088 213.162 159.055 213.081C159.016 212.975 159.021 212.859 159.068 212.756C159.114 212.654 159.2 212.574 159.305 212.534L161.161 211.82C162.9 211.178 164.402 210.02 165.465 208.502C166.528 206.983 167.103 205.177 167.111 203.323L167.242 185.925C167.28 184.601 166.862 183.304 166.057 182.25C165.253 181.197 164.112 180.453 162.824 180.14C161.536 179.828 160.18 179.968 158.983 180.535C157.786 181.103 156.82 182.065 156.247 183.26L148.202 198.73C147.338 200.363 146.989 202.22 147.202 204.055C147.414 205.891 148.178 207.619 149.392 209.011L150.701 210.499C150.745 210.54 150.78 210.589 150.804 210.645C150.828 210.7 150.839 210.76 150.838 210.82C150.837 210.88 150.824 210.939 150.798 210.994C150.773 211.048 150.737 211.097 150.691 211.136C150.646 211.176 150.593 211.205 150.535 211.223C150.478 211.24 150.417 211.245 150.358 211.238C150.298 211.231 150.24 211.211 150.189 211.18C150.137 211.149 150.093 211.107 150.059 211.058L148.75 209.44C147.409 207.926 146.563 206.04 146.322 204.033C146.082 202.026 146.46 199.993 147.405 198.206L155.449 182.736C156.137 181.416 157.249 180.365 158.606 179.754C159.964 179.143 161.487 179.006 162.931 179.366C164.376 179.726 165.657 180.562 166.569 181.739C167.48 182.916 167.969 184.365 167.956 185.854L167.825 203.252C167.816 205.27 167.194 207.237 166.042 208.895C164.891 210.552 163.264 211.821 161.376 212.534L159.519 213.236L159.46 213.355Z" fill="#263238"/>
<path d="M167.539 189.805C167.429 189.802 167.323 189.758 167.244 189.681C167.164 189.603 167.117 189.499 167.111 189.388C166.942 188.013 166.361 186.722 165.443 185.684C164.526 184.646 163.315 183.91 161.971 183.574C160.628 183.238 159.213 183.316 157.915 183.8C156.617 184.284 155.496 185.149 154.699 186.283C154.672 186.332 154.635 186.375 154.591 186.41C154.547 186.445 154.496 186.471 154.442 186.487C154.388 186.502 154.331 186.507 154.275 186.5C154.219 186.494 154.165 186.477 154.116 186.449C154.067 186.422 154.023 186.385 153.988 186.341C153.953 186.297 153.927 186.246 153.912 186.192C153.897 186.138 153.892 186.081 153.898 186.025C153.905 185.969 153.922 185.915 153.949 185.866C154.835 184.557 156.101 183.552 157.577 182.987C159.052 182.421 160.666 182.323 162.199 182.704C163.732 183.086 165.111 183.93 166.15 185.121C167.188 186.312 167.835 187.794 168.003 189.365C168.004 189.477 167.96 189.586 167.883 189.668C167.805 189.75 167.699 189.799 167.587 189.805H167.539Z" fill="#263238"/>
<path d="M162.899 180.297C162.828 180.296 162.759 180.278 162.697 180.245C162.635 180.212 162.582 180.164 162.542 180.106C162.324 179.624 162.212 179.1 162.212 178.571C162.212 178.042 162.324 177.519 162.542 177.036C162.851 176.076 163.372 175.198 164.066 174.467C164.76 173.736 165.61 173.17 166.552 172.812C166.604 172.791 166.66 172.782 166.716 172.784C166.772 172.786 166.827 172.8 166.877 172.825C166.928 172.849 166.972 172.884 167.009 172.927C167.045 172.97 167.072 173.02 167.088 173.073C167.122 173.179 167.114 173.294 167.065 173.394C167.016 173.494 166.93 173.571 166.826 173.609C166.019 173.94 165.293 174.442 164.699 175.081C164.106 175.72 163.658 176.481 163.387 177.31C163.209 177.678 163.106 178.078 163.084 178.487C163.061 178.895 163.12 179.304 163.256 179.69C163.287 179.737 163.308 179.791 163.318 179.846C163.328 179.902 163.327 179.959 163.315 180.015C163.302 180.07 163.279 180.122 163.247 180.169C163.214 180.215 163.173 180.255 163.125 180.285C163.052 180.306 162.974 180.31 162.899 180.297Z" fill="#263238"/>
<path d="M158.484 212.7C158.281 213.474 158.484 214.212 159.055 214.343C159.626 214.474 160.15 213.938 160.34 213.153C160.53 212.367 160.269 211.629 159.757 211.51C159.245 211.391 158.674 211.915 158.484 212.7Z" fill="#263238"/>
<path d="M192.256 192.149C192.637 193.946 193.922 195.184 195.1 194.934C196.278 194.684 196.921 193.006 196.528 191.221C196.135 189.436 194.862 188.174 193.684 188.436C192.506 188.698 191.863 190.4 192.256 192.149Z" fill="#263238"/>
<path d="M195.981 191.59C195.926 191.591 195.872 191.582 195.821 191.563C195.77 191.543 195.723 191.514 195.683 191.476C195.643 191.439 195.611 191.394 195.589 191.344C195.566 191.294 195.554 191.24 195.553 191.185C195.303 184.604 192.804 176.429 187.937 174.013C187.836 173.962 187.76 173.874 187.724 173.767C187.688 173.66 187.696 173.543 187.746 173.442C187.77 173.391 187.804 173.346 187.846 173.309C187.889 173.271 187.938 173.243 187.991 173.225C188.044 173.207 188.101 173.2 188.157 173.205C188.213 173.21 188.268 173.226 188.317 173.252C193.53 175.834 196.136 184.105 196.397 191.102C196.402 191.158 196.396 191.214 196.378 191.268C196.359 191.321 196.33 191.37 196.292 191.411C196.254 191.453 196.208 191.486 196.156 191.508C196.105 191.531 196.049 191.542 195.993 191.542L195.981 191.59Z" fill="#263238"/>
<path d="M190.983 192.304C191.233 193.839 192.34 194.934 193.458 194.755C194.577 194.577 195.291 193.185 195.041 191.638C194.791 190.091 193.672 189.008 192.554 189.186C191.435 189.365 190.733 190.757 190.983 192.304Z" fill="white"/>
<path d="M190.887 192.435C191.244 194.339 192.244 195.743 193.113 195.576C193.981 195.41 194.374 193.744 194.017 191.84C193.66 189.936 192.661 188.531 191.792 188.698C190.923 188.865 190.519 190.531 190.887 192.435Z" fill="#263238"/>
<path d="M149.487 210.452C149.297 211.237 149.558 211.975 150.07 212.094C150.582 212.213 151.153 211.701 151.355 210.904C151.558 210.106 151.284 209.392 150.772 209.262C150.26 209.131 149.689 209.678 149.487 210.452Z" fill="#263238"/>
<path d="M279.84 113.55C272.308 114.895 271.356 114.204 271.26 108.79C271.165 103.375 268.428 94.3433 272.236 91.5111C272.497 91.2633 272.819 91.0883 273.169 91.0037C273.519 90.9191 273.886 90.9278 274.231 91.029C274.577 91.1301 274.89 91.3202 275.139 91.5802C275.388 91.8402 275.565 92.1611 275.651 92.5107C275.884 91.9168 276.337 91.4355 276.915 91.1672C277.494 90.899 278.154 90.8644 278.757 91.0708C278.912 89.9522 279.091 87.0843 281.137 86.3108C283.184 85.5373 285.064 87.3937 285.064 87.3937C285.064 87.3937 284.91 82.9788 287.885 83.4072C288.773 83.5491 289.598 83.9555 290.251 84.5732C290.905 85.1909 291.358 85.9914 291.55 86.8701C291.55 86.8701 293.263 84.3711 295.584 85.3588C297.904 86.3465 297.417 89.2501 297.417 89.2501C297.417 89.2501 299.88 88.0601 301.712 89.4048C303.545 90.7495 302.212 92.9034 302.212 92.9034C302.212 92.9034 303.878 88.6194 307.056 90.9875C309.912 93.1295 307.317 96.4853 307.317 96.4853C307.317 96.4853 310.459 95.9736 311.221 97.5563C313.791 102.947 303.997 108.968 303.676 118.072C288.634 123.76 279.84 113.55 279.84 113.55Z" fill="#263238"/>
<path d="M225.553 258.23L220.531 257.302L213.891 263.644C213.53 263.989 213.245 264.405 213.054 264.866C212.863 265.327 212.771 265.823 212.784 266.322L212.88 271.51C212.891 272.398 213.233 273.249 213.838 273.898C214.443 274.547 215.268 274.947 216.152 275.021L218.461 275.223C219.301 275.303 220.141 275.082 220.834 274.601C221.527 274.119 222.027 273.408 222.245 272.593L223.435 268.357C223.435 268.357 229.992 260.61 225.553 258.23Z" fill="#FFB573"/>
<path d="M276.271 163.339C272.903 172.062 269.547 180.82 266.31 189.603C263.074 198.385 259.861 207.203 256.85 215.878L256.314 217.484L255.946 218.532C255.803 218.924 255.66 219.329 255.529 219.638C254.97 221.054 254.41 222.221 253.851 223.399C252.733 225.779 251.602 227.909 250.46 230.063C248.163 234.347 245.795 238.476 243.403 242.593C238.643 250.84 233.883 258.896 228.956 267.072L213.808 257.647C218.806 249.876 223.625 241.856 228.242 233.847C230.515 229.825 232.752 225.791 234.835 221.792C235.87 219.793 236.87 217.794 237.75 215.842C238.167 214.902 238.583 213.938 238.857 213.153C238.952 212.927 238.988 212.772 239.048 212.617L239.238 211.998L239.785 210.261C242.653 201.122 245.664 192.292 248.568 183.331L257.278 156.544L276.271 163.339Z" fill="#407BFF"/>
<path opacity="0.6" d="M276.271 163.339C272.903 172.062 269.547 180.82 266.31 189.603C263.074 198.385 259.861 207.203 256.85 215.878L256.314 217.484L255.946 218.532C255.803 218.924 255.66 219.329 255.529 219.638C254.97 221.054 254.41 222.221 253.851 223.399C252.733 225.779 251.602 227.909 250.46 230.063C248.163 234.347 245.795 238.476 243.403 242.593C238.643 250.84 233.883 258.896 228.956 267.072L213.808 257.647C218.806 249.876 223.625 241.856 228.242 233.847C230.515 229.825 232.752 225.791 234.835 221.792C235.87 219.793 236.87 217.794 237.75 215.842C238.167 214.902 238.583 213.938 238.857 213.153C238.952 212.927 238.988 212.772 239.048 212.617L239.238 211.998L239.785 210.261C242.653 201.122 245.664 192.292 248.568 183.331L257.278 156.544L276.271 163.339Z" fill="white"/>
<path d="M230.884 481.843L220.21 482.367L225.256 454.568L235.406 456.901L230.884 481.843Z" fill="#FFB573"/>
<path d="M307.46 482.248H296.786L296.822 457.531H307.484L307.46 482.248Z" fill="#FFB573"/>
<path d="M295.775 481.01H308.781C308.99 481.007 309.194 481.078 309.355 481.211C309.516 481.344 309.625 481.53 309.662 481.736L311.376 491.256C311.414 491.491 311.4 491.732 311.335 491.962C311.271 492.192 311.157 492.404 311.002 492.586C310.847 492.767 310.654 492.912 310.437 493.011C310.22 493.11 309.984 493.161 309.745 493.16C305.556 493.088 302.51 492.838 297.238 492.838C294.002 492.838 284.148 493.172 279.722 493.172C275.295 493.172 274.843 488.745 276.687 488.34C285.017 486.543 291.288 484.068 294.013 481.7C294.496 481.262 295.123 481.017 295.775 481.01Z" fill="#263238"/>
<path opacity="0.2" d="M225.255 454.58L222.923 467.432L233.074 469.764L235.406 456.912L225.255 454.58Z" fill="black"/>
<path opacity="0.2" d="M307.484 457.531H296.81V470.264H307.484V457.531Z" fill="black"/>
<path d="M316.076 163.03C307.746 200.503 309.96 237.488 309.067 245.497L252.102 241.736C246.152 196.516 252.792 167.671 256.564 155.842C257.178 153.89 258.337 152.154 259.906 150.84C261.475 149.526 263.388 148.689 265.418 148.429C273.889 147.5 282.419 147.234 290.932 147.631C296.695 147.976 302.414 148.844 308.02 150.225C310.784 150.858 313.185 152.562 314.695 154.962C316.206 157.362 316.702 160.264 316.076 163.03Z" fill="#407BFF"/>
<path d="M298.904 122.237C297.024 129.294 294.798 141.789 298.38 148.107C298.939 149.095 297.868 149.94 297.821 151.082C297.69 154.581 292.954 155.628 284.481 155.676C276.008 155.723 272.379 152.189 274.687 148.857C275.041 148.349 275.579 147.999 276.187 147.881C284.124 146.108 284.279 139.885 283.196 133.946L298.904 122.237Z" fill="#FFB573"/>
<path opacity="0.4" d="M283.875 153.736C286.101 156.832 287.512 160.437 287.98 164.22C296.441 160.246 300.475 150.595 300.475 150.595L297.929 147.87C297.929 147.87 288.528 149.643 283.875 153.736Z" fill="black"/>
<path opacity="0.4" d="M283.042 153.772C279.926 156.308 277.297 159.389 275.283 162.864C269.369 159.199 271.32 148.75 271.32 148.75L276.14 147.798C276.14 147.798 278.294 149.786 283.042 153.772Z" fill="black"/>
<path d="M283.422 153.51L281.602 153.689L278.52 155.724C278.323 156.949 278.541 158.206 279.138 159.294C280.929 159.643 282.756 159.767 284.577 159.663C285.799 159.073 286.772 158.069 287.326 156.83L285.065 153.939L283.422 153.51Z" fill="#263238"/>
<path d="M283.422 153.51C285.708 156.371 287.461 159.62 288.598 163.101C297.059 159.127 301.986 149.631 301.986 149.631L297.904 146.061C297.904 146.061 288.075 149.44 283.422 153.51Z" fill="#407BFF"/>
<path d="M283.422 153.51C280.156 155.571 277.3 158.217 274.997 161.317C269.047 157.663 271.32 147.822 271.32 147.822L276.139 146.87C276.139 146.87 278.686 149.548 283.422 153.51Z" fill="#407BFF"/>
<path opacity="0.2" d="M292.502 127.009L283.22 133.935C283.501 135.366 283.656 136.819 283.684 138.278C287.028 138.028 291.835 134.708 292.418 131.233C292.698 129.841 292.726 128.411 292.502 127.009Z" fill="black"/>
<path d="M300.606 110.575C299.262 121.083 299.012 127.235 293.324 132.364C284.767 139.968 272.07 134.28 270.249 123.582C268.607 113.955 271.082 98.3893 281.685 94.8788C284.02 94.092 286.517 93.9151 288.939 94.3651C291.361 94.8151 293.627 95.877 295.523 97.4499C297.419 99.0227 298.882 101.054 299.771 103.352C300.661 105.649 300.948 108.135 300.606 110.575Z" fill="#FFB573"/>
<path d="M298.035 120.071C295.655 117.774 297.143 106.779 298.345 103.625C292.395 104.197 273.164 104.173 273.89 98.8654C274.616 93.558 281.613 89.0479 293.049 92.7726C302.569 95.8785 304.949 100.627 304.949 104.506C305.092 112.479 298.035 120.071 298.035 120.071Z" fill="#263238"/>
<path d="M304.295 120.19C303.165 122.35 301.234 123.982 298.916 124.736C295.881 125.676 294.382 122.88 295.239 119.881C296 117.191 298.511 113.443 301.546 113.824C304.58 114.205 305.687 117.513 304.295 120.19Z" fill="#FFB573"/>
<path d="M219.448 464.172L237.096 468.063C237.096 468.063 254.256 400.816 259.349 367.948C260.908 357.952 264.525 343.684 267.822 328.678C271.975 309.757 277.199 289.289 281.483 273.26C286.005 256.374 289.361 244.236 289.361 244.236L252.102 241.772C252.102 241.772 234.764 329.725 231.265 362.105C227.612 395.758 219.448 464.172 219.448 464.172Z" fill="#263238"/>
<path opacity="0.2" d="M267.822 328.655C271.975 309.734 277.199 289.266 281.483 273.236L277.568 264.906C268.322 275.949 265.953 310.114 267.822 328.655Z" fill="black"/>
<path d="M269.856 242.915C269.856 242.915 277.568 332.796 280.566 363.914C283.898 397.996 292.835 467.813 292.835 467.813H310.757C310.757 467.813 311.566 393.462 308.377 360.547C307.925 295.834 309.055 245.509 309.055 245.509L269.856 242.915Z" fill="#263238"/>
<path d="M290.551 468.229H313.565V461.351L289.658 460.03L290.551 468.229Z" fill="#407BFF"/>
<path d="M217.14 464.1L238.167 468.741L239.666 461.946L217.651 456.401L217.14 464.1Z" fill="#407BFF"/>
<path d="M285.243 112.455C285.243 113.312 284.683 113.978 284.124 113.943C283.565 113.907 283.148 113.181 283.208 112.324C283.267 111.468 283.767 110.801 284.326 110.837C284.886 110.873 285.302 111.598 285.243 112.455Z" fill="#263238"/>
<path d="M275.533 111.86C275.533 112.717 274.973 113.383 274.414 113.348C273.855 113.312 273.438 112.586 273.498 111.729C273.557 110.872 274.057 110.206 274.616 110.242C275.176 110.277 275.592 110.956 275.533 111.86Z" fill="#263238"/>
<path d="M277.758 112.455C276.558 115.008 275.017 117.386 273.177 119.524C274.593 121.047 277.223 120.571 277.223 120.571L277.758 112.455Z" fill="#ED893E"/>
<path d="M280.697 123.106C281.662 123.051 282.605 122.802 283.47 122.372C284.335 121.943 285.105 121.342 285.731 120.607C285.775 120.56 285.8 120.499 285.8 120.434C285.8 120.37 285.775 120.308 285.731 120.262C285.682 120.217 285.619 120.191 285.552 120.191C285.486 120.191 285.422 120.217 285.374 120.262C284.667 121.068 283.781 121.697 282.787 122.098C281.793 122.499 280.718 122.661 279.65 122.57C279.617 122.567 279.584 122.57 279.552 122.58C279.521 122.589 279.491 122.605 279.466 122.626C279.441 122.647 279.42 122.673 279.404 122.702C279.389 122.732 279.379 122.764 279.376 122.796C279.373 122.864 279.396 122.93 279.44 122.981C279.485 123.032 279.547 123.064 279.614 123.07C279.974 123.104 280.336 123.116 280.697 123.106Z" fill="#263238"/>
<path d="M287.611 109.48C287.696 109.471 287.777 109.442 287.849 109.397C287.962 109.324 288.042 109.209 288.071 109.078C288.1 108.946 288.076 108.809 288.004 108.695C287.579 108.01 286.997 107.437 286.305 107.023C285.614 106.609 284.834 106.366 284.03 106.315C283.909 106.334 283.799 106.395 283.719 106.488C283.639 106.58 283.596 106.698 283.596 106.821C283.596 106.943 283.639 107.061 283.719 107.154C283.799 107.247 283.909 107.308 284.03 107.326C284.665 107.373 285.28 107.57 285.824 107.901C286.368 108.232 286.826 108.688 287.159 109.23C287.204 109.31 287.27 109.376 287.35 109.42C287.43 109.464 287.52 109.485 287.611 109.48Z" fill="#263238"/>
<path d="M270.736 108.207C270.819 108.201 270.899 108.175 270.97 108.132C271.04 108.088 271.099 108.028 271.141 107.957C271.445 107.404 271.875 106.93 272.396 106.575C272.917 106.219 273.514 105.991 274.14 105.91C274.272 105.898 274.395 105.836 274.484 105.736C274.572 105.637 274.619 105.508 274.616 105.375C274.607 105.241 274.545 105.116 274.445 105.027C274.345 104.938 274.214 104.892 274.08 104.899C273.281 104.995 272.517 105.282 271.853 105.736C271.188 106.189 270.642 106.796 270.26 107.505C270.196 107.62 270.18 107.756 270.216 107.883C270.252 108.01 270.336 108.118 270.451 108.183C270.541 108.223 270.641 108.232 270.736 108.207Z" fill="#263238"/>
<path d="M292.169 482.867C293.116 482.844 294.058 482.716 294.977 482.486C295.025 482.475 295.069 482.45 295.103 482.414C295.137 482.378 295.159 482.332 295.168 482.284C295.18 482.237 295.178 482.188 295.161 482.143C295.144 482.098 295.113 482.06 295.072 482.034C294.692 481.784 291.336 479.654 290.122 480.272C289.991 480.341 289.88 480.443 289.8 480.569C289.721 480.694 289.676 480.838 289.67 480.986C289.628 481.231 289.648 481.483 289.729 481.718C289.81 481.953 289.95 482.164 290.134 482.331C290.73 482.739 291.449 482.928 292.169 482.867ZM294.251 482.129C292.431 482.498 291.038 482.426 290.479 481.938C290.352 481.826 290.257 481.682 290.203 481.521C290.149 481.361 290.137 481.189 290.17 481.022C290.17 480.832 290.265 480.76 290.336 480.725C290.967 480.415 292.895 481.32 294.251 482.129Z" fill="#407BFF"/>
<path d="M294.918 482.497C294.96 482.514 295.007 482.514 295.049 482.497C295.089 482.475 295.123 482.443 295.146 482.403C295.169 482.363 295.181 482.317 295.18 482.271C295.18 482.14 295.049 479.058 293.847 478.047C293.702 477.92 293.531 477.825 293.346 477.77C293.162 477.714 292.967 477.699 292.776 477.726C292.585 477.726 292.4 477.791 292.251 477.91C292.102 478.029 291.998 478.194 291.955 478.38C291.681 479.57 293.716 481.95 294.799 482.509C294.839 482.517 294.88 482.513 294.918 482.497ZM292.942 478.166C293.154 478.168 293.358 478.249 293.514 478.392C294.275 479.035 294.549 480.831 294.632 481.736C293.573 480.903 292.252 479.13 292.443 478.428C292.443 478.368 292.443 478.213 292.823 478.178H292.942V478.166Z" fill="#407BFF"/>
<path d="M218.615 477.666L231.134 481.236C231.334 481.293 231.507 481.419 231.624 481.59C231.742 481.762 231.795 481.969 231.776 482.176L230.848 491.78C230.818 492.016 230.737 492.243 230.611 492.445C230.485 492.647 230.317 492.819 230.118 492.95C229.919 493.081 229.694 493.168 229.459 493.204C229.223 493.24 228.983 493.225 228.754 493.16C224.743 491.97 221.887 490.887 216.854 489.447C213.736 488.567 203.585 484.925 199.884 482.402C196.183 479.88 198.361 475.988 200.11 476.702C207.976 479.891 213.51 479.38 216.77 477.892C217.339 477.601 217.993 477.521 218.615 477.666Z" fill="#263238"/>
<path d="M214.629 478.475C215.548 478.704 216.49 478.836 217.437 478.868C217.488 478.871 217.539 478.859 217.583 478.834C217.628 478.808 217.664 478.771 217.687 478.725C217.715 478.685 217.73 478.637 217.73 478.588C217.73 478.539 217.715 478.491 217.687 478.451C217.389 478.118 214.736 475.167 213.415 475.417C213.268 475.449 213.132 475.519 213.019 475.619C212.907 475.719 212.822 475.846 212.772 475.988C212.669 476.211 212.623 476.456 212.637 476.701C212.652 476.946 212.727 477.183 212.855 477.392C213.309 477.941 213.933 478.322 214.629 478.475ZM216.842 478.332C214.986 478.19 213.665 477.737 213.272 477.142C213.192 476.994 213.15 476.829 213.15 476.66C213.15 476.492 213.192 476.326 213.272 476.178C213.343 475.988 213.439 475.952 213.522 475.94C214.2 475.786 215.747 477.19 216.842 478.38V478.332Z" fill="#407BFF"/>
<path d="M217.377 478.856C217.424 478.868 217.473 478.868 217.52 478.856C217.566 478.845 217.608 478.821 217.642 478.787C217.675 478.754 217.699 478.712 217.711 478.666C217.711 478.547 218.448 475.548 217.58 474.239C217.473 474.08 217.335 473.944 217.173 473.842C217.011 473.739 216.829 473.672 216.64 473.644C216.455 473.593 216.259 473.605 216.082 473.678C215.905 473.751 215.758 473.882 215.664 474.049C215.069 475.12 216.402 477.928 217.27 478.809C217.301 478.833 217.338 478.85 217.377 478.856ZM216.651 474.156C216.855 474.212 217.029 474.344 217.139 474.525C217.711 475.358 217.473 477.167 217.318 478.095C216.521 477.012 215.759 474.953 216.128 474.322C216.128 474.263 216.235 474.132 216.568 474.18L216.651 474.156Z" fill="#407BFF"/>
<path d="M299.082 147.179C298.956 147.159 298.826 147.168 298.704 147.205C298.581 147.242 298.468 147.307 298.374 147.394C298.28 147.481 298.207 147.588 298.161 147.708C298.115 147.827 298.096 147.956 298.107 148.084C298.523 154.462 288.587 165.934 286.207 200.289C284.79 221.185 283.493 286.338 284.445 320.229C284.459 320.674 284.574 321.109 284.782 321.503C284.989 321.896 285.284 322.238 285.643 322.5C286.002 322.763 286.416 322.94 286.854 323.019C287.292 323.098 287.742 323.075 288.17 322.954C305.734 318.051 314.029 329.939 317.408 315.921C317.23 299.13 312.149 238.845 313.458 224.553C314.767 210.261 320.205 171.431 321.561 161.078C322.763 152.082 303.997 148.072 299.082 147.179Z" fill="#407BFF"/>
<path opacity="0.7" d="M299.082 147.179C298.956 147.159 298.826 147.168 298.704 147.205C298.581 147.242 298.468 147.307 298.374 147.394C298.28 147.481 298.207 147.588 298.161 147.708C298.115 147.827 298.096 147.956 298.107 148.084C298.523 154.462 288.587 165.934 286.207 200.289C284.79 221.185 283.493 286.338 284.445 320.229C284.459 320.674 284.574 321.109 284.782 321.503C284.989 321.896 285.284 322.238 285.643 322.5C286.002 322.763 286.416 322.94 286.854 323.019C287.292 323.098 287.742 323.075 288.17 322.954C305.734 318.051 314.029 329.939 317.408 315.921C317.23 299.13 312.149 238.845 313.458 224.553C314.767 210.261 320.205 171.431 321.561 161.078C322.763 152.082 303.997 148.072 299.082 147.179Z" fill="white"/>
<path opacity="0.2" d="M310.662 176.299C309.888 181.606 309.591 203.05 314.696 213.367C315.553 206.227 316.671 197.743 317.754 189.567L310.662 176.299Z" fill="#407BFF"/>
<path d="M317.956 269.035L312.887 269.63L308.401 277.639C308.155 278.072 308.002 278.553 307.953 279.049C307.904 279.545 307.959 280.045 308.115 280.519L309.733 285.445C310.008 286.288 310.587 286.999 311.357 287.439C312.127 287.879 313.033 288.017 313.898 287.825L316.159 287.349C316.99 287.18 317.734 286.721 318.257 286.054C318.781 285.387 319.049 284.555 319.015 283.708L318.873 279.329C318.873 279.329 322.895 270.035 317.956 269.035Z" fill="#FFB573"/>
<path d="M320.741 157.08C322.36 161.84 323.859 166.541 325.346 171.301C326.834 176.061 328.321 180.821 329.726 185.581C331.13 190.341 332.486 195.208 333.736 200.17C334.355 202.657 334.926 205.168 335.473 207.798C335.723 209.119 335.973 210.463 336.175 211.891C336.271 212.629 336.378 213.308 336.437 214.129L336.544 215.319L336.604 216.663C336.628 217.115 336.628 217.568 336.604 218.02C336.604 218.496 336.604 218.948 336.544 219.317L336.437 220.507L336.306 221.578C336.14 223.018 335.926 224.327 335.711 225.636C335.283 228.23 334.783 230.729 334.271 233.204C333.248 238.155 332.106 242.998 330.951 247.818C329.797 252.637 328.571 257.445 327.381 262.24L323.811 276.627L306.58 271.951C309.246 262.657 311.673 253.196 313.922 243.795C315.017 239.035 316.041 234.371 316.957 229.718C317.409 227.338 317.838 225.077 318.147 222.839C318.325 221.721 318.468 220.614 318.563 219.615C318.656 218.825 318.688 218.029 318.659 217.235V216.735L318.575 216.092C318.575 215.688 318.433 215.152 318.361 214.688C318.195 213.688 317.98 212.629 317.742 211.546C317.254 209.381 316.671 207.143 316.041 204.894C314.851 200.384 313.339 195.815 311.804 191.269C308.77 182.177 305.354 173.026 301.832 164.125L320.741 157.08Z" fill="#407BFF"/>
<path opacity="0.7" d="M320.741 157.08C322.36 161.84 323.859 166.541 325.346 171.301C326.834 176.061 328.321 180.821 329.726 185.581C331.13 190.341 332.486 195.208 333.736 200.17C334.355 202.657 334.926 205.168 335.473 207.798C335.723 209.119 335.973 210.463 336.175 211.891C336.271 212.629 336.378 213.308 336.437 214.129L336.544 215.319L336.604 216.663C336.628 217.115 336.628 217.568 336.604 218.02C336.604 218.496 336.604 218.948 336.544 219.317L336.437 220.507L336.306 221.578C336.14 223.018 335.926 224.327 335.711 225.636C335.283 228.23 334.783 230.729 334.271 233.204C333.248 238.155 332.106 242.998 330.951 247.818C329.797 252.637 328.571 257.445 327.381 262.24L323.811 276.627L306.58 271.951C309.246 262.657 311.673 253.196 313.922 243.795C315.017 239.035 316.041 234.371 316.957 229.718C317.409 227.338 317.838 225.077 318.147 222.839C318.325 221.721 318.468 220.614 318.563 219.615C318.656 218.825 318.688 218.029 318.659 217.235V216.735L318.575 216.092C318.575 215.688 318.433 215.152 318.361 214.688C318.195 213.688 317.98 212.629 317.742 211.546C317.254 209.381 316.671 207.143 316.041 204.894C314.851 200.384 313.339 195.815 311.804 191.269C308.77 182.177 305.354 173.026 301.832 164.125L320.741 157.08Z" fill="white"/>
<path d="M275.937 146.287C276.199 146.285 276.456 146.357 276.678 146.496C276.9 146.634 277.078 146.832 277.191 147.068C277.305 147.304 277.349 147.567 277.319 147.827C277.288 148.087 277.185 148.332 277.02 148.536C274.188 151.82 272.403 156.33 269.047 170.801C265.001 188.258 256.386 276.092 254.767 319.134C254.759 319.492 254.674 319.843 254.517 320.165C254.36 320.486 254.135 320.77 253.858 320.996C253.581 321.222 253.258 321.386 252.912 321.475C252.565 321.565 252.204 321.578 251.852 321.514C243.45 319.967 237.691 324.037 236.775 318.646C235.763 312.696 239.535 255.862 246.592 229.134C245.485 205.43 249.484 157.877 257.469 151.558C261.8 148.048 271.011 146.37 275.937 146.287Z" fill="#407BFF"/>
<path opacity="0.7" d="M275.937 146.287C276.199 146.285 276.456 146.357 276.678 146.496C276.9 146.634 277.078 146.832 277.191 147.068C277.305 147.304 277.349 147.567 277.319 147.827C277.288 148.087 277.185 148.332 277.02 148.536C274.188 151.82 272.403 156.33 269.047 170.801C265.001 188.258 256.386 276.092 254.767 319.134C254.759 319.492 254.674 319.843 254.517 320.165C254.36 320.486 254.135 320.77 253.858 320.996C253.581 321.222 253.258 321.386 252.912 321.475C252.565 321.565 252.204 321.578 251.852 321.514C243.45 319.967 237.691 324.037 236.775 318.646C235.763 312.696 239.535 255.862 246.592 229.134C245.485 205.43 249.484 157.877 257.469 151.558C261.8 148.048 271.011 146.37 275.937 146.287Z" fill="white"/>
<path d="M280.567 158.08C280.567 158.08 270.285 186.961 266.668 211.165C266.382 217.746 269.512 230.491 272.046 236.048C277.342 224.517 280.65 217.722 281.174 211.165C282.019 201.3 283.411 158.27 283.411 158.27L280.567 158.08Z" fill="#263238"/>
<path d="M302.081 192.435C301.977 192.432 301.877 192.394 301.796 192.328C301.716 192.262 301.659 192.172 301.634 192.071C301.61 191.969 301.62 191.863 301.662 191.767C301.704 191.672 301.776 191.593 301.867 191.543L303.819 190.519C305.641 189.582 307.134 188.112 308.099 186.305C309.064 184.498 309.456 182.44 309.221 180.404L307.103 161.221C306.947 159.792 306.314 158.456 305.306 157.43C304.298 156.404 302.973 155.747 301.547 155.565C300.12 155.384 298.673 155.688 297.44 156.429C296.207 157.171 295.26 158.305 294.751 159.651L287.897 177.679C287.159 179.59 287.019 181.68 287.498 183.672C287.976 185.663 289.049 187.462 290.574 188.829L292.216 190.317C292.304 190.406 292.352 190.526 292.352 190.65C292.352 190.775 292.304 190.894 292.216 190.983C292.127 191.071 292.008 191.119 291.883 191.119C291.759 191.119 291.639 191.071 291.55 190.983L289.908 189.508C288.246 188.007 287.08 186.037 286.563 183.859C286.047 181.681 286.205 179.397 287.016 177.31L293.93 159.317C294.52 157.78 295.609 156.485 297.023 155.641C298.437 154.796 300.093 154.45 301.726 154.659C303.36 154.867 304.876 155.618 306.032 156.791C307.188 157.963 307.918 159.49 308.103 161.126L310.221 180.297C310.472 182.528 310.036 184.782 308.973 186.759C307.91 188.737 306.27 190.343 304.271 191.364L302.319 192.376C302.249 192.421 302.165 192.442 302.081 192.435Z" fill="#263238"/>
<path d="M307.984 165.41C307.871 165.411 307.761 165.371 307.675 165.296C307.59 165.222 307.535 165.118 307.52 165.006C307.243 163.463 306.46 162.056 305.294 161.009C304.128 159.961 302.646 159.333 301.082 159.222C298.44 158.889 294.847 159.722 293.407 163.197C293.386 163.258 293.353 163.315 293.31 163.364C293.266 163.412 293.213 163.451 293.154 163.478C293.095 163.505 293.031 163.52 292.966 163.521C292.901 163.523 292.837 163.511 292.777 163.487C292.716 163.462 292.662 163.426 292.616 163.379C292.571 163.333 292.535 163.278 292.512 163.217C292.488 163.157 292.477 163.092 292.48 163.027C292.482 162.962 292.498 162.899 292.526 162.84C293.331 161.284 294.594 160.013 296.146 159.199C297.697 158.385 299.461 158.067 301.199 158.289C302.937 158.511 304.564 159.262 305.861 160.44C307.158 161.618 308.061 163.166 308.448 164.875C308.465 164.996 308.434 165.12 308.36 165.218C308.286 165.316 308.177 165.381 308.056 165.398L307.984 165.41Z" fill="#263238"/>
<path d="M301.581 155.569C301.519 155.566 301.459 155.55 301.403 155.523C301.347 155.496 301.297 155.459 301.256 155.412C301.214 155.365 301.183 155.311 301.164 155.252C301.144 155.193 301.136 155.131 301.141 155.069C301.284 152.748 300.951 148.524 298.761 147.429C298.649 147.371 298.565 147.27 298.527 147.15C298.489 147.029 298.5 146.899 298.559 146.786C298.617 146.674 298.718 146.59 298.838 146.552C298.959 146.514 299.089 146.526 299.201 146.584C302.367 148.214 302.081 154.426 302.034 155.128C302.028 155.245 301.978 155.356 301.894 155.437C301.81 155.519 301.698 155.566 301.581 155.569Z" fill="#263238"/>
<path d="M292.954 190.793C292.835 191.685 292.276 192.34 291.693 192.256C291.11 192.173 290.729 191.411 290.848 190.531C290.967 189.65 291.514 188.984 292.097 189.067C292.681 189.15 293.061 189.912 292.954 190.793Z" fill="#263238"/>
<path d="M265.287 171.503C264.537 173.395 262.907 174.537 261.717 174.049C260.527 173.561 260.063 171.669 260.812 169.73C261.562 167.79 263.192 166.695 264.382 167.183C265.572 167.671 266.025 169.611 265.287 171.503Z" fill="#263238"/>
<path d="M261.372 170.277H261.277C261.154 170.251 261.046 170.178 260.977 170.073C260.908 169.969 260.883 169.841 260.908 169.718C262.479 161.9 268.976 149.488 274.7 145.918C274.752 145.873 274.813 145.84 274.879 145.821C274.945 145.802 275.014 145.797 275.082 145.808C275.15 145.818 275.214 145.843 275.272 145.88C275.329 145.918 275.378 145.967 275.414 146.025C275.451 146.084 275.474 146.149 275.483 146.217C275.492 146.285 275.486 146.354 275.465 146.42C275.445 146.485 275.411 146.545 275.365 146.596C275.319 146.647 275.263 146.688 275.2 146.715C269.666 150.202 263.371 162.185 261.836 169.885C261.816 169.994 261.759 170.093 261.675 170.165C261.59 170.236 261.483 170.276 261.372 170.277Z" fill="#263238"/>
<path d="M266.643 171.895C266.096 173.526 264.691 174.537 263.501 174.144C262.311 173.752 261.776 172.098 262.311 170.455C262.847 168.813 264.263 167.814 265.453 168.206C266.643 168.599 267.19 170.253 266.643 171.895Z" fill="white"/>
<path d="M266.727 172.062C266.001 174.073 264.656 175.442 263.74 175.108C262.823 174.775 262.669 172.871 263.407 170.848C264.144 168.825 265.477 167.469 266.393 167.802C267.31 168.135 267.464 170.039 266.727 172.062Z" fill="#263238"/>
<path d="M303.141 192.102C303.034 192.982 302.462 193.637 301.879 193.565C301.296 193.494 300.915 192.709 301.034 191.828C301.153 190.947 301.713 190.293 302.296 190.364C302.879 190.436 303.26 191.209 303.141 192.102Z" fill="#263238"/>
<path d="M370.613 140.539C374.587 151.404 364.02 156.866 357.094 172.871C350.169 188.877 366.876 207.964 392.521 208.381C418.165 208.797 418.974 184.236 415 166.612C411.025 148.988 419.331 146.12 417.57 132.661C415.309 114.978 389.831 101.578 379.716 117.81C370.72 116.965 367.138 131.043 370.613 140.539Z" fill="#263238"/>
<path d="M446.571 286.79V285.41C446.547 284.747 446.38 284.098 446.083 283.506L441.775 275.009L436.729 274.057C433.159 277.901 436.729 285.564 436.729 285.564V286.79C436.73 287.794 437.058 288.771 437.663 289.572C438.269 290.373 439.119 290.954 440.085 291.229L440.763 291.431C441.462 291.615 442.194 291.634 442.901 291.484C443.608 291.335 444.27 291.022 444.834 290.571C445.399 290.12 445.85 289.543 446.151 288.887C446.453 288.23 446.596 287.512 446.571 286.79Z" fill="#FFC3BD"/>
<path d="M425.186 177.488L427.043 190.507L428.994 203.49C429.637 207.833 430.315 212.153 431.005 216.485L433.064 229.384L433.314 230.657C433.397 231.074 433.54 231.609 433.647 232.074L434.004 233.537L434.421 235.049C434.956 237.048 435.611 239.118 436.182 241.165C437.372 245.271 438.74 249.424 440.085 253.553C442.822 261.8 445.678 270.082 448.724 278.222L431.898 284.172L423.473 259.015C422.08 254.814 420.664 250.614 419.32 246.33C418.653 244.176 417.987 242.046 417.356 239.82L416.868 238.166L416.404 236.441C416.249 235.846 416.083 235.322 415.94 234.668L415.5 232.716L413.013 219.626C412.219 215.31 411.39 210.995 410.526 206.679L407.979 193.732L405.325 180.88L425.186 177.488Z" fill="#407BFF"/>
<path opacity="0.6" d="M425.186 177.488L427.043 190.507L428.994 203.49C429.637 207.833 430.315 212.153 431.005 216.485L433.064 229.384L433.314 230.657C433.397 231.074 433.54 231.609 433.647 232.074L434.004 233.537L434.421 235.049C434.956 237.048 435.611 239.118 436.182 241.165C437.372 245.271 438.74 249.424 440.085 253.553C442.822 261.8 445.678 270.082 448.724 278.222L431.898 284.172L423.473 259.015C422.08 254.814 420.664 250.614 419.32 246.33C418.653 244.176 417.987 242.046 417.356 239.82L416.868 238.166L416.404 236.441C416.249 235.846 416.083 235.322 415.94 234.668L415.5 232.716L413.013 219.626C412.219 215.31 411.39 210.995 410.526 206.679L407.979 193.732L405.325 180.88L425.186 177.488Z" fill="white"/>
<path d="M422.509 176.489C423.069 182.831 422.569 198.611 416.202 237.726H372.172C372.874 220.733 372.922 209.904 365.627 177.476C365.462 176.747 365.447 175.992 365.585 175.257C365.722 174.522 366.009 173.823 366.427 173.203C366.845 172.583 367.386 172.055 368.016 171.652C368.646 171.249 369.352 170.98 370.09 170.86C374.389 170.154 378.723 169.681 383.073 169.444C389.736 168.967 396.425 168.967 403.088 169.444C408.562 169.944 414.501 170.931 418.094 171.586C419.265 171.808 420.331 172.408 421.128 173.293C421.925 174.179 422.41 175.301 422.509 176.489Z" fill="#263238"/>
<path d="M385.013 146.905C386.274 153.343 387.535 165.148 383.025 169.444C383.025 169.444 388.666 176.298 397.305 176.298C405.945 176.298 403.053 169.444 403.053 169.444C395.913 167.73 396.056 162.399 397.305 157.401L385.013 146.905Z" fill="#FFC3BD"/>
<path opacity="0.2" d="M390.022 151.189L397.293 157.389C396.984 158.559 396.777 159.754 396.674 160.959C393.925 160.567 389.617 158.222 389.022 155.235C388.749 153.819 389.784 151.856 390.022 151.189Z" fill="black"/>
<path d="M377.432 134.267C379.11 144.906 379.598 149.44 385.524 154.414C394.449 161.899 407.147 157.508 408.682 146.584C410.062 136.755 407.075 120.999 396.199 117.75C393.802 117.021 391.26 116.917 388.812 117.447C386.364 117.977 384.092 119.124 382.212 120.779C380.332 122.433 378.906 124.541 378.07 126.902C377.233 129.263 377.014 131.798 377.432 134.267Z" fill="#FFC3BD"/>
<path d="M379.205 141.931C385.298 135.898 387.392 127.508 386.821 124.081C392.688 125.711 396.996 123.403 396.734 122.403C400.875 126.449 408.384 129.65 407.539 125.295C406.694 120.939 401.137 112.907 389.546 115.775C377.956 118.643 373.493 130.543 373.66 135.374C373.826 140.206 379.205 141.931 379.205 141.931Z" fill="#263238"/>
<path d="M392.699 135.469C392.783 136.35 393.306 137.004 393.889 136.957C394.472 136.909 394.853 136.148 394.77 135.279C394.687 134.41 394.151 133.744 393.58 133.791C393.009 133.839 392.699 134.601 392.699 135.469Z" fill="#263238"/>
<path d="M402.588 134.529C402.672 135.398 403.207 136.065 403.778 136.005C404.349 135.946 404.742 135.208 404.659 134.339C404.576 133.47 404.04 132.804 403.469 132.852C402.898 132.899 402.505 133.661 402.588 134.529Z" fill="#263238"/>
<path d="M403.231 132.923L405.266 132.125C405.266 132.125 404.338 133.863 403.231 132.923Z" fill="#263238"/>
<path d="M399.709 136.386C400.671 138.301 401.892 140.075 403.338 141.657C402.925 142.016 402.438 142.28 401.912 142.432C401.386 142.584 400.833 142.62 400.292 142.538L399.709 136.386Z" fill="#ED847E"/>
<path d="M395.865 146.37C396.297 146.399 396.73 146.399 397.162 146.37C397.229 146.361 397.291 146.326 397.333 146.273C397.375 146.22 397.395 146.152 397.388 146.084C397.387 146.051 397.378 146.018 397.364 145.988C397.349 145.958 397.328 145.931 397.302 145.91C397.276 145.889 397.246 145.873 397.214 145.864C397.181 145.855 397.147 145.853 397.114 145.858C396.031 145.984 394.934 145.853 393.911 145.477C392.888 145.101 391.968 144.489 391.224 143.692C391.178 143.651 391.119 143.627 391.057 143.625C390.994 143.623 390.934 143.643 390.885 143.681C390.837 143.72 390.803 143.775 390.791 143.835C390.779 143.896 390.789 143.959 390.819 144.014C391.463 144.72 392.24 145.292 393.106 145.697C393.972 146.101 394.91 146.33 395.865 146.37Z" fill="#263238"/>
<path d="M375.076 142.919C375.871 144.845 377.393 146.38 379.312 147.191C381.859 148.238 383.465 146.001 383.025 143.466C382.632 141.086 380.824 137.79 378.134 137.837C377.549 137.866 376.979 138.038 376.476 138.339C375.973 138.64 375.552 139.06 375.25 139.562C374.947 140.064 374.773 140.633 374.743 141.219C374.713 141.804 374.827 142.388 375.076 142.919Z" fill="#FFC3BD"/>
<path d="M389.308 130.9C389.41 130.936 389.521 130.94 389.626 130.91C389.73 130.88 389.823 130.818 389.891 130.733C391.39 128.889 394.448 129.067 394.472 129.067C394.607 129.074 394.74 129.028 394.842 128.94C394.944 128.851 395.008 128.726 395.02 128.591C395.026 128.524 395.019 128.456 394.998 128.391C394.978 128.326 394.944 128.267 394.899 128.215C394.855 128.164 394.8 128.123 394.739 128.093C394.678 128.064 394.611 128.047 394.544 128.044C394.401 128.044 390.914 127.83 389.093 130.091C389.009 130.197 388.969 130.333 388.982 130.468C388.995 130.604 389.061 130.729 389.165 130.817L389.308 130.9Z" fill="#263238"/>
<path d="M406.171 129.817C406.284 129.824 406.396 129.793 406.489 129.73C406.583 129.666 406.653 129.574 406.688 129.466C406.723 129.359 406.722 129.243 406.685 129.136C406.647 129.03 406.575 128.939 406.48 128.877C405.814 128.407 405.046 128.103 404.239 127.989C403.432 127.875 402.609 127.955 401.839 128.223C401.714 128.278 401.616 128.379 401.564 128.506C401.513 128.633 401.514 128.774 401.566 128.901C401.592 128.964 401.63 129.021 401.678 129.069C401.727 129.117 401.784 129.155 401.847 129.18C401.91 129.206 401.978 129.219 402.046 129.218C402.114 129.217 402.181 129.202 402.244 129.175C402.855 128.971 403.507 128.915 404.144 129.013C404.781 129.11 405.386 129.357 405.909 129.734C405.987 129.784 406.078 129.813 406.171 129.817Z" fill="#263238"/>
<path d="M443.56 484.08L454.52 483.556L451.271 458.804L440.323 459.34L443.56 484.08Z" fill="#FFC3BD"/>
<g opacity="0.2">
<path opacity="0.2" d="M451.271 458.816L452.949 471.573L441.989 472.097L440.312 459.34L451.271 458.816Z" fill="black"/>
</g>
<path d="M416.202 237.726C416.202 237.726 429.994 321.324 435.611 353.918C441.466 387.809 454.651 467.575 454.651 467.575L440.157 469.955C440.157 469.955 420.617 390.106 412.787 356.905C404.29 320.669 383.703 272.081 383.918 237.821L416.202 237.726Z" fill="#407BFF"/>
<path opacity="0.2" d="M394.056 263.383C391.985 260.372 387.999 256.148 384.94 252.673C387.713 273.974 395.65 298.69 402.898 321.967C404.825 304.236 403.731 277.342 394.056 263.383Z" fill="black"/>
<path d="M375.944 482.402H386.797L387.523 457.27H376.658L375.944 482.402Z" fill="#FFC3BD"/>
<path d="M387.309 480.76H375.112C374.901 480.758 374.696 480.833 374.536 480.971C374.376 481.109 374.272 481.3 374.243 481.51L372.851 491.149C372.826 491.393 372.853 491.641 372.929 491.875C373.006 492.108 373.13 492.324 373.295 492.507C373.46 492.689 373.661 492.835 373.886 492.936C374.111 493.036 374.354 493.088 374.6 493.088C378.848 493.005 380.895 492.755 386.262 492.755C389.558 492.755 396.377 493.1 400.935 493.1C405.493 493.1 405.695 488.602 403.838 488.185C395.33 486.365 391.938 483.842 389.118 481.426C388.611 481.001 387.971 480.766 387.309 480.76Z" fill="#263238"/>
<g opacity="0.2">
<path opacity="0.2" d="M387.512 457.281L387.143 470.24H376.29L376.659 457.281H387.512Z" fill="black"/>
</g>
<path d="M403.815 237.726C403.815 237.726 399.412 322.395 396.437 355.358C393.331 389.653 389.594 467.372 389.594 467.372H374.91C374.91 467.372 372.292 389.951 373.315 356.131C374.422 319.241 365.556 271.986 371.542 237.726H403.815Z" fill="#407BFF"/>
<path d="M373.636 467.896L390.855 468.217L391.117 457.722L373.564 458.816L373.636 467.896Z" fill="#263238"/>
<path d="M391.379 482.7C392.306 482.785 393.234 482.55 394.008 482.033C394.183 481.877 394.317 481.681 394.398 481.461C394.479 481.241 394.505 481.004 394.473 480.772C394.464 480.632 394.42 480.496 394.345 480.378C394.271 480.259 394.167 480.162 394.044 480.094C392.711 479.356 388.38 481.569 387.892 481.831C387.846 481.857 387.81 481.895 387.786 481.942C387.763 481.989 387.754 482.041 387.761 482.093C387.768 482.145 387.791 482.194 387.827 482.233C387.864 482.271 387.911 482.297 387.963 482.307C389.087 482.547 390.23 482.678 391.379 482.7ZM393.318 480.451C393.482 480.446 393.645 480.479 393.794 480.546C393.844 480.572 393.886 480.611 393.916 480.659C393.945 480.708 393.961 480.763 393.961 480.82C393.987 480.97 393.973 481.126 393.921 481.27C393.869 481.414 393.78 481.541 393.663 481.641C393.009 482.236 391.224 482.343 388.82 481.938C390.223 481.189 391.745 480.686 393.318 480.451Z" fill="#407BFF"/>
<path d="M388.011 482.319H388.118C389.415 481.736 391.974 479.392 391.771 478.166C391.771 477.868 391.521 477.511 390.807 477.44C390.552 477.41 390.293 477.434 390.047 477.51C389.801 477.586 389.574 477.712 389.379 477.88C388.023 479.011 387.773 481.938 387.761 482.057C387.757 482.103 387.764 482.149 387.783 482.191C387.802 482.232 387.831 482.268 387.868 482.295C387.913 482.315 387.962 482.323 388.011 482.319ZM390.605 477.916H390.76C391.224 477.916 391.26 478.142 391.26 478.214C391.391 478.951 389.653 480.784 388.332 481.581C388.434 480.35 388.917 479.182 389.713 478.237C389.961 478.025 390.278 477.911 390.605 477.916Z" fill="#407BFF"/>
<path d="M454.389 480.76H442.192C442.094 480.754 441.996 480.77 441.905 480.806C441.813 480.842 441.731 480.898 441.664 480.97C441.597 481.041 441.547 481.127 441.517 481.22C441.486 481.314 441.477 481.412 441.49 481.51L442.109 491.149C442.181 491.672 442.435 492.153 442.827 492.508C443.219 492.863 443.723 493.068 444.251 493.088C448.487 493.005 450.486 492.755 455.841 492.755C459.149 492.755 466.039 493.1 470.597 493.1C475.155 493.1 474.453 488.602 472.477 488.186C463.588 486.365 459.709 483.842 456.341 481.426C455.774 481.01 455.093 480.777 454.389 480.76Z" fill="#263238"/>
<path d="M458.459 482.7C459.39 482.785 460.322 482.55 461.101 482.033C461.274 481.876 461.407 481.679 461.488 481.46C461.568 481.24 461.595 481.004 461.565 480.772C461.554 480.631 461.508 480.495 461.431 480.377C461.354 480.258 461.249 480.161 461.125 480.094C459.792 479.356 455.472 481.569 454.984 481.831C454.937 481.855 454.897 481.893 454.872 481.94C454.846 481.986 454.836 482.04 454.841 482.093C454.851 482.144 454.875 482.192 454.911 482.23C454.947 482.267 454.993 482.294 455.044 482.307C456.167 482.547 457.311 482.678 458.459 482.7ZM460.399 480.451C460.563 480.444 460.726 480.476 460.875 480.546C460.926 480.571 460.97 480.61 461.001 480.658C461.033 480.706 461.051 480.762 461.053 480.82C461.074 480.97 461.057 481.124 461.006 481.267C460.954 481.41 460.868 481.538 460.756 481.641C460.089 482.236 458.304 482.343 455.9 481.938C457.304 481.19 458.826 480.687 460.399 480.451Z" fill="#407BFF"/>
<path d="M455.104 482.319H455.211C456.496 481.736 459.055 479.391 458.852 478.166C458.852 477.868 458.602 477.511 457.888 477.44C457.635 477.411 457.378 477.435 457.134 477.51C456.89 477.586 456.665 477.712 456.472 477.88C455.104 479.011 454.854 481.938 454.842 482.057C454.841 482.102 454.849 482.147 454.868 482.188C454.887 482.23 454.914 482.266 454.949 482.295C454.998 482.315 455.051 482.323 455.104 482.319ZM457.686 477.916H457.841C458.305 477.916 458.341 478.142 458.352 478.213C458.471 478.951 456.734 480.784 455.413 481.581C455.52 480.351 456.002 479.184 456.794 478.237C457.043 478.027 457.36 477.913 457.686 477.916Z" fill="#407BFF"/>
<path d="M438.943 470.633L455.948 467.896L454.032 458.804L437.182 462.779L438.943 470.633Z" fill="#263238"/>
<path d="M393.378 133.863L395.413 133.066C395.413 133.066 394.497 134.803 393.378 133.863Z" fill="#263238"/>
<path d="M371.458 235.144L370.339 239.095C370.184 239.392 370.541 239.713 371.053 239.713H416.416C416.821 239.713 417.142 239.511 417.166 239.261L417.57 235.322C417.57 235.049 417.249 234.811 416.821 234.811H372.184C372.044 234.799 371.904 234.823 371.777 234.881C371.65 234.94 371.54 235.03 371.458 235.144Z" fill="#263238"/>
<path d="M377.611 240.13H376.421C376.183 240.13 376.004 240.011 376.016 239.868L376.575 234.74C376.575 234.585 376.802 234.466 377.04 234.466H378.23C378.468 234.466 378.646 234.585 378.634 234.74L378.063 239.868C378.051 240.011 377.849 240.13 377.611 240.13Z" fill="#407BFF"/>
<path d="M413.06 240.13H411.87C411.632 240.13 411.442 240.011 411.466 239.868L412.025 234.74C412.025 234.585 412.251 234.466 412.489 234.466H413.679C413.917 234.466 414.096 234.585 414.084 234.74L413.525 239.868C413.501 240.011 413.298 240.13 413.06 240.13Z" fill="#407BFF"/>
<path d="M395.401 240.13H394.211C393.973 240.13 393.794 240.011 393.806 239.868L394.366 234.74C394.366 234.585 394.592 234.466 394.83 234.466H396.02C396.258 234.466 396.436 234.585 396.412 234.74L395.853 239.868C395.853 240.011 395.639 240.13 395.401 240.13Z" fill="#407BFF"/>
<path d="M381.121 169.087C374.207 169.718 363.64 168.409 363.961 179.012C364.283 189.615 362.224 217.699 362.771 230.848C363.319 243.998 359.892 329.142 365.437 353.823C366.413 358.166 402.232 357.607 406.563 357.191V353.275C406.563 353.275 432.589 349.777 439.027 350.895C438.467 336.068 424.056 261.169 423.497 240.13C422.938 219.091 425.306 182.939 425.163 177.203C425.02 171.467 413.62 168.944 406.635 169.087C408.182 174.264 404.767 183.986 399.304 194.827C385.869 181.737 381.907 175.24 381.121 169.087Z" fill="#407BFF"/>
<path opacity="0.7" d="M381.121 169.087C374.207 169.718 363.64 168.409 363.961 179.012C364.283 189.615 362.224 217.699 362.771 230.848C363.319 243.998 359.892 329.142 365.437 353.823C366.413 358.166 402.232 357.607 406.563 357.191V353.275C406.563 353.275 432.589 349.777 439.027 350.895C438.467 336.068 424.056 261.169 423.497 240.13C422.938 219.091 425.306 182.939 425.163 177.203C425.02 171.467 413.62 168.944 406.635 169.087C408.182 174.264 404.767 183.986 399.304 194.827C385.869 181.737 381.907 175.24 381.121 169.087Z" fill="white"/>
<path opacity="0.2" d="M367.959 194.232L363.533 197.362C363.187 206.525 362.723 216.794 362.676 224.732C366.793 215.628 369.114 202.491 367.959 194.232Z" fill="#407BFF"/>
<path d="M382.061 184.724C381.836 185.058 381.594 185.379 381.335 185.688L381.085 185.973L380.954 186.116L380.716 186.366L380.24 186.878L379.288 187.937C378.646 188.639 378.027 189.365 377.408 190.103C376.171 191.578 374.981 193.082 373.838 194.613C371.504 197.67 369.331 200.848 367.329 204.133C363.394 210.196 360.55 216.902 358.927 223.946C358.628 225.517 358.441 227.108 358.368 228.706C358.442 229.501 358.673 230.274 359.046 230.979C360.557 234.178 362.375 237.223 364.473 240.071C366.674 243.212 369.173 246.271 371.732 249.293C373.017 250.816 374.35 252.292 375.695 253.756C377.039 255.219 378.443 256.719 379.752 258.016L366.924 270.416C365.365 268.714 363.985 267.167 362.545 265.537L358.344 260.622C355.56 257.326 352.882 253.898 350.24 250.305C347.372 246.509 344.892 242.434 342.839 238.143C342.238 236.813 341.725 235.446 341.304 234.049C341.056 233.218 340.861 232.371 340.72 231.515C340.629 231.023 340.566 230.526 340.53 230.027C340.482 229.505 340.462 228.981 340.471 228.456C340.499 225.901 340.717 223.351 341.125 220.828C341.949 216.063 343.282 211.399 345.1 206.917C346.81 202.674 348.798 198.548 351.05 194.565C353.239 190.638 355.643 186.89 358.13 183.224C359.392 181.392 360.677 179.595 362.021 177.822L364.056 175.168L365.115 173.835L365.651 173.169L365.925 172.848L366.044 172.693L365.877 172.883C365.663 173.157 365.461 173.431 365.27 173.716L382.061 184.724Z" fill="#407BFF"/>
<path opacity="0.7" d="M382.061 184.724C381.836 185.058 381.594 185.379 381.335 185.688L381.085 185.973L380.954 186.116L380.716 186.366L380.24 186.878L379.288 187.937C378.646 188.639 378.027 189.365 377.408 190.103C376.171 191.578 374.981 193.082 373.838 194.613C371.504 197.67 369.331 200.848 367.329 204.133C363.394 210.196 360.55 216.902 358.927 223.946C358.628 225.517 358.441 227.108 358.368 228.706C358.442 229.501 358.673 230.274 359.046 230.979C360.557 234.178 362.375 237.223 364.473 240.071C366.674 243.212 369.173 246.271 371.732 249.293C373.017 250.816 374.35 252.292 375.695 253.756C377.039 255.219 378.443 256.719 379.752 258.016L366.924 270.416C365.365 268.714 363.985 267.167 362.545 265.537L358.344 260.622C355.56 257.326 352.882 253.898 350.24 250.305C347.372 246.509 344.892 242.434 342.839 238.143C342.238 236.813 341.725 235.446 341.304 234.049C341.056 233.218 340.861 232.371 340.72 231.515C340.629 231.023 340.566 230.526 340.53 230.027C340.482 229.505 340.462 228.981 340.471 228.456C340.499 225.901 340.717 223.351 341.125 220.828C341.949 216.063 343.282 211.399 345.1 206.917C346.81 202.674 348.798 198.548 351.05 194.565C353.239 190.638 355.643 186.89 358.13 183.224C359.392 181.392 360.677 179.595 362.021 177.822L364.056 175.168L365.115 173.835L365.651 173.169L365.925 172.848L366.044 172.693L365.877 172.883C365.663 173.157 365.461 173.431 365.27 173.716L382.061 184.724Z" fill="white"/>
<path opacity="0.3" d="M399.316 194.827C400.566 220.221 407.349 308.781 406.575 353.275L408.646 353.001C408.646 353.001 405.433 284.576 403.981 254.636C402.529 224.696 399.316 194.827 399.316 194.827Z" fill="#407BFF"/>
<path opacity="0.3" d="M378.753 258.23L366.044 271.986C366.044 276.604 362.819 285.838 371.363 289.194C379.907 292.55 380.134 268.202 378.753 258.23Z" fill="#407BFF"/>
<path opacity="0.3" d="M420.189 257.802L425.782 271.82C425.949 276.58 427.579 286.1 424.271 289.729C420.962 293.359 419.999 268.119 420.189 257.802Z" fill="#407BFF"/>
<path d="M406.301 203.668L420.26 203.573C420.399 203.579 420.538 203.555 420.667 203.502C420.796 203.45 420.912 203.37 421.007 203.268C421.102 203.166 421.173 203.045 421.217 202.913C421.261 202.781 421.275 202.64 421.26 202.502L420.486 195.886C420.44 195.599 420.296 195.338 420.08 195.145C419.863 194.952 419.586 194.839 419.296 194.827L405.326 194.91C405.187 194.906 405.049 194.931 404.921 194.985C404.793 195.038 404.678 195.118 404.584 195.22C404.489 195.321 404.417 195.441 404.373 195.572C404.328 195.704 404.312 195.843 404.326 195.981L405.1 202.609C405.148 202.897 405.294 203.159 405.513 203.351C405.732 203.544 406.01 203.656 406.301 203.668Z" fill="white" stroke="#407BFF" stroke-width="0.5" stroke-miterlimit="10"/>
</svg>
