<svg width="156" height="164" viewBox="0 0 156 164" fill="none" xmlns="http://www.w3.org/2000/svg">
<path d="M78.0001 4L98.4376 18.9082L123.735 18.8601L131.506 42.9341L152 57.7643L144.137 81.8083L152 105.852L131.506 120.682L123.735 144.756L98.4376 144.708L78.0001 159.617L57.5626 144.708L32.2655 144.756L24.494 120.682L4 105.852L11.863 81.8083L4 57.7643L24.494 42.9341L32.2655 18.8601L57.5626 18.9082L78.0001 4Z" fill="#DB0208" stroke="black" stroke-width="8" stroke-linecap="round" stroke-linejoin="round"/>
<path d="M61.2301 66.6497C61.4623 66.4227 61.7382 66.2426 62.0419 66.1197C62.3456 65.9968 62.6712 65.9336 63.0001 65.9336C63.3289 65.9336 63.6545 65.9968 63.9582 66.1197C64.262 66.2426 64.5378 66.4227 64.7701 66.6497L78.0001 79.5538L91.2301 66.6497C91.4625 66.4231 91.7385 66.2433 92.0422 66.1206C92.3459 65.998 92.6714 65.9349 93.0001 65.9349C93.3288 65.9349 93.6543 65.998 93.958 66.1206C94.2617 66.2433 94.5376 66.4231 94.7701 66.6497C95.0025 66.8763 95.1869 67.1454 95.3127 67.4415C95.4385 67.7376 95.5032 68.0549 95.5032 68.3755C95.5032 68.696 95.4385 69.0133 95.3127 69.3094C95.1869 69.6055 95.0025 69.8746 94.7701 70.1012L81.5351 83.0005L94.7701 95.8997C95.0025 96.1263 95.1869 96.3954 95.3127 96.6915C95.4385 96.9876 95.5032 97.3049 95.5032 97.6255C95.5032 97.9459 95.4385 98.2633 95.3127 98.5594C95.1869 98.8555 95.0025 99.1246 94.7701 99.3512C94.5376 99.5778 94.2617 99.7576 93.958 99.8803C93.6543 100.003 93.3288 100.066 93.0001 100.066C92.6714 100.066 92.3459 100.003 92.0422 99.8803C91.7385 99.7576 91.4625 99.5778 91.2301 99.3512L78.0001 86.4471L64.7701 99.3512C64.5376 99.5778 64.2617 99.7576 63.958 99.8803C63.6543 100.003 63.3288 100.066 63.0001 100.066C62.6714 100.066 62.3459 100.003 62.0422 99.8803C61.7385 99.7576 61.4625 99.5778 61.2301 99.3512C60.9976 99.1246 60.8133 98.8555 60.6875 98.5594C60.5617 98.2633 60.4969 97.9459 60.4969 97.6255C60.4969 97.3049 60.5617 96.9876 60.6875 96.6915C60.8133 96.3954 60.9976 96.1263 61.2301 95.8997L74.4651 83.0005L61.2301 70.1012C60.9973 69.8748 60.8125 69.6058 60.6865 69.3097C60.5605 69.0135 60.4956 68.6961 60.4956 68.3755C60.4956 68.0548 60.5605 67.7374 60.6865 67.4412C60.8125 67.1451 60.9973 66.8761 61.2301 66.6497Z" fill="white"/>
</svg>
