<svg width="110" height="135" viewBox="0 0 110 135" fill="none" xmlns="http://www.w3.org/2000/svg">
<path d="M8.46154 42.1875V126.562C8.46154 131.203 12.2692 135 16.9231 135H93.0769C97.7308 135 101.538 131.203 101.538 126.562V42.1875H8.46154ZM33.8462 118.125H25.3846V59.0625H33.8462V118.125ZM50.7692 118.125H42.3077V59.0625H50.7692V118.125ZM67.6923 118.125H59.2308V59.0625H67.6923V118.125ZM84.6154 118.125H76.1538V59.0625H84.6154V118.125ZM103.654 16.875H76.1538V6.32812C76.1472 4.65185 75.4764 3.04614 74.2877 1.86083C73.099 0.675517 71.4887 0.00666517 69.8077 0L40.1923 0C38.5113 0.00666517 36.901 0.675517 35.7123 1.86083C34.5236 3.04614 33.8528 4.65185 33.8462 6.32812V16.875H6.34615C4.66442 16.8795 3.05285 17.5476 1.86368 18.7334C0.674511 19.9192 0.00446677 21.5262 0 23.2031V33.75H110V23.2031C109.996 21.5262 109.325 19.9192 108.136 18.7334C106.947 17.5476 105.336 16.8795 103.654 16.875ZM67.6923 16.875H42.3077V8.54719H67.6923V16.875Z" fill="#CDCDCD"/>
</svg>
