<svg width="45" height="45" viewBox="0 0 45 45" fill="none" xmlns="http://www.w3.org/2000/svg">
<circle cx="22.5" cy="22.5" r="21" stroke="#F4EB15" stroke-width="3"/>
<path d="M20.3332 24.2419L19.7081 14.9171C19.5914 13.1009 19.5352 11.7959 19.5352 11.0042C19.5352 9.92559 19.8164 9.08676 20.3803 8.48137C20.9463 7.87949 21.6902 7.57715 22.6127 7.57715C23.7258 7.57715 24.4732 7.96457 24.8473 8.73449C25.2248 9.50934 25.4161 10.6217 25.4161 12.075C25.4161 12.9293 25.3697 13.7998 25.2769 14.6822L24.4402 24.2792C24.3495 25.4225 24.1561 26.2986 23.8587 26.9082C23.5591 27.5206 23.0655 27.8229 22.3758 27.8229C21.6783 27.8229 21.1875 27.5283 20.9189 26.9391C20.6426 26.3478 20.4492 25.4485 20.3332 24.2419ZM22.4932 37.0507C21.7022 37.0507 21.0124 36.7962 20.4211 36.2822C19.8298 35.7703 19.5352 35.0532 19.5352 34.1321C19.5352 33.3284 19.8164 32.6414 20.3803 32.0782C20.9463 31.5115 21.6361 31.2303 22.4552 31.2303C23.2744 31.2303 23.9691 31.5115 24.5484 32.0782C25.1215 32.6414 25.4161 33.3284 25.4161 34.1321C25.4161 35.0391 25.1215 35.7549 24.54 36.2724C23.981 36.7818 23.2494 37.06 22.4932 37.0507Z" fill="#F4EB15"/>
</svg>
